%TF.GenerationSoftware,KiCad,Pcbnew,(6.0.0)*%
%TF.CreationDate,2022-02-26T13:06:40+01:00*%
%TF.ProjectId,plate,706c6174-652e-46b6-9963-61645f706362,rev?*%
%TF.SameCoordinates,Original*%
%TF.FileFunction,Profile,NP*%
%FSLAX46Y46*%
G04 Gerber Fmt 4.6, Leading zero omitted, Abs format (unit mm)*
G04 Created by KiCad (PCBNEW (6.0.0)) date 2022-02-26 13:06:40*
%MOMM*%
%LPD*%
G01*
G04 APERTURE LIST*
%TA.AperFunction,Profile*%
%ADD10C,0.264582*%
%TD*%
%TA.AperFunction,Profile*%
%ADD11C,0.150000*%
%TD*%
G04 APERTURE END LIST*
D10*
X-192965542Y-136748021D02*
X-193852850Y-136939596D01*
X-184292347Y-22713381D02*
X-166549317Y-15315043D01*
X-80839092Y9272389D02*
X-80737986Y9218995D01*
X-260005925Y-3017931D02*
X-260005925Y-3017931D01*
X-242049447Y-113816625D02*
X-245402184Y-112171338D01*
X-99837595Y-80321451D02*
X-99837595Y-80321451D01*
X-52768198Y-60624665D02*
X-52853050Y-60711816D01*
X-52161824Y-59564771D02*
X-52199889Y-59683322D01*
X-185074764Y-23024863D02*
X-184292347Y-22713381D01*
X-100591613Y-80780160D02*
X-100760558Y-80932918D01*
X-211690567Y-133037359D02*
X-212732777Y-132224680D01*
X-200444794Y-137273855D02*
X-201223812Y-137197407D01*
X-81052228Y9368206D02*
X-80943848Y9322200D01*
X-101512995Y-83387308D02*
X-99353884Y-93119852D01*
X-101577253Y-82855213D02*
X-101571555Y-82985440D01*
X-295236271Y-83387308D02*
X-295236271Y-83387308D01*
X-212732777Y-132224680D02*
X-212732777Y-132224680D01*
X-291080015Y-97153161D02*
X-295494664Y-96257715D01*
X-101559086Y-83117587D02*
X-101539636Y-83251570D01*
X-317676167Y6701987D02*
X-317676167Y6701987D01*
X-314702530Y9572526D02*
X-314562657Y9574261D01*
X-178199023Y-127830699D02*
X-181510157Y-130251970D01*
X-100226901Y-80519027D02*
X-100413169Y-80641977D01*
X-151347072Y-112171352D02*
X-154699807Y-113816639D01*
X-101539636Y-83251570D02*
X-101512995Y-83387308D01*
X-189372652Y-24378233D02*
X-188474324Y-24138424D01*
X-101193654Y-81472072D02*
X-101307855Y-81676561D01*
X-286570147Y-98164843D02*
X-291080015Y-97153161D01*
X-99290270Y-94097229D02*
X-99310050Y-94242831D01*
X-263919796Y-1524049D02*
X-260005925Y-3017931D01*
X-53648392Y-61242349D02*
X-99837595Y-80321451D01*
X-295212751Y-82355138D02*
X-295237771Y-82235739D01*
X-315350410Y9481162D02*
X-315227782Y9509717D01*
X-199708164Y-137322139D02*
X-200444794Y-137273855D01*
X-210861283Y-23324206D02*
X-210021082Y-23610313D01*
X-197041136Y-137322139D02*
X-198374653Y-137354639D01*
X-52124571Y-58295466D02*
X-52097439Y-58426400D01*
X-297395375Y-93119852D02*
X-297395375Y-93119852D01*
X-105669242Y-97153170D02*
X-110179111Y-98164854D01*
X-295908318Y-81014557D02*
X-295988705Y-80932918D01*
X-185887978Y-23324206D02*
X-185074764Y-23024863D01*
X-344587439Y-59564771D02*
X-344619812Y-59444127D01*
X-80134545Y8763596D02*
X-80063540Y8689548D01*
X-317147313Y7978716D02*
X-317072806Y8139430D01*
X-99639889Y-95122965D02*
X-99709602Y-95228763D01*
X-202896422Y-136939596D02*
X-203783720Y-136748021D01*
X-80737986Y9218995D02*
X-80640556Y9162239D01*
X-81164208Y9410182D02*
X-81052228Y9368206D01*
X-53033569Y-60873368D02*
X-53128868Y-60947390D01*
X-196662893Y-25569862D02*
X-195777071Y-25501820D01*
X-174133798Y-125051594D02*
X-178199023Y-127830699D01*
X-296632074Y-95682628D02*
X-296805327Y-95516126D01*
X-80640556Y9162239D02*
X-80546825Y9102346D01*
X-53227281Y-61016655D02*
X-53328624Y-61080974D01*
X-101512995Y-83387308D02*
X-101512995Y-83387308D01*
X-295555611Y-81472072D02*
X-295618891Y-81374267D01*
X-238828133Y-115474520D02*
X-242049447Y-113816625D01*
X-79719769Y8219865D02*
X-79676418Y8139430D01*
X-245402184Y-112171338D02*
X-248880000Y-110550000D01*
X-200086401Y-25569862D02*
X-199219273Y-25611491D01*
X-136743344Y-3017931D02*
X-132829473Y-1524050D01*
X-344590003Y-58164339D02*
X-344547619Y-58033210D01*
X-52077656Y-58556952D02*
X-52065037Y-58686931D01*
X-52346388Y-60024508D02*
X-52405376Y-60132780D01*
X-315101655Y9533354D02*
X-314972054Y9551850D01*
X-52082515Y-59197315D02*
X-52102954Y-59321578D01*
X-296805327Y-95516126D02*
X-296887238Y-95425346D01*
X-205644570Y-136214001D02*
X-206611827Y-135861345D01*
X-208604273Y-134959209D02*
X-209623168Y-134399518D01*
X-197530020Y-25611491D02*
X-196662893Y-25569862D01*
X-215239067Y-130251969D02*
X-218550205Y-127830697D01*
X-81647622Y9533353D02*
X-81521494Y9509716D01*
X-256159731Y-107448276D02*
X-259877739Y-106030278D01*
X-101254595Y-96257715D02*
X-105669242Y-97153170D01*
X-190282742Y-24600414D02*
X-189372652Y-24378233D01*
X-195525476Y-137197407D02*
X-196304500Y-137273855D01*
X-147869256Y-110550015D02*
X-151347072Y-112171352D01*
X-99295319Y-93465372D02*
X-99280640Y-93630743D01*
X-99413565Y-94649879D02*
X-99461476Y-94775624D01*
X-201872931Y-25408465D02*
X-200972222Y-25501820D01*
X-122368789Y-101328778D02*
X-129474538Y-103486073D01*
X-212456913Y-22713381D02*
X-211674496Y-23024863D01*
X-99372093Y-94519162D02*
X-99413565Y-94649879D01*
X-202784719Y-25290895D02*
X-201872931Y-25408465D01*
X-244642366Y-9326685D02*
X-230199959Y-15315043D01*
X-157921118Y-115474533D02*
X-161004661Y-117133696D01*
X-101536515Y-82355138D02*
X-101555810Y-82476868D01*
X-82046751Y9572525D02*
X-81910275Y9564980D01*
X-344619812Y-59444127D02*
X-344646308Y-59321578D01*
X-280907956Y-99555868D02*
X-286570147Y-98164843D01*
X-316982093Y8300056D02*
X-316875374Y8458812D01*
X-314839004Y9564981D02*
X-314702530Y9572526D01*
X-192122976Y-24987498D02*
X-191200785Y-24803868D01*
X-79996410Y8613919D02*
X-79933181Y8536933D01*
X-100394700Y-95894662D02*
X-100490329Y-95955256D01*
X-171834262Y-123556205D02*
X-174133798Y-125051594D01*
X-52129451Y-59444127D02*
X-52161824Y-59564771D01*
X-163944091Y-118782785D02*
X-166733064Y-120410460D01*
X-316752849Y8613920D02*
X-316614721Y8763597D01*
X-295390908Y-81783080D02*
X-295441410Y-81676561D01*
X-295686010Y-81279531D02*
X-295756761Y-81187946D01*
X-52199889Y-59683322D02*
X-52243460Y-59799588D01*
X-80209401Y8835842D02*
X-80134545Y8763596D01*
X-52537481Y-60340000D02*
X-52610229Y-60438567D01*
X-79601893Y7978716D02*
X-79601893Y7978716D01*
X-315697048Y9368207D02*
X-315469514Y9447910D01*
X-100586859Y-96010799D02*
X-100683895Y-96061285D01*
X-128692787Y-125976D02*
X-124396219Y1176566D01*
X-207376619Y-24378233D02*
X-206466533Y-24600414D01*
X-343100850Y-61242349D02*
X-343209880Y-61194011D01*
X-52469135Y-60238008D02*
X-52537481Y-60340000D01*
X-184016423Y-132224680D02*
X-184016423Y-132224680D01*
X-53432713Y-61140156D02*
X-53539363Y-61194011D01*
X-82329874Y9569965D02*
X-82186625Y9574260D01*
X-82186625Y9574260D02*
X-82046751Y9572525D01*
X-344343887Y-60132780D02*
X-344402876Y-60024508D01*
X-99310050Y-94242831D02*
X-99337456Y-94383477D01*
X-295209631Y-83251570D02*
X-295190181Y-83117587D01*
X-99280640Y-93630743D02*
X-99275169Y-93791180D01*
X-344505804Y-59799588D02*
X-344549375Y-59683322D01*
X-295180096Y-82600845D02*
X-295193456Y-82476868D01*
X-344062062Y-60533519D02*
X-344211780Y-60340000D01*
X-198374653Y-137354639D02*
X-198374653Y-137354639D01*
X-196304500Y-137273855D02*
X-197041136Y-137322139D01*
X-296258927Y-95955249D02*
X-296448886Y-95829017D01*
X-276746569Y2383857D02*
X-272353052Y1176568D01*
X-252476551Y-108963953D02*
X-256159731Y-107448276D01*
X-296522363Y-80519027D02*
X-296617908Y-80463469D01*
X-52405376Y-60132780D02*
X-52469135Y-60238008D01*
X-206466533Y-24600414D02*
X-205548494Y-24803868D01*
X-100877905Y-96147068D02*
X-101069193Y-96212559D01*
X-144272705Y-108963968D02*
X-144272705Y-108963968D01*
X-297439208Y-94242830D02*
X-297458988Y-94097228D01*
X-202042070Y-137087690D02*
X-202896422Y-136939596D01*
X-80288082Y8906062D02*
X-80209401Y8835842D01*
X-102717826Y6266015D02*
X-95129974Y7642776D01*
X-295190181Y-83117587D02*
X-295177711Y-82985440D01*
X-192048435Y-136507858D02*
X-192965542Y-136748021D01*
X-101358357Y-81783080D02*
X-101404182Y-81892339D01*
X-82626393Y9542387D02*
X-82476471Y9559414D01*
X-79676418Y8139430D02*
X-79637117Y8058973D01*
X-314122898Y9542387D02*
X-314122898Y9542387D01*
X-99353884Y-93119852D02*
X-99319602Y-93295073D01*
X-344680939Y-59071529D02*
X-344688704Y-58944410D01*
X-194876361Y-25408465D02*
X-193964571Y-25290895D01*
X-295988705Y-80932918D02*
X-296071886Y-80854758D01*
X-296714780Y-80411966D02*
X-296812771Y-80364599D01*
X-212732777Y-132224680D02*
X-215239067Y-130251969D01*
X-295268306Y-82118751D02*
X-295304146Y-82004257D01*
X-101063254Y-81279531D02*
X-101193654Y-81472072D01*
X-210652982Y-133760604D02*
X-211690567Y-133037359D01*
X-99943929Y-95516132D02*
X-100029115Y-95601895D01*
X-222615436Y-125051589D02*
X-227384004Y-122005373D01*
X-297335693Y-94649876D02*
X-297377165Y-94519159D01*
X-88916471Y8646281D02*
X-82626393Y9542387D01*
X-100490329Y-95955256D02*
X-100586859Y-96010799D01*
X-99862017Y-95425353D02*
X-99943929Y-95516132D01*
X-53648392Y-61242349D02*
X-53648392Y-61242349D01*
X-201223812Y-137197407D02*
X-202042070Y-137087690D01*
X-52102954Y-59321578D02*
X-52129451Y-59444127D01*
X-53128868Y-60947390D02*
X-53227281Y-61016655D01*
X-81777224Y9551848D02*
X-81647622Y9533353D01*
X-295871352Y-96147063D02*
X-296065361Y-96061279D01*
X-263594695Y-104709644D02*
X-267274722Y-103486058D01*
X-316292455Y9039538D02*
X-316108719Y9162241D01*
X-343521968Y-61016655D02*
X-343715684Y-60873368D01*
X-198374646Y-25625612D02*
X-198374646Y-25625612D01*
X-99837595Y-80321451D02*
X-100034485Y-80411966D01*
X-195777071Y-25501820D02*
X-194876361Y-25408465D01*
X-189149782Y-135444783D02*
X-190137407Y-135861345D01*
X-100918330Y-81099594D02*
X-101063254Y-81279531D01*
X-52065037Y-58686931D02*
X-52059397Y-58816147D01*
X-295236271Y-83387308D02*
X-295209631Y-83251570D01*
X-101480960Y-82118751D02*
X-101511495Y-82235739D01*
X-206611827Y-135861345D02*
X-207599444Y-135444783D01*
X-297174223Y-95012168D02*
X-297233827Y-94896386D01*
X-297233827Y-94896386D02*
X-297287782Y-94775620D01*
X-161004661Y-117133696D02*
X-163944091Y-118782785D01*
X-79818524Y8379779D02*
X-79767146Y8300055D01*
X-200972222Y-25501820D02*
X-200086401Y-25569862D01*
X-344688704Y-58944410D02*
X-344689858Y-58816147D01*
X-115841303Y-99555881D02*
X-122368789Y-101328778D01*
X-79767146Y8300055D02*
X-79719769Y8219865D01*
X-297470747Y-93946676D02*
X-297474089Y-93791179D01*
X-101569171Y-82600845D02*
X-101576388Y-82726987D01*
X-296448886Y-95829017D02*
X-296632074Y-95682628D01*
X-99337456Y-94383477D02*
X-99372093Y-94519162D01*
X-296428356Y-80578557D02*
X-296522363Y-80519027D01*
X-314972054Y9551850D02*
X-314839004Y9564981D01*
X-296965479Y-95329555D02*
X-297039654Y-95228758D01*
X-296812771Y-80364599D02*
X-296911671Y-80321451D01*
X-79073094Y6701987D02*
X-79073094Y6701987D01*
X-344671593Y-58556952D02*
X-344651806Y-58426400D01*
X-230199959Y-15315043D02*
X-212456913Y-22713381D01*
X-210021082Y-23610313D02*
X-209157700Y-23882085D01*
X-52251892Y-57902269D02*
X-52201613Y-58033210D01*
X-136871520Y-106030294D02*
X-140589527Y-107448291D01*
X-296336095Y-80641977D02*
X-296428356Y-80578557D01*
X-115575171Y3496167D02*
X-111176559Y4513780D01*
X-101445119Y-82004257D02*
X-101480960Y-82118751D01*
X-52059397Y-58816147D02*
X-52060553Y-58944410D01*
X-295756761Y-81187946D02*
X-295830933Y-81099594D01*
X-79873877Y8458812D02*
X-79818524Y8379779D01*
X-316108719Y9162241D02*
X-315910183Y9272391D01*
X-99709602Y-95228763D02*
X-99783777Y-95329561D01*
X-294031449Y6266016D02*
X-285572714Y4513782D01*
X-81279762Y9447908D02*
X-81164208Y9410182D01*
X-211674496Y-23024863D02*
X-210861283Y-23324206D01*
X-81910275Y9564980D02*
X-81777224Y9551848D01*
X-297411801Y-94383475D02*
X-297439208Y-94242830D01*
X-295304146Y-82004257D02*
X-295345084Y-81892339D01*
X-169365236Y-122005380D02*
X-171834262Y-123556205D01*
X-209623168Y-134399518D02*
X-210652982Y-133760604D01*
X-344211780Y-60340000D02*
X-344343887Y-60132780D01*
X-296887238Y-95425346D02*
X-296965479Y-95329555D01*
X-144272705Y-108963968D02*
X-147869256Y-110550015D01*
X-80456818Y9039537D02*
X-80370562Y8974035D01*
X-295680065Y-96212557D02*
X-295871352Y-96147063D01*
X-101069193Y-96212559D02*
X-101254595Y-96257715D01*
X-218550205Y-127830697D02*
X-222615436Y-125051589D01*
X-316875374Y8458812D02*
X-316752849Y8613920D01*
X-296911671Y-80321451D02*
X-343100850Y-61242349D01*
X-344624671Y-58295466D02*
X-344590003Y-58164339D01*
X-101511495Y-82235739D02*
X-101536515Y-82355138D01*
X-205548494Y-24803868D02*
X-204626307Y-24987498D01*
X-81521494Y9509716D02*
X-81398866Y9481160D01*
X-52292354Y-59913380D02*
X-52346388Y-60024508D01*
X-100300369Y-95829024D02*
X-100394700Y-95894662D01*
X-52060553Y-58944410D02*
X-52068320Y-59071529D01*
X-248880000Y-110550000D02*
X-252476551Y-108963953D01*
X-184537910Y-132642518D02*
X-185058635Y-133037359D01*
X-297429657Y-93295073D02*
X-297395375Y-93119852D01*
X-295172014Y-82855213D02*
X-295172878Y-82726987D01*
X-154699807Y-113816639D02*
X-157921118Y-115474533D01*
X-52853050Y-60711816D02*
X-52941568Y-60794780D01*
X-344689858Y-58816147D02*
X-344684215Y-58686931D01*
X-132829473Y-1524050D02*
X-128692787Y-125976D01*
X-295172878Y-82726987D02*
X-295180096Y-82600845D01*
X-297453939Y-93465372D02*
X-297429657Y-93295073D01*
X-52687197Y-60533519D02*
X-52768198Y-60624665D01*
X-79601893Y7978716D02*
X-79073094Y6701987D01*
X-99515430Y-94896390D02*
X-99575033Y-95012172D01*
X-343316533Y-61140156D02*
X-343420623Y-61080974D01*
X-52201613Y-58033210D02*
X-52159234Y-58164339D01*
X-296617908Y-80463469D02*
X-296714780Y-80411966D01*
X-81398866Y9481160D02*
X-81279762Y9447908D01*
X-316461189Y8906063D02*
X-316292455Y9039538D01*
X-295345084Y-81892339D02*
X-295390908Y-81783080D01*
X-317147313Y7978716D02*
X-317147313Y7978716D01*
X-227384004Y-122005373D02*
X-232805155Y-118782774D01*
X-295618891Y-81374267D02*
X-295686010Y-81279531D01*
X-100029115Y-95601895D02*
X-100117181Y-95682635D01*
X-296071886Y-80854758D02*
X-296157651Y-80780160D01*
X-204626307Y-24987498D02*
X-203703780Y-25150206D01*
X-343896206Y-60711816D02*
X-344062062Y-60533519D01*
X-52159234Y-58164339D02*
X-52124571Y-58295466D01*
X-99353884Y-93119852D02*
X-99353884Y-93119852D01*
X-79637117Y8058973D02*
X-79601893Y7978716D01*
X-188144945Y-134959209D02*
X-189149782Y-135444783D01*
X-207599444Y-135444783D02*
X-208604273Y-134959209D01*
X-259877739Y-106030278D02*
X-263594695Y-104709644D01*
X-315227782Y9509717D02*
X-315101655Y9533354D01*
X-343100850Y-61242349D02*
X-343100850Y-61242349D01*
X-203703780Y-25150206D02*
X-202784719Y-25290895D01*
X-315910183Y9272391D02*
X-315697048Y9368207D01*
X-316614721Y8763597D02*
X-316461189Y8906063D01*
X-100413169Y-80641977D02*
X-100591613Y-80780160D01*
X-181510157Y-130251970D02*
X-184016446Y-132224680D01*
X-129474538Y-103486073D02*
X-136871520Y-106030294D01*
X-52251892Y-57902269D02*
X-52251892Y-57902269D01*
X-184292347Y-22713381D02*
X-184292347Y-22713381D01*
X-199219273Y-25611491D02*
X-198374646Y-25625612D01*
X-204700818Y-136507858D02*
X-205644570Y-136214001D01*
X-80370562Y8974035D02*
X-80288082Y8906062D01*
X-166733064Y-120410460D02*
X-169365236Y-122005380D01*
X-297287782Y-94775620D02*
X-297335693Y-94649876D01*
X-203783720Y-136748021D02*
X-204700818Y-136507858D01*
X-212456913Y-22713381D02*
X-212456913Y-22713381D01*
X-297474089Y-93791179D02*
X-297468618Y-93630742D01*
X-314272816Y9559415D02*
X-314122898Y9542387D01*
X-52097439Y-58426400D02*
X-52077656Y-58556952D01*
X-193964571Y-25290895D02*
X-193045507Y-25150206D01*
X-80943848Y9322200D02*
X-80839092Y9272389D01*
X-252476551Y-108963953D02*
X-252476551Y-108963953D01*
X-80546825Y9102346D02*
X-80456818Y9039537D01*
X-344666746Y-59197315D02*
X-344680939Y-59071529D01*
X-101555810Y-82476868D02*
X-101569171Y-82600845D01*
X-79073094Y6701987D02*
X-52251892Y-57902269D01*
X-111176559Y4513780D02*
X-102717826Y6266015D01*
X-99275169Y-93791180D02*
X-99278511Y-93946677D01*
X-296157651Y-80780160D02*
X-296245790Y-80709206D01*
X-232805155Y-118782774D02*
X-238828133Y-115474520D01*
X-344456910Y-59913380D02*
X-344505804Y-59799588D01*
X-124396219Y1176566D02*
X-120002702Y2383855D01*
X-295494664Y-96257715D02*
X-295680065Y-96212557D01*
X-297377165Y-94519159D02*
X-297411801Y-94383475D01*
X-184016446Y-132224680D02*
X-184016423Y-132224680D01*
X-79933181Y8536933D02*
X-79873877Y8458812D01*
X-344651806Y-58426400D02*
X-344624671Y-58295466D01*
X-317676167Y6701987D02*
X-317147313Y7978716D01*
X-343715684Y-60873368D02*
X-343896206Y-60711816D01*
X-191200785Y-24803868D02*
X-190282742Y-24600414D01*
X-296245790Y-80709206D02*
X-296336095Y-80641977D01*
X-274380471Y-101328764D02*
X-280907956Y-99555868D01*
X-344402876Y-60024508D02*
X-344456910Y-59913380D01*
X-343420623Y-61080974D02*
X-343521968Y-61016655D01*
X-99461476Y-94775624D02*
X-99515430Y-94896390D01*
X-285572714Y4513782D02*
X-276746569Y2383857D01*
X-140589527Y-107448291D02*
X-144272705Y-108963968D01*
X-314562657Y9574261D02*
X-314419411Y9569965D01*
X-82476471Y9559414D02*
X-82329874Y9569965D01*
X-344497334Y-57902269D02*
X-317676167Y6701987D01*
X-315469514Y9447910D02*
X-315350410Y9481162D01*
X-53328624Y-61080974D02*
X-53432713Y-61140156D01*
X-100207731Y-95758347D02*
X-100300369Y-95829024D01*
X-314419411Y9569965D02*
X-314272816Y9559415D01*
X-185058635Y-133037359D02*
X-186096225Y-133760604D01*
X-314122898Y9542387D02*
X-307832810Y8646282D01*
X-53539363Y-61194011D02*
X-53648392Y-61242349D01*
X-343209880Y-61194011D02*
X-343316533Y-61140156D01*
X-110179111Y-98164854D02*
X-115841303Y-99555881D01*
X-136743344Y-3017931D02*
X-136743344Y-3017931D01*
X-344646308Y-59321578D02*
X-344666746Y-59197315D01*
X-101404182Y-81892339D02*
X-101445119Y-82004257D01*
X-101571555Y-82985440D02*
X-101559086Y-83117587D01*
X-307832810Y8646282D02*
X-301619304Y7642777D01*
X-296911671Y-80321451D02*
X-296911671Y-80321451D01*
X-301619304Y7642777D02*
X-294031449Y6266016D01*
X-166549317Y-15315043D02*
X-136743344Y-3017931D01*
X-101576388Y-82726987D02*
X-101577253Y-82855213D01*
X-193045507Y-25150206D02*
X-192122976Y-24987498D01*
X-270881940Y-102359203D02*
X-274380471Y-101328764D01*
X-99278511Y-93946677D02*
X-99290270Y-94097229D01*
X-344684215Y-58686931D02*
X-344671593Y-58556952D01*
X-80063540Y8689548D02*
X-79996410Y8613919D01*
X-101307855Y-81676561D02*
X-101358357Y-81783080D01*
X-187591565Y-23882085D02*
X-186728180Y-23610313D01*
X-188474324Y-24138424D02*
X-187591565Y-23882085D01*
X-198374646Y-25625612D02*
X-197530020Y-25611491D01*
X-100034485Y-80411966D02*
X-100226901Y-80519027D01*
X-260005925Y-3017931D02*
X-244642366Y-9326685D01*
X-297039654Y-95228758D02*
X-297109367Y-95122960D01*
X-184016423Y-132224680D02*
X-184537910Y-132642518D01*
X-268056483Y-125975D02*
X-263919796Y-1524049D01*
X-193852850Y-136939596D02*
X-194707210Y-137087690D01*
X-344549375Y-59683322D02*
X-344587439Y-59564771D01*
X-95129974Y7642776D02*
X-88916471Y8646281D01*
X-120002702Y2383855D02*
X-115575171Y3496167D01*
X-297468618Y-93630742D02*
X-297453939Y-93465372D01*
X-272353052Y1176568D02*
X-268056483Y-125975D01*
X-100683895Y-96061285D02*
X-100877905Y-96147068D01*
X-99319602Y-93295073D02*
X-99295319Y-93465372D01*
X-209157700Y-23882085D02*
X-208274943Y-24138424D01*
X-295441410Y-81676561D02*
X-295496381Y-81572864D01*
X-194707210Y-137087690D02*
X-195525476Y-137197407D01*
X-295494664Y-96257715D02*
X-295494664Y-96257715D01*
X-52610229Y-60438567D02*
X-52687197Y-60533519D01*
X-99783777Y-95329561D02*
X-99862017Y-95425353D01*
X-344497334Y-57902269D02*
X-344497334Y-57902269D01*
X-297109367Y-95122960D02*
X-297174223Y-95012168D01*
X-296065361Y-96061279D02*
X-296258927Y-95955249D01*
X-186096225Y-133760604D02*
X-187126044Y-134399518D01*
X-297395375Y-93119852D02*
X-295236271Y-83387308D01*
X-52068320Y-59071529D02*
X-52082515Y-59197315D01*
X-295177711Y-82985440D02*
X-295172014Y-82855213D01*
X-52243460Y-59799588D02*
X-52292354Y-59913380D01*
X-267274722Y-103486058D02*
X-270881940Y-102359203D01*
X-186728180Y-23610313D02*
X-185887978Y-23324206D01*
X-295830933Y-81099594D02*
X-295908318Y-81014557D01*
X-295496381Y-81572864D02*
X-295555611Y-81472072D01*
X-198374653Y-137354639D02*
X-199708164Y-137322139D01*
X-297458988Y-94097228D02*
X-297470747Y-93946676D01*
X-295237771Y-82235739D02*
X-295268306Y-82118751D01*
X-101254595Y-96257715D02*
X-101254595Y-96257715D01*
X-295193456Y-82476868D02*
X-295212751Y-82355138D01*
X-100117181Y-95682635D02*
X-100207731Y-95758347D01*
X-344547619Y-58033210D02*
X-344497334Y-57902269D01*
X-190137407Y-135861345D02*
X-191104674Y-136214001D01*
X-317072806Y8139430D02*
X-316982093Y8300056D01*
X-191104674Y-136214001D02*
X-192048435Y-136507858D01*
X-208274943Y-24138424D02*
X-207376619Y-24378233D01*
X-82626393Y9542387D02*
X-82626393Y9542387D01*
X-52941568Y-60794780D02*
X-53033569Y-60873368D01*
X-100760558Y-80932918D02*
X-100918330Y-81099594D01*
X-187126044Y-134399518D02*
X-188144945Y-134959209D01*
X-99575033Y-95012172D02*
X-99639889Y-95122965D01*
D11*
%TO.C,SW18*%
X-165933130Y-38413927D02*
X-160575562Y-51348241D01*
X-178867444Y-43771495D02*
X-165933130Y-38413927D01*
X-160575562Y-51348241D02*
X-173509876Y-56705809D01*
X-173509876Y-56705809D02*
X-178867444Y-43771495D01*
%TO.C,SW3*%
X-113367667Y-16370002D02*
X-126301981Y-21727570D01*
X-118725235Y-3435688D02*
X-113367667Y-16370002D01*
X-131659549Y-8793256D02*
X-118725235Y-3435688D01*
X-126301981Y-21727570D02*
X-131659549Y-8793256D01*
%TO.C,SW58*%
X-257987394Y-104009374D02*
X-252629826Y-91075060D01*
X-252629826Y-91075060D02*
X-239695512Y-96432628D01*
X-239695512Y-96432628D02*
X-245053080Y-109366942D01*
X-245053080Y-109366942D02*
X-257987394Y-104009374D01*
%TO.C,SW22*%
X-285295750Y-20989399D02*
X-272361436Y-26346967D01*
X-277719004Y-39281281D02*
X-290653318Y-33923713D01*
X-290653318Y-33923713D02*
X-285295750Y-20989399D01*
X-272361436Y-26346967D02*
X-277719004Y-39281281D01*
%TO.C,SW1*%
X-76442499Y-6216458D02*
X-89376813Y-11574026D01*
X-81800067Y6717856D02*
X-76442499Y-6216458D01*
X-89376813Y-11574026D02*
X-94734381Y1360288D01*
X-94734381Y1360288D02*
X-81800067Y6717856D01*
%TO.C,SW36*%
X-329491904Y-28389569D02*
X-316557590Y-33747137D01*
X-321915158Y-46681451D02*
X-334849472Y-41323883D01*
X-334849472Y-41323883D02*
X-329491904Y-28389569D01*
X-316557590Y-33747137D02*
X-321915158Y-46681451D01*
%TO.C,SW30*%
X-166238890Y-74259520D02*
X-171596458Y-61325206D01*
X-153304576Y-68901952D02*
X-166238890Y-74259520D01*
X-171596458Y-61325206D02*
X-158662144Y-55967638D01*
X-158662144Y-55967638D02*
X-153304576Y-68901952D01*
%TO.C,SW28*%
X-131131468Y-59717550D02*
X-136489036Y-46783236D01*
X-123554722Y-41425668D02*
X-118197154Y-54359982D01*
X-136489036Y-46783236D02*
X-123554722Y-41425668D01*
X-118197154Y-54359982D02*
X-131131468Y-59717550D01*
%TO.C,SW37*%
X-59987111Y-45943279D02*
X-54629543Y-58877593D01*
X-67563857Y-64235161D02*
X-72921425Y-51300847D01*
X-72921425Y-51300847D02*
X-59987111Y-45943279D01*
X-54629543Y-58877593D02*
X-67563857Y-64235161D01*
%TO.C,SW13*%
X-69171514Y-23770171D02*
X-82105828Y-29127739D01*
X-74529082Y-10835857D02*
X-69171514Y-23770171D01*
X-87463396Y-16193425D02*
X-74529082Y-10835857D01*
X-82105828Y-29127739D02*
X-87463396Y-16193425D01*
%TO.C,SW50*%
X-133863820Y-102226368D02*
X-138073701Y-88874331D01*
X-124721664Y-84664450D02*
X-120511783Y-98016487D01*
X-138073701Y-88874331D02*
X-124721664Y-84664450D01*
X-120511783Y-98016487D02*
X-133863820Y-102226368D01*
%TO.C,SW47*%
X-306274864Y-58571833D02*
X-311632432Y-71506147D01*
X-311632432Y-71506147D02*
X-324566746Y-66148579D01*
X-324566746Y-66148579D02*
X-319209178Y-53214265D01*
X-319209178Y-53214265D02*
X-306274864Y-58571833D01*
%TO.C,SW12*%
X-307373186Y-11574028D02*
X-320307500Y-6216460D01*
X-302015618Y1360286D02*
X-307373186Y-11574028D01*
X-320307500Y-6216460D02*
X-314949932Y6717854D01*
X-314949932Y6717854D02*
X-302015618Y1360286D01*
%TO.C,SW43*%
X-232424526Y-78878919D02*
X-237782094Y-91813233D01*
X-245358840Y-73521351D02*
X-232424526Y-78878919D01*
X-250716408Y-86455665D02*
X-245358840Y-73521351D01*
X-237782094Y-91813233D02*
X-250716408Y-86455665D01*
%TO.C,SW54*%
X-182410695Y-91357726D02*
X-187768263Y-78423412D01*
X-174833949Y-73065844D02*
X-169476381Y-86000158D01*
X-169476381Y-86000158D02*
X-182410695Y-91357726D01*
X-187768263Y-78423412D02*
X-174833949Y-73065844D01*
%TO.C,SW34*%
X-292566735Y-38543110D02*
X-279632421Y-43900678D01*
X-284989989Y-56834992D02*
X-297924303Y-51477424D01*
X-279632421Y-43900678D02*
X-284989989Y-56834992D01*
X-297924303Y-51477424D02*
X-292566735Y-38543110D01*
%TO.C,SW45*%
X-285823831Y-71913694D02*
X-280466263Y-58979380D01*
X-267531949Y-64336948D02*
X-272889517Y-77271262D01*
X-272889517Y-77271262D02*
X-285823831Y-71913694D01*
X-280466263Y-58979380D02*
X-267531949Y-64336948D01*
%TO.C,SW25*%
X-67258097Y-28389568D02*
X-61900529Y-41323882D01*
X-80192411Y-33747136D02*
X-67258097Y-28389568D01*
X-61900529Y-41323882D02*
X-74834843Y-46681450D01*
X-74834843Y-46681450D02*
X-80192411Y-33747136D01*
%TO.C,SW7*%
X-215969140Y-39152101D02*
X-228903454Y-33794533D01*
X-223545886Y-20860219D02*
X-210611572Y-26217787D01*
X-228903454Y-33794533D02*
X-223545886Y-20860219D01*
X-210611572Y-26217787D02*
X-215969140Y-39152101D01*
%TO.C,SW41*%
X-141414194Y-84542246D02*
X-146771762Y-71607932D01*
X-133837448Y-66250364D02*
X-128479880Y-79184678D01*
X-128479880Y-79184678D02*
X-141414194Y-84542246D01*
X-146771762Y-71607932D02*
X-133837448Y-66250364D01*
%TO.C,SW35*%
X-299003879Y-41018121D02*
X-304361447Y-53952435D01*
X-317295761Y-48594867D02*
X-311938193Y-35660553D01*
X-304361447Y-53952435D02*
X-317295761Y-48594867D01*
X-311938193Y-35660553D02*
X-299003879Y-41018121D01*
%TO.C,SW23*%
X-297090462Y-36398725D02*
X-310024776Y-31041157D01*
X-310024776Y-31041157D02*
X-304667208Y-18106843D01*
X-291732894Y-23464411D02*
X-297090462Y-36398725D01*
X-304667208Y-18106843D02*
X-291732894Y-23464411D01*
%TO.C,SW29*%
X-135750866Y-61630967D02*
X-148685180Y-66988535D01*
X-141108434Y-48696653D02*
X-135750866Y-61630967D01*
X-154042748Y-54054221D02*
X-141108434Y-48696653D01*
X-148685180Y-66988535D02*
X-154042748Y-54054221D01*
%TO.C,SW2*%
X-99353778Y-553131D02*
X-93996210Y-13487445D01*
X-93996210Y-13487445D02*
X-106930524Y-18845013D01*
X-106930524Y-18845013D02*
X-112288092Y-5910699D01*
X-112288092Y-5910699D02*
X-99353778Y-553131D01*
%TO.C,SW40*%
X-123860483Y-77271262D02*
X-129218051Y-64336948D01*
X-116283737Y-58979380D02*
X-110926169Y-71913694D01*
X-110926169Y-71913694D02*
X-123860483Y-77271262D01*
X-129218051Y-64336948D02*
X-116283737Y-58979380D01*
%TO.C,SW21*%
X-258347547Y-42163839D02*
X-271281861Y-36806271D01*
X-265924293Y-23871957D02*
X-252989979Y-29229525D01*
X-252989979Y-29229525D02*
X-258347547Y-42163839D01*
X-271281861Y-36806271D02*
X-265924293Y-23871957D01*
%TO.C,SW16*%
X-143760020Y-29229524D02*
X-130825706Y-23871956D01*
X-125468138Y-36806270D02*
X-138402452Y-42163838D01*
X-130825706Y-23871956D02*
X-125468138Y-36806270D01*
X-138402452Y-42163838D02*
X-143760020Y-29229524D01*
%TO.C,SW49*%
X-101807798Y-93637025D02*
X-115475942Y-96667179D01*
X-118506096Y-82999035D02*
X-104837952Y-79968881D01*
X-115475942Y-96667179D02*
X-118506096Y-82999035D01*
X-104837952Y-79968881D02*
X-101807798Y-93637025D01*
%TO.C,SW14*%
X-86725224Y-31041157D02*
X-99659538Y-36398725D01*
X-105017106Y-23464411D02*
X-92082792Y-18106843D01*
X-99659538Y-36398725D02*
X-105017106Y-23464411D01*
X-92082792Y-18106843D02*
X-86725224Y-31041157D01*
%TO.C,SW15*%
X-119030995Y-39281281D02*
X-124388563Y-26346967D01*
X-111454249Y-20989399D02*
X-106096681Y-33923713D01*
X-106096681Y-33923713D02*
X-119030995Y-39281281D01*
X-124388563Y-26346967D02*
X-111454249Y-20989399D01*
%TO.C,SW20*%
X-248370582Y-31142943D02*
X-235436268Y-36500511D01*
X-253728150Y-44077257D02*
X-248370582Y-31142943D01*
X-235436268Y-36500511D02*
X-240793836Y-49434825D01*
X-240793836Y-49434825D02*
X-253728150Y-44077257D01*
%TO.C,SW42*%
X-158967906Y-91813233D02*
X-164325474Y-78878919D01*
X-151391160Y-73521351D02*
X-146033592Y-86455665D01*
X-164325474Y-78878919D02*
X-151391160Y-73521351D01*
X-146033592Y-86455665D02*
X-158967906Y-91813233D01*
%TO.C,SW26*%
X-97746121Y-41018121D02*
X-84811807Y-35660553D01*
X-84811807Y-35660553D02*
X-79454239Y-48594867D01*
X-92388553Y-53952435D02*
X-97746121Y-41018121D01*
X-79454239Y-48594867D02*
X-92388553Y-53952435D01*
%TO.C,SW46*%
X-299837720Y-56096821D02*
X-286903406Y-61454389D01*
X-286903406Y-61454389D02*
X-292260974Y-74388703D01*
X-305195288Y-69031135D02*
X-299837720Y-56096821D01*
X-292260974Y-74388703D02*
X-305195288Y-69031135D01*
%TO.C,SW56*%
X-223318258Y-120889337D02*
X-214795598Y-109782391D01*
X-212211312Y-129411997D02*
X-223318258Y-120889337D01*
X-214795598Y-109782391D02*
X-203688652Y-118305051D01*
X-203688652Y-118305051D02*
X-212211312Y-129411997D01*
%TO.C,SW60*%
X-281274058Y-96667179D02*
X-294942202Y-93637025D01*
X-294942202Y-93637025D02*
X-291912048Y-79968881D01*
X-291912048Y-79968881D02*
X-278243904Y-82999035D01*
X-278243904Y-82999035D02*
X-281274058Y-96667179D01*
%TO.C,SW44*%
X-249978238Y-71607932D02*
X-255335806Y-84542246D01*
X-268270120Y-79184678D02*
X-262912552Y-66250364D01*
X-262912552Y-66250364D02*
X-249978238Y-71607932D01*
X-255335806Y-84542246D02*
X-268270120Y-79184678D01*
%TO.C,SW48*%
X-342120457Y-58877593D02*
X-336762889Y-45943279D01*
X-323828575Y-51300847D02*
X-329186143Y-64235161D01*
X-336762889Y-45943279D02*
X-323828575Y-51300847D01*
X-329186143Y-64235161D02*
X-342120457Y-58877593D01*
%TO.C,SW11*%
X-297396221Y-553131D02*
X-284461907Y-5910699D01*
X-302753789Y-13487445D02*
X-297396221Y-553131D01*
X-289819475Y-18845013D02*
X-302753789Y-13487445D01*
X-284461907Y-5910699D02*
X-289819475Y-18845013D01*
%TO.C,SW53*%
X-181954402Y-109782391D02*
X-173431742Y-120889337D01*
X-193061348Y-118305051D02*
X-181954402Y-109782391D01*
X-184538688Y-129411997D02*
X-193061348Y-118305051D01*
X-173431742Y-120889337D02*
X-184538688Y-129411997D01*
%TO.C,SW55*%
X-227273618Y-86000159D02*
X-221916050Y-73065845D01*
X-214339304Y-91357727D02*
X-227273618Y-86000159D01*
X-221916050Y-73065845D02*
X-208981736Y-78423413D01*
X-208981736Y-78423413D02*
X-214339304Y-91357727D01*
%TO.C,SW10*%
X-265090451Y-8793256D02*
X-270448019Y-21727570D01*
X-278024765Y-3435688D02*
X-265090451Y-8793256D01*
X-270448019Y-21727570D02*
X-283382333Y-16370002D01*
X-283382333Y-16370002D02*
X-278024765Y-3435688D01*
%TO.C,SW17*%
X-148379418Y-31142943D02*
X-143021850Y-44077257D01*
X-143021850Y-44077257D02*
X-155956164Y-49434825D01*
X-161313732Y-36500511D02*
X-148379418Y-31142943D01*
X-155956164Y-49434825D02*
X-161313732Y-36500511D01*
%TO.C,SW59*%
X-272028484Y-84664390D02*
X-258676447Y-88874271D01*
X-276238365Y-98016427D02*
X-272028484Y-84664390D01*
X-262886328Y-102226308D02*
X-276238365Y-98016427D01*
X-258676447Y-88874271D02*
X-262886328Y-102226308D01*
%TO.C,SW57*%
X-231647198Y-94883188D02*
X-219229046Y-101347668D01*
X-219229046Y-101347668D02*
X-225693526Y-113765820D01*
X-225693526Y-113765820D02*
X-238111678Y-107301340D01*
X-238111678Y-107301340D02*
X-231647198Y-94883188D01*
%TO.C,SW27*%
X-111760011Y-56834992D02*
X-117117579Y-43900678D01*
X-98825697Y-51477424D02*
X-111760011Y-56834992D01*
X-104183265Y-38543110D02*
X-98825697Y-51477424D01*
X-117117579Y-43900678D02*
X-104183265Y-38543110D01*
%TO.C,SW8*%
X-241099598Y-13589231D02*
X-228165284Y-18946799D01*
X-228165284Y-18946799D02*
X-233522852Y-31881113D01*
X-233522852Y-31881113D02*
X-246457166Y-26523545D01*
X-246457166Y-26523545D02*
X-241099598Y-13589231D01*
%TO.C,SW31*%
X-238087855Y-55967639D02*
X-225153541Y-61325207D01*
X-230511109Y-74259521D02*
X-243445423Y-68901953D01*
X-225153541Y-61325207D02*
X-230511109Y-74259521D01*
X-243445423Y-68901953D02*
X-238087855Y-55967639D01*
%TO.C,SW38*%
X-90475137Y-58571833D02*
X-77540823Y-53214265D01*
X-77540823Y-53214265D02*
X-72183255Y-66148579D01*
X-85117569Y-71506147D02*
X-90475137Y-58571833D01*
X-72183255Y-66148579D02*
X-85117569Y-71506147D01*
%TO.C,SW19*%
X-236174439Y-51348242D02*
X-230816871Y-38413928D01*
X-223240125Y-56705810D02*
X-236174439Y-51348242D01*
X-217882557Y-43771496D02*
X-223240125Y-56705810D01*
X-230816871Y-38413928D02*
X-217882557Y-43771496D01*
%TO.C,SW5*%
X-150292834Y-26523545D02*
X-163227148Y-31881113D01*
X-168584716Y-18946799D02*
X-155650402Y-13589231D01*
X-155650402Y-13589231D02*
X-150292834Y-26523545D01*
X-163227148Y-31881113D02*
X-168584716Y-18946799D01*
%TO.C,SW32*%
X-260999134Y-61630967D02*
X-255641566Y-48696653D01*
X-248064820Y-66988535D02*
X-260999134Y-61630967D01*
X-242707252Y-54054221D02*
X-248064820Y-66988535D01*
X-255641566Y-48696653D02*
X-242707252Y-54054221D01*
%TO.C,SW9*%
X-264010876Y-19252560D02*
X-258653308Y-6318246D01*
X-251076562Y-24610128D02*
X-264010876Y-19252560D01*
X-258653308Y-6318246D02*
X-245718994Y-11675814D01*
X-245718994Y-11675814D02*
X-251076562Y-24610128D01*
%TO.C,SW39*%
X-91554712Y-69031135D02*
X-104489026Y-74388703D01*
X-104489026Y-74388703D02*
X-109846594Y-61454389D01*
X-96912280Y-56096821D02*
X-91554712Y-69031135D01*
X-109846594Y-61454389D02*
X-96912280Y-56096821D01*
%TO.C,SW51*%
X-151696920Y-109366942D02*
X-157054488Y-96432628D01*
X-138762606Y-104009374D02*
X-151696920Y-109366942D01*
X-144120174Y-91075060D02*
X-138762606Y-104009374D01*
X-157054488Y-96432628D02*
X-144120174Y-91075060D01*
%TO.C,SW52*%
X-165102801Y-94883188D02*
X-158638321Y-107301340D01*
X-171056473Y-113765820D02*
X-177520953Y-101347668D01*
X-177520953Y-101347668D02*
X-165102801Y-94883188D01*
X-158638321Y-107301340D02*
X-171056473Y-113765820D01*
%TO.C,SW4*%
X-151031006Y-11675815D02*
X-138096692Y-6318247D01*
X-145673438Y-24610129D02*
X-151031006Y-11675815D01*
X-138096692Y-6318247D02*
X-132739124Y-19252561D01*
X-132739124Y-19252561D02*
X-145673438Y-24610129D01*
%TO.C,SW6*%
X-186138428Y-26217786D02*
X-173204114Y-20860218D01*
X-173204114Y-20860218D02*
X-167846546Y-33794532D01*
X-167846546Y-33794532D02*
X-180780860Y-39152100D01*
X-180780860Y-39152100D02*
X-186138428Y-26217786D01*
%TO.C,SW33*%
X-265618531Y-59717549D02*
X-278552845Y-54359981D01*
X-273195277Y-41425667D02*
X-260260963Y-46783235D01*
X-260260963Y-46783235D02*
X-265618531Y-59717549D01*
X-278552845Y-54359981D02*
X-273195277Y-41425667D01*
%TO.C,SW24*%
X-314644173Y-29127739D02*
X-327578487Y-23770171D01*
X-322220919Y-10835857D02*
X-309286605Y-16193425D01*
X-309286605Y-16193425D02*
X-314644173Y-29127739D01*
X-327578487Y-23770171D02*
X-322220919Y-10835857D01*
%TD*%
M02*
