%TF.GenerationSoftware,KiCad,Pcbnew,(6.0.0)*%
%TF.CreationDate,2022-02-26T13:13:24+01:00*%
%TF.ProjectId,main,6d61696e-2e6b-4696-9361-645f70636258,rev?*%
%TF.SameCoordinates,Original*%
%TF.FileFunction,Profile,NP*%
%FSLAX46Y46*%
G04 Gerber Fmt 4.6, Leading zero omitted, Abs format (unit mm)*
G04 Created by KiCad (PCBNEW (6.0.0)) date 2022-02-26 13:13:24*
%MOMM*%
%LPD*%
G01*
G04 APERTURE LIST*
%TA.AperFunction,Profile*%
%ADD10C,0.264582*%
%TD*%
G04 APERTURE END LIST*
D10*
X-192965542Y-136748021D02*
X-193852850Y-136939596D01*
X-184292347Y-22713381D02*
X-166549317Y-15315043D01*
X-80839092Y9272389D02*
X-80737986Y9218995D01*
X-260005925Y-3017931D02*
X-260005925Y-3017931D01*
X-242049447Y-113816625D02*
X-245402184Y-112171338D01*
X-99837595Y-80321451D02*
X-99837595Y-80321451D01*
X-52768198Y-60624665D02*
X-52853050Y-60711816D01*
X-52161824Y-59564771D02*
X-52199889Y-59683322D01*
X-185074764Y-23024863D02*
X-184292347Y-22713381D01*
X-100591613Y-80780160D02*
X-100760558Y-80932918D01*
X-211690567Y-133037359D02*
X-212732777Y-132224680D01*
X-200444794Y-137273855D02*
X-201223812Y-137197407D01*
X-81052228Y9368206D02*
X-80943848Y9322200D01*
X-101512995Y-83387308D02*
X-99353884Y-93119852D01*
X-101577253Y-82855213D02*
X-101571555Y-82985440D01*
X-295236271Y-83387308D02*
X-295236271Y-83387308D01*
X-212732777Y-132224680D02*
X-212732777Y-132224680D01*
X-291080015Y-97153161D02*
X-295494664Y-96257715D01*
X-101559086Y-83117587D02*
X-101539636Y-83251570D01*
X-317676167Y6701987D02*
X-317676167Y6701987D01*
X-314702530Y9572526D02*
X-314562657Y9574261D01*
X-178199023Y-127830699D02*
X-181510157Y-130251970D01*
X-100226901Y-80519027D02*
X-100413169Y-80641977D01*
X-151347072Y-112171352D02*
X-154699807Y-113816639D01*
X-101539636Y-83251570D02*
X-101512995Y-83387308D01*
X-189372652Y-24378233D02*
X-188474324Y-24138424D01*
X-101193654Y-81472072D02*
X-101307855Y-81676561D01*
X-286570147Y-98164843D02*
X-291080015Y-97153161D01*
X-99290270Y-94097229D02*
X-99310050Y-94242831D01*
X-263919796Y-1524049D02*
X-260005925Y-3017931D01*
X-53648392Y-61242349D02*
X-99837595Y-80321451D01*
X-295212751Y-82355138D02*
X-295237771Y-82235739D01*
X-315350410Y9481162D02*
X-315227782Y9509717D01*
X-199708164Y-137322139D02*
X-200444794Y-137273855D01*
X-210861283Y-23324206D02*
X-210021082Y-23610313D01*
X-197041136Y-137322139D02*
X-198374653Y-137354639D01*
X-52124571Y-58295466D02*
X-52097439Y-58426400D01*
X-297395375Y-93119852D02*
X-297395375Y-93119852D01*
X-105669242Y-97153170D02*
X-110179111Y-98164854D01*
X-295908318Y-81014557D02*
X-295988705Y-80932918D01*
X-185887978Y-23324206D02*
X-185074764Y-23024863D01*
X-344587439Y-59564771D02*
X-344619812Y-59444127D01*
X-80134545Y8763596D02*
X-80063540Y8689548D01*
X-317147313Y7978716D02*
X-317072806Y8139430D01*
X-99639889Y-95122965D02*
X-99709602Y-95228763D01*
X-202896422Y-136939596D02*
X-203783720Y-136748021D01*
X-80737986Y9218995D02*
X-80640556Y9162239D01*
X-81164208Y9410182D02*
X-81052228Y9368206D01*
X-53033569Y-60873368D02*
X-53128868Y-60947390D01*
X-196662893Y-25569862D02*
X-195777071Y-25501820D01*
X-174133798Y-125051594D02*
X-178199023Y-127830699D01*
X-296632074Y-95682628D02*
X-296805327Y-95516126D01*
X-80640556Y9162239D02*
X-80546825Y9102346D01*
X-53227281Y-61016655D02*
X-53328624Y-61080974D01*
X-101512995Y-83387308D02*
X-101512995Y-83387308D01*
X-295555611Y-81472072D02*
X-295618891Y-81374267D01*
X-238828133Y-115474520D02*
X-242049447Y-113816625D01*
X-79719769Y8219865D02*
X-79676418Y8139430D01*
X-245402184Y-112171338D02*
X-248880000Y-110550000D01*
X-200086401Y-25569862D02*
X-199219273Y-25611491D01*
X-136743344Y-3017931D02*
X-132829473Y-1524050D01*
X-344590003Y-58164339D02*
X-344547619Y-58033210D01*
X-52077656Y-58556952D02*
X-52065037Y-58686931D01*
X-52346388Y-60024508D02*
X-52405376Y-60132780D01*
X-315101655Y9533354D02*
X-314972054Y9551850D01*
X-52082515Y-59197315D02*
X-52102954Y-59321578D01*
X-296805327Y-95516126D02*
X-296887238Y-95425346D01*
X-205644570Y-136214001D02*
X-206611827Y-135861345D01*
X-208604273Y-134959209D02*
X-209623168Y-134399518D01*
X-197530020Y-25611491D02*
X-196662893Y-25569862D01*
X-215239067Y-130251969D02*
X-218550205Y-127830697D01*
X-81647622Y9533353D02*
X-81521494Y9509716D01*
X-256159731Y-107448276D02*
X-259877739Y-106030278D01*
X-101254595Y-96257715D02*
X-105669242Y-97153170D01*
X-190282742Y-24600414D02*
X-189372652Y-24378233D01*
X-195525476Y-137197407D02*
X-196304500Y-137273855D01*
X-147869256Y-110550015D02*
X-151347072Y-112171352D01*
X-99295319Y-93465372D02*
X-99280640Y-93630743D01*
X-99413565Y-94649879D02*
X-99461476Y-94775624D01*
X-201872931Y-25408465D02*
X-200972222Y-25501820D01*
X-122368789Y-101328778D02*
X-129474538Y-103486073D01*
X-212456913Y-22713381D02*
X-211674496Y-23024863D01*
X-99372093Y-94519162D02*
X-99413565Y-94649879D01*
X-202784719Y-25290895D02*
X-201872931Y-25408465D01*
X-244642366Y-9326685D02*
X-230199959Y-15315043D01*
X-157921118Y-115474533D02*
X-161004661Y-117133696D01*
X-101536515Y-82355138D02*
X-101555810Y-82476868D01*
X-82046751Y9572525D02*
X-81910275Y9564980D01*
X-344619812Y-59444127D02*
X-344646308Y-59321578D01*
X-280907956Y-99555868D02*
X-286570147Y-98164843D01*
X-316982093Y8300056D02*
X-316875374Y8458812D01*
X-314839004Y9564981D02*
X-314702530Y9572526D01*
X-192122976Y-24987498D02*
X-191200785Y-24803868D01*
X-79996410Y8613919D02*
X-79933181Y8536933D01*
X-100394700Y-95894662D02*
X-100490329Y-95955256D01*
X-171834262Y-123556205D02*
X-174133798Y-125051594D01*
X-52129451Y-59444127D02*
X-52161824Y-59564771D01*
X-163944091Y-118782785D02*
X-166733064Y-120410460D01*
X-316752849Y8613920D02*
X-316614721Y8763597D01*
X-295390908Y-81783080D02*
X-295441410Y-81676561D01*
X-295686010Y-81279531D02*
X-295756761Y-81187946D01*
X-52199889Y-59683322D02*
X-52243460Y-59799588D01*
X-80209401Y8835842D02*
X-80134545Y8763596D01*
X-52537481Y-60340000D02*
X-52610229Y-60438567D01*
X-79601893Y7978716D02*
X-79601893Y7978716D01*
X-315697048Y9368207D02*
X-315469514Y9447910D01*
X-100586859Y-96010799D02*
X-100683895Y-96061285D01*
X-128692787Y-125976D02*
X-124396219Y1176566D01*
X-207376619Y-24378233D02*
X-206466533Y-24600414D01*
X-343100850Y-61242349D02*
X-343209880Y-61194011D01*
X-52469135Y-60238008D02*
X-52537481Y-60340000D01*
X-184016423Y-132224680D02*
X-184016423Y-132224680D01*
X-53432713Y-61140156D02*
X-53539363Y-61194011D01*
X-82329874Y9569965D02*
X-82186625Y9574260D01*
X-82186625Y9574260D02*
X-82046751Y9572525D01*
X-344343887Y-60132780D02*
X-344402876Y-60024508D01*
X-99310050Y-94242831D02*
X-99337456Y-94383477D01*
X-295209631Y-83251570D02*
X-295190181Y-83117587D01*
X-99280640Y-93630743D02*
X-99275169Y-93791180D01*
X-344505804Y-59799588D02*
X-344549375Y-59683322D01*
X-295180096Y-82600845D02*
X-295193456Y-82476868D01*
X-344062062Y-60533519D02*
X-344211780Y-60340000D01*
X-198374653Y-137354639D02*
X-198374653Y-137354639D01*
X-196304500Y-137273855D02*
X-197041136Y-137322139D01*
X-296258927Y-95955249D02*
X-296448886Y-95829017D01*
X-276746569Y2383857D02*
X-272353052Y1176568D01*
X-252476551Y-108963953D02*
X-256159731Y-107448276D01*
X-296522363Y-80519027D02*
X-296617908Y-80463469D01*
X-52405376Y-60132780D02*
X-52469135Y-60238008D01*
X-206466533Y-24600414D02*
X-205548494Y-24803868D01*
X-100877905Y-96147068D02*
X-101069193Y-96212559D01*
X-144272705Y-108963968D02*
X-144272705Y-108963968D01*
X-297439208Y-94242830D02*
X-297458988Y-94097228D01*
X-202042070Y-137087690D02*
X-202896422Y-136939596D01*
X-80288082Y8906062D02*
X-80209401Y8835842D01*
X-102717826Y6266015D02*
X-95129974Y7642776D01*
X-295190181Y-83117587D02*
X-295177711Y-82985440D01*
X-192048435Y-136507858D02*
X-192965542Y-136748021D01*
X-101358357Y-81783080D02*
X-101404182Y-81892339D01*
X-82626393Y9542387D02*
X-82476471Y9559414D01*
X-79676418Y8139430D02*
X-79637117Y8058973D01*
X-314122898Y9542387D02*
X-314122898Y9542387D01*
X-99353884Y-93119852D02*
X-99319602Y-93295073D01*
X-344680939Y-59071529D02*
X-344688704Y-58944410D01*
X-194876361Y-25408465D02*
X-193964571Y-25290895D01*
X-295988705Y-80932918D02*
X-296071886Y-80854758D01*
X-296714780Y-80411966D02*
X-296812771Y-80364599D01*
X-212732777Y-132224680D02*
X-215239067Y-130251969D01*
X-295268306Y-82118751D02*
X-295304146Y-82004257D01*
X-101063254Y-81279531D02*
X-101193654Y-81472072D01*
X-210652982Y-133760604D02*
X-211690567Y-133037359D01*
X-99943929Y-95516132D02*
X-100029115Y-95601895D01*
X-222615436Y-125051589D02*
X-227384004Y-122005373D01*
X-297335693Y-94649876D02*
X-297377165Y-94519159D01*
X-88916471Y8646281D02*
X-82626393Y9542387D01*
X-100490329Y-95955256D02*
X-100586859Y-96010799D01*
X-99862017Y-95425353D02*
X-99943929Y-95516132D01*
X-53648392Y-61242349D02*
X-53648392Y-61242349D01*
X-201223812Y-137197407D02*
X-202042070Y-137087690D01*
X-52102954Y-59321578D02*
X-52129451Y-59444127D01*
X-53128868Y-60947390D02*
X-53227281Y-61016655D01*
X-81777224Y9551848D02*
X-81647622Y9533353D01*
X-295871352Y-96147063D02*
X-296065361Y-96061279D01*
X-263594695Y-104709644D02*
X-267274722Y-103486058D01*
X-316292455Y9039538D02*
X-316108719Y9162241D01*
X-343521968Y-61016655D02*
X-343715684Y-60873368D01*
X-198374646Y-25625612D02*
X-198374646Y-25625612D01*
X-99837595Y-80321451D02*
X-100034485Y-80411966D01*
X-195777071Y-25501820D02*
X-194876361Y-25408465D01*
X-189149782Y-135444783D02*
X-190137407Y-135861345D01*
X-100918330Y-81099594D02*
X-101063254Y-81279531D01*
X-52065037Y-58686931D02*
X-52059397Y-58816147D01*
X-295236271Y-83387308D02*
X-295209631Y-83251570D01*
X-101480960Y-82118751D02*
X-101511495Y-82235739D01*
X-206611827Y-135861345D02*
X-207599444Y-135444783D01*
X-297174223Y-95012168D02*
X-297233827Y-94896386D01*
X-297233827Y-94896386D02*
X-297287782Y-94775620D01*
X-161004661Y-117133696D02*
X-163944091Y-118782785D01*
X-79818524Y8379779D02*
X-79767146Y8300055D01*
X-200972222Y-25501820D02*
X-200086401Y-25569862D01*
X-344688704Y-58944410D02*
X-344689858Y-58816147D01*
X-115841303Y-99555881D02*
X-122368789Y-101328778D01*
X-79767146Y8300055D02*
X-79719769Y8219865D01*
X-297470747Y-93946676D02*
X-297474089Y-93791179D01*
X-101569171Y-82600845D02*
X-101576388Y-82726987D01*
X-296448886Y-95829017D02*
X-296632074Y-95682628D01*
X-99337456Y-94383477D02*
X-99372093Y-94519162D01*
X-296428356Y-80578557D02*
X-296522363Y-80519027D01*
X-314972054Y9551850D02*
X-314839004Y9564981D01*
X-296965479Y-95329555D02*
X-297039654Y-95228758D01*
X-296812771Y-80364599D02*
X-296911671Y-80321451D01*
X-79073094Y6701987D02*
X-79073094Y6701987D01*
X-344671593Y-58556952D02*
X-344651806Y-58426400D01*
X-230199959Y-15315043D02*
X-212456913Y-22713381D01*
X-210021082Y-23610313D02*
X-209157700Y-23882085D01*
X-52251892Y-57902269D02*
X-52201613Y-58033210D01*
X-136871520Y-106030294D02*
X-140589527Y-107448291D01*
X-296336095Y-80641977D02*
X-296428356Y-80578557D01*
X-115575171Y3496167D02*
X-111176559Y4513780D01*
X-101445119Y-82004257D02*
X-101480960Y-82118751D01*
X-52059397Y-58816147D02*
X-52060553Y-58944410D01*
X-295756761Y-81187946D02*
X-295830933Y-81099594D01*
X-79873877Y8458812D02*
X-79818524Y8379779D01*
X-316108719Y9162241D02*
X-315910183Y9272391D01*
X-99709602Y-95228763D02*
X-99783777Y-95329561D01*
X-294031449Y6266016D02*
X-285572714Y4513782D01*
X-81279762Y9447908D02*
X-81164208Y9410182D01*
X-211674496Y-23024863D02*
X-210861283Y-23324206D01*
X-81910275Y9564980D02*
X-81777224Y9551848D01*
X-297411801Y-94383475D02*
X-297439208Y-94242830D01*
X-295304146Y-82004257D02*
X-295345084Y-81892339D01*
X-169365236Y-122005380D02*
X-171834262Y-123556205D01*
X-209623168Y-134399518D02*
X-210652982Y-133760604D01*
X-344211780Y-60340000D02*
X-344343887Y-60132780D01*
X-296887238Y-95425346D02*
X-296965479Y-95329555D01*
X-144272705Y-108963968D02*
X-147869256Y-110550015D01*
X-80456818Y9039537D02*
X-80370562Y8974035D01*
X-295680065Y-96212557D02*
X-295871352Y-96147063D01*
X-101069193Y-96212559D02*
X-101254595Y-96257715D01*
X-218550205Y-127830697D02*
X-222615436Y-125051589D01*
X-316875374Y8458812D02*
X-316752849Y8613920D01*
X-296911671Y-80321451D02*
X-343100850Y-61242349D01*
X-344624671Y-58295466D02*
X-344590003Y-58164339D01*
X-101511495Y-82235739D02*
X-101536515Y-82355138D01*
X-205548494Y-24803868D02*
X-204626307Y-24987498D01*
X-81521494Y9509716D02*
X-81398866Y9481160D01*
X-52292354Y-59913380D02*
X-52346388Y-60024508D01*
X-100300369Y-95829024D02*
X-100394700Y-95894662D01*
X-52060553Y-58944410D02*
X-52068320Y-59071529D01*
X-248880000Y-110550000D02*
X-252476551Y-108963953D01*
X-184537910Y-132642518D02*
X-185058635Y-133037359D01*
X-297429657Y-93295073D02*
X-297395375Y-93119852D01*
X-295172014Y-82855213D02*
X-295172878Y-82726987D01*
X-154699807Y-113816639D02*
X-157921118Y-115474533D01*
X-52853050Y-60711816D02*
X-52941568Y-60794780D01*
X-344689858Y-58816147D02*
X-344684215Y-58686931D01*
X-132829473Y-1524050D02*
X-128692787Y-125976D01*
X-295172878Y-82726987D02*
X-295180096Y-82600845D01*
X-297453939Y-93465372D02*
X-297429657Y-93295073D01*
X-52687197Y-60533519D02*
X-52768198Y-60624665D01*
X-79601893Y7978716D02*
X-79073094Y6701987D01*
X-99515430Y-94896390D02*
X-99575033Y-95012172D01*
X-343316533Y-61140156D02*
X-343420623Y-61080974D01*
X-52201613Y-58033210D02*
X-52159234Y-58164339D01*
X-296617908Y-80463469D02*
X-296714780Y-80411966D01*
X-81398866Y9481160D02*
X-81279762Y9447908D01*
X-316461189Y8906063D02*
X-316292455Y9039538D01*
X-295345084Y-81892339D02*
X-295390908Y-81783080D01*
X-317147313Y7978716D02*
X-317147313Y7978716D01*
X-227384004Y-122005373D02*
X-232805155Y-118782774D01*
X-295618891Y-81374267D02*
X-295686010Y-81279531D01*
X-100029115Y-95601895D02*
X-100117181Y-95682635D01*
X-296071886Y-80854758D02*
X-296157651Y-80780160D01*
X-204626307Y-24987498D02*
X-203703780Y-25150206D01*
X-343896206Y-60711816D02*
X-344062062Y-60533519D01*
X-52159234Y-58164339D02*
X-52124571Y-58295466D01*
X-99353884Y-93119852D02*
X-99353884Y-93119852D01*
X-79637117Y8058973D02*
X-79601893Y7978716D01*
X-188144945Y-134959209D02*
X-189149782Y-135444783D01*
X-207599444Y-135444783D02*
X-208604273Y-134959209D01*
X-259877739Y-106030278D02*
X-263594695Y-104709644D01*
X-315227782Y9509717D02*
X-315101655Y9533354D01*
X-343100850Y-61242349D02*
X-343100850Y-61242349D01*
X-203703780Y-25150206D02*
X-202784719Y-25290895D01*
X-315910183Y9272391D02*
X-315697048Y9368207D01*
X-316614721Y8763597D02*
X-316461189Y8906063D01*
X-100413169Y-80641977D02*
X-100591613Y-80780160D01*
X-181510157Y-130251970D02*
X-184016446Y-132224680D01*
X-129474538Y-103486073D02*
X-136871520Y-106030294D01*
X-52251892Y-57902269D02*
X-52251892Y-57902269D01*
X-184292347Y-22713381D02*
X-184292347Y-22713381D01*
X-199219273Y-25611491D02*
X-198374646Y-25625612D01*
X-204700818Y-136507858D02*
X-205644570Y-136214001D01*
X-80370562Y8974035D02*
X-80288082Y8906062D01*
X-166733064Y-120410460D02*
X-169365236Y-122005380D01*
X-297287782Y-94775620D02*
X-297335693Y-94649876D01*
X-203783720Y-136748021D02*
X-204700818Y-136507858D01*
X-212456913Y-22713381D02*
X-212456913Y-22713381D01*
X-297474089Y-93791179D02*
X-297468618Y-93630742D01*
X-314272816Y9559415D02*
X-314122898Y9542387D01*
X-52097439Y-58426400D02*
X-52077656Y-58556952D01*
X-193964571Y-25290895D02*
X-193045507Y-25150206D01*
X-80943848Y9322200D02*
X-80839092Y9272389D01*
X-252476551Y-108963953D02*
X-252476551Y-108963953D01*
X-80546825Y9102346D02*
X-80456818Y9039537D01*
X-344666746Y-59197315D02*
X-344680939Y-59071529D01*
X-101555810Y-82476868D02*
X-101569171Y-82600845D01*
X-79073094Y6701987D02*
X-52251892Y-57902269D01*
X-111176559Y4513780D02*
X-102717826Y6266015D01*
X-99275169Y-93791180D02*
X-99278511Y-93946677D01*
X-296157651Y-80780160D02*
X-296245790Y-80709206D01*
X-232805155Y-118782774D02*
X-238828133Y-115474520D01*
X-344456910Y-59913380D02*
X-344505804Y-59799588D01*
X-124396219Y1176566D02*
X-120002702Y2383855D01*
X-295494664Y-96257715D02*
X-295680065Y-96212557D01*
X-297377165Y-94519159D02*
X-297411801Y-94383475D01*
X-184016446Y-132224680D02*
X-184016423Y-132224680D01*
X-79933181Y8536933D02*
X-79873877Y8458812D01*
X-344651806Y-58426400D02*
X-344624671Y-58295466D01*
X-317676167Y6701987D02*
X-317147313Y7978716D01*
X-343715684Y-60873368D02*
X-343896206Y-60711816D01*
X-191200785Y-24803868D02*
X-190282742Y-24600414D01*
X-296245790Y-80709206D02*
X-296336095Y-80641977D01*
X-274380471Y-101328764D02*
X-280907956Y-99555868D01*
X-344402876Y-60024508D02*
X-344456910Y-59913380D01*
X-343420623Y-61080974D02*
X-343521968Y-61016655D01*
X-99461476Y-94775624D02*
X-99515430Y-94896390D01*
X-285572714Y4513782D02*
X-276746569Y2383857D01*
X-140589527Y-107448291D02*
X-144272705Y-108963968D01*
X-314562657Y9574261D02*
X-314419411Y9569965D01*
X-82476471Y9559414D02*
X-82329874Y9569965D01*
X-344497334Y-57902269D02*
X-317676167Y6701987D01*
X-315469514Y9447910D02*
X-315350410Y9481162D01*
X-53328624Y-61080974D02*
X-53432713Y-61140156D01*
X-100207731Y-95758347D02*
X-100300369Y-95829024D01*
X-314419411Y9569965D02*
X-314272816Y9559415D01*
X-185058635Y-133037359D02*
X-186096225Y-133760604D01*
X-314122898Y9542387D02*
X-307832810Y8646282D01*
X-53539363Y-61194011D02*
X-53648392Y-61242349D01*
X-343209880Y-61194011D02*
X-343316533Y-61140156D01*
X-110179111Y-98164854D02*
X-115841303Y-99555881D01*
X-136743344Y-3017931D02*
X-136743344Y-3017931D01*
X-344646308Y-59321578D02*
X-344666746Y-59197315D01*
X-101404182Y-81892339D02*
X-101445119Y-82004257D01*
X-101571555Y-82985440D02*
X-101559086Y-83117587D01*
X-307832810Y8646282D02*
X-301619304Y7642777D01*
X-296911671Y-80321451D02*
X-296911671Y-80321451D01*
X-301619304Y7642777D02*
X-294031449Y6266016D01*
X-166549317Y-15315043D02*
X-136743344Y-3017931D01*
X-101576388Y-82726987D02*
X-101577253Y-82855213D01*
X-193045507Y-25150206D02*
X-192122976Y-24987498D01*
X-270881940Y-102359203D02*
X-274380471Y-101328764D01*
X-99278511Y-93946677D02*
X-99290270Y-94097229D01*
X-344684215Y-58686931D02*
X-344671593Y-58556952D01*
X-80063540Y8689548D02*
X-79996410Y8613919D01*
X-101307855Y-81676561D02*
X-101358357Y-81783080D01*
X-187591565Y-23882085D02*
X-186728180Y-23610313D01*
X-188474324Y-24138424D02*
X-187591565Y-23882085D01*
X-198374646Y-25625612D02*
X-197530020Y-25611491D01*
X-100034485Y-80411966D02*
X-100226901Y-80519027D01*
X-260005925Y-3017931D02*
X-244642366Y-9326685D01*
X-297039654Y-95228758D02*
X-297109367Y-95122960D01*
X-184016423Y-132224680D02*
X-184537910Y-132642518D01*
X-268056483Y-125975D02*
X-263919796Y-1524049D01*
X-193852850Y-136939596D02*
X-194707210Y-137087690D01*
X-344549375Y-59683322D02*
X-344587439Y-59564771D01*
X-95129974Y7642776D02*
X-88916471Y8646281D01*
X-120002702Y2383855D02*
X-115575171Y3496167D01*
X-297468618Y-93630742D02*
X-297453939Y-93465372D01*
X-272353052Y1176568D02*
X-268056483Y-125975D01*
X-100683895Y-96061285D02*
X-100877905Y-96147068D01*
X-99319602Y-93295073D02*
X-99295319Y-93465372D01*
X-209157700Y-23882085D02*
X-208274943Y-24138424D01*
X-295441410Y-81676561D02*
X-295496381Y-81572864D01*
X-194707210Y-137087690D02*
X-195525476Y-137197407D01*
X-295494664Y-96257715D02*
X-295494664Y-96257715D01*
X-52610229Y-60438567D02*
X-52687197Y-60533519D01*
X-99783777Y-95329561D02*
X-99862017Y-95425353D01*
X-344497334Y-57902269D02*
X-344497334Y-57902269D01*
X-297109367Y-95122960D02*
X-297174223Y-95012168D01*
X-296065361Y-96061279D02*
X-296258927Y-95955249D01*
X-186096225Y-133760604D02*
X-187126044Y-134399518D01*
X-297395375Y-93119852D02*
X-295236271Y-83387308D01*
X-52068320Y-59071529D02*
X-52082515Y-59197315D01*
X-295177711Y-82985440D02*
X-295172014Y-82855213D01*
X-52243460Y-59799588D02*
X-52292354Y-59913380D01*
X-267274722Y-103486058D02*
X-270881940Y-102359203D01*
X-186728180Y-23610313D02*
X-185887978Y-23324206D01*
X-295830933Y-81099594D02*
X-295908318Y-81014557D01*
X-295496381Y-81572864D02*
X-295555611Y-81472072D01*
X-198374653Y-137354639D02*
X-199708164Y-137322139D01*
X-297458988Y-94097228D02*
X-297470747Y-93946676D01*
X-295237771Y-82235739D02*
X-295268306Y-82118751D01*
X-101254595Y-96257715D02*
X-101254595Y-96257715D01*
X-295193456Y-82476868D02*
X-295212751Y-82355138D01*
X-100117181Y-95682635D02*
X-100207731Y-95758347D01*
X-344547619Y-58033210D02*
X-344497334Y-57902269D01*
X-190137407Y-135861345D02*
X-191104674Y-136214001D01*
X-317072806Y8139430D02*
X-316982093Y8300056D01*
X-191104674Y-136214001D02*
X-192048435Y-136507858D01*
X-208274943Y-24138424D02*
X-207376619Y-24378233D01*
X-82626393Y9542387D02*
X-82626393Y9542387D01*
X-52941568Y-60794780D02*
X-53033569Y-60873368D01*
X-100760558Y-80932918D02*
X-100918330Y-81099594D01*
X-187126044Y-134399518D02*
X-188144945Y-134959209D01*
X-99575033Y-95012172D02*
X-99639889Y-95122965D01*
M02*
