M48
; DRILL file {KiCad (6.0.0)} date Tue Mar 22 19:27:30 2022
; FORMAT={-:-/ absolute / inch / decimal}
; #@! TF.CreationDate,2022-03-22T19:27:30+01:00
; #@! TF.GenerationSoftware,Kicad,Pcbnew,(6.0.0)
; #@! TF.FileFunction,Plated,1,2,PTH
FMAT,2
INCH
; #@! TA.AperFunction,Plated,PTH,ViaDrill
T1C0.0157
; #@! TA.AperFunction,Plated,PTH,ComponentDrill
T2C0.0236
; #@! TA.AperFunction,Plated,PTH,ComponentDrill
T3C0.0591
%
G90
G05
T1
X-8.3563Y-2.5098
X-8.0315Y-2.5886
X-7.8445Y-1.8504
X-7.7067Y-2.0866
X-7.6181Y-1.9291
X-7.6083Y-2.7953
X-7.5591Y-2.3228
T3
X-13.1251Y-1.9458
X-12.9324Y-2.1339
X-12.8388Y-1.2547
X-12.6461Y-1.4428
X-12.5526Y-0.5636
X-12.434Y-2.2321
X-12.3599Y-0.7517
X-12.2663Y0.1275
X-12.2413Y-2.4201
X-12.1477Y-1.541
X-12.0736Y-0.0606
X-11.955Y-1.729
X-11.8615Y-0.8499
X-11.6713Y-2.3456
X-11.6688Y-1.038
X-11.5752Y-0.1588
X-11.4786Y-2.5336
X-11.3851Y-1.6545
X-11.3825Y-0.3469
X-11.3375Y-3.2602
X-11.1924Y-1.8425
X-11.1151Y-3.4119
X-11.0988Y-0.9634
X-10.9087Y-2.4591
X-10.9061Y-1.1514
X-10.8126Y-0.2723
X-10.716Y-2.6471
X-10.6224Y-1.768
X-10.6199Y-0.4604
X-10.565Y-3.4581
X-10.4297Y-1.956
X-10.3567Y-3.6287
X-10.3362Y-1.0769
X-10.2176Y-2.7453
X-10.1435Y-1.2649
X-10.0499Y-0.3858
X-10.0249Y-2.9334
X-9.9313Y-2.0542
X-9.8572Y-0.5738
X-9.8128Y-3.7227
X-9.7386Y-2.2423
X-9.6451Y-1.3631
X-9.6201Y-3.9107
X-9.5265Y-3.0316
X-9.4524Y-1.5512
X-9.3588Y-0.672
X-9.3338Y-3.2196
X-9.2402Y-2.3405
X-9.2263Y-4.1036
X-9.1661Y-0.8601
X-9.0475Y-2.5285
X-9.0222Y-3.928
X-8.954Y-1.6494
X-8.7613Y-1.8375
X-8.6677Y-0.9583
X-8.6036Y-3.0136
X-8.475Y-1.1464
X-8.4109Y-3.2017
X-8.3632Y-4.489
X-8.2258Y-4.7205
X-7.4155Y-4.6108
X-7.2013Y-3.0902
X-7.1563Y-4.5379
X-7.1371Y-1.0348
X-6.9321Y-3.0869
X-6.8679Y-1.0316
X-6.8509Y-1.7259
X-6.5816Y-1.7226
X-6.5646Y-2.417
X-6.4861Y-3.9262
X-6.4593Y-4.1941
X-6.446Y-0.7486
X-6.2954Y-2.4137
X-6.2784Y-3.1081
X-6.1768Y-0.7453
X-6.1598Y-1.4397
X-6.0091Y-3.1048
X-5.9921Y-3.7992
X-5.8905Y-1.4364
X-5.8735Y-2.1308
X-5.755Y-0.4623
X-5.7229Y-3.7959
X-5.6043Y-2.1275
X-5.5873Y-2.8219
X-5.4857Y-0.459
X-5.4687Y-1.1534
X-5.318Y-2.8186
X-5.2458Y-3.5183
X-5.1995Y-1.1501
X-5.1824Y-1.8445
X-4.9923Y-0.3488
X-4.9773Y-3.5385
X-4.9132Y-1.8412
X-4.8962Y-2.5356
X-4.7231Y-0.3455
X-4.706Y-1.0399
X-4.6269Y-2.5323
X-4.4778Y-3.3035
X-4.4368Y-1.0366
X-4.4198Y-1.731
X-4.2296Y-0.2353
X-4.2121Y-3.347
X-4.1505Y-1.7277
X-4.1335Y-2.4221
X-3.9604Y-0.2321
X-3.9434Y-0.9264
X-3.8643Y-2.4188
X-3.6741Y-0.9232
X-3.6571Y-1.6175
X-3.5385Y0.0509
X-3.3879Y-1.6142
X-3.3709Y-2.3086
X-3.2693Y0.0542
X-3.2523Y-0.6402
X-3.1016Y-2.3053
X-2.9831Y-0.6369
X-2.966Y-1.3313
X-2.6968Y-1.328
X-2.6798Y-2.0224
X-2.4105Y-2.0191
T2
G00X-7.9801Y-1.1309
M15
G01X-7.9801Y-1.1073
M16
G05
G00X-7.9801Y-1.3053
M15
G01X-7.9801Y-1.262
M16
G05
G00X-7.64Y-1.1309
M15
G01X-7.64Y-1.1073
M16
G05
G00X-7.64Y-1.3053
M15
G01X-7.64Y-1.262
M16
G05
T0
M30
