M48
; DRILL file {KiCad (6.0.0)} date Tue Mar 22 19:27:30 2022
; FORMAT={-:-/ absolute / inch / decimal}
; #@! TF.CreationDate,2022-03-22T19:27:30+01:00
; #@! TF.GenerationSoftware,Kicad,Pcbnew,(6.0.0)
; #@! TF.FileFunction,NonPlated,1,2,NPTH
FMAT,2
INCH
; #@! TA.AperFunction,NonPlated,NPTH,ComponentDrill
T1C0.0256
; #@! TA.AperFunction,NonPlated,NPTH,ComponentDrill
T2C0.0669
; #@! TA.AperFunction,NonPlated,NPTH,ComponentDrill
T3C0.1575
; #@! TA.AperFunction,NonPlated,NPTH,ComponentDrill
T4C0.1732
%
G90
G05
T1
X-7.9238Y-1.264
X-7.6963Y-1.264
T2
X-13.294Y-2.0923
X-13.0077Y-1.4012
X-12.9245Y-2.2454
X-12.7215Y-0.7101
X-12.6382Y-1.5543
X-12.6029Y-2.3786
X-12.4352Y-0.0191
X-12.3519Y-0.8632
X-12.3167Y-1.6875
X-12.2334Y-2.5317
X-12.0657Y-0.1721
X-12.0304Y-0.9964
X-11.9471Y-1.8406
X-11.8403Y-2.4921
X-11.7441Y-0.3053
X-11.6608Y-1.1495
X-11.554Y-1.801
X-11.4785Y-3.4338
X-11.4707Y-2.6451
X-11.3746Y-0.4584
X-11.2677Y-1.1099
X-11.1845Y-1.9541
X-11.0879Y-3.5204
X-11.0776Y-2.6056
X-10.9815Y-0.4188
X-10.8982Y-1.263
X-10.7913Y-1.9145
X-10.7206Y-3.6188
X-10.7081Y-2.7586
X-10.6119Y-0.5719
X-10.5051Y-1.2234
X-10.4218Y-2.0675
X-10.3865Y-2.8918
X-10.3391Y-3.7391
X-10.2188Y-0.5323
X-10.1355Y-1.3765
X-10.1003Y-2.2007
X-10.017Y-3.0449
X-9.9817Y-3.8692
X-9.8493Y-0.6854
X-9.814Y-1.5096
X-9.7307Y-2.3538
X-9.6954Y-3.1781
X-9.6121Y-4.0222
X-9.5277Y-0.8185
X-9.4444Y-1.6627
X-9.4092Y-2.487
X-9.3259Y-3.3312
X-9.1582Y-0.9716
X-9.1229Y-1.7959
X-9.0951Y-4.2847
X-9.0396Y-2.6401
X-8.9104Y-3.9299
X-8.8366Y-1.1048
X-8.7725Y-3.1601
X-8.7534Y-1.949
X-8.5643Y-4.5868
X-8.4671Y-1.2579
X-8.4029Y-3.3132
X-8.247Y-4.8303
X-7.3731Y-4.8303
X-7.2172Y-3.3132
X-7.153Y-1.2579
X-7.0558Y-4.5868
X-6.8667Y-1.949
X-6.8476Y-3.1601
X-6.7834Y-1.1048
X-6.7097Y-3.9299
X-6.5805Y-2.6401
X-6.525Y-4.2847
X-6.4972Y-1.7959
X-6.4619Y-0.9716
X-6.2942Y-3.3312
X-6.2109Y-2.487
X-6.1756Y-1.6627
X-6.0923Y-0.8185
X-6.0079Y-4.0222
X-5.9247Y-3.1781
X-5.8894Y-2.3538
X-5.8061Y-1.5096
X-5.7708Y-0.6854
X-5.6384Y-3.8692
X-5.6031Y-3.0449
X-5.5198Y-2.2007
X-5.4845Y-1.3765
X-5.4013Y-0.5323
X-5.281Y-3.7391
X-5.2336Y-2.8918
X-5.1983Y-2.0675
X-5.115Y-1.2234
X-5.0081Y-0.5719
X-4.912Y-2.7586
X-4.8995Y-3.6188
X-4.8287Y-1.9145
X-4.7219Y-1.263
X-4.6386Y-0.4188
X-4.5425Y-2.6056
X-4.5321Y-3.5204
X-4.4356Y-1.9541
X-4.3523Y-1.1099
X-4.2455Y-0.4584
X-4.1494Y-2.6451
X-4.1416Y-3.4338
X-4.0661Y-1.801
X-3.9592Y-1.1495
X-3.8759Y-0.3053
X-3.7798Y-2.4921
X-3.673Y-1.8406
X-3.5897Y-0.9964
X-3.5544Y-0.1721
X-3.3867Y-2.5317
X-3.3034Y-1.6875
X-3.2681Y-0.8632
X-3.1848Y-0.0191
X-3.0172Y-2.3786
X-2.9819Y-1.5543
X-2.8986Y-0.7101
X-2.6956Y-2.2454
X-2.6123Y-1.4012
X-2.3261Y-2.0923
T3
X-13.1092Y-2.1689
X-12.823Y-1.4778
X-12.5367Y-0.7867
X-12.4181Y-2.4551
X-12.2505Y-0.0956
X-12.1319Y-1.764
X-11.8456Y-1.0729
X-11.6555Y-2.5686
X-11.5594Y-0.3819
X-11.3692Y-1.8775
X-11.2832Y-3.4771
X-11.083Y-1.1864
X-10.8928Y-2.6821
X-10.7967Y-0.4953
X-10.6066Y-1.991
X-10.5298Y-3.679
X-10.3203Y-1.2999
X-10.2017Y-2.9684
X-10.0341Y-0.6088
X-9.9155Y-2.2773
X-9.7969Y-3.9457
X-9.6292Y-1.5862
X-9.5106Y-3.2546
X-9.343Y-0.8951
X-9.2244Y-2.5635
X-9.0028Y-4.1073
X-8.9381Y-1.8724
X-8.6519Y-1.1813
X-8.5877Y-3.2367
X-8.4056Y-4.7086
X-7.2144Y-4.7086
X-7.0324Y-3.2367
X-6.9682Y-1.1813
X-6.6819Y-1.8724
X-6.6173Y-4.1073
X-6.3957Y-2.5635
X-6.2771Y-0.8951
X-6.1094Y-3.2546
X-5.9909Y-1.5862
X-5.8232Y-3.9457
X-5.7046Y-2.2773
X-5.586Y-0.6088
X-5.4183Y-2.9684
X-5.2998Y-1.2999
X-5.0903Y-3.679
X-5.0135Y-1.991
X-4.8234Y-0.4953
X-4.7272Y-2.6821
X-4.5371Y-1.1864
X-4.3369Y-3.4771
X-4.2509Y-1.8775
X-4.0607Y-0.3819
X-3.9646Y-2.5686
X-3.7745Y-1.0729
X-3.4882Y-1.764
X-3.3696Y-0.0956
X-3.2019Y-2.4551
X-3.0834Y-0.7867
X-2.7971Y-1.4778
X-2.5108Y-2.1689
T4
X-12.6205Y-1.9664
X-12.048Y-0.5843
X-8.7451Y-2.3573
X-7.81Y-4.3947
X-6.875Y-2.3573
X-3.572Y-0.5843
X-2.9995Y-1.9665
T0
M30
