%TF.GenerationSoftware,KiCad,Pcbnew,(6.0.0)*%
%TF.CreationDate,2022-03-22T19:27:30+01:00*%
%TF.ProjectId,main,6d61696e-2e6b-4696-9361-645f70636258,rev?*%
%TF.SameCoordinates,Original*%
%TF.FileFunction,Legend,Top*%
%TF.FilePolarity,Positive*%
%FSLAX46Y46*%
G04 Gerber Fmt 4.6, Leading zero omitted, Abs format (unit mm)*
G04 Created by KiCad (PCBNEW (6.0.0)) date 2022-03-22 19:27:30*
%MOMM*%
%LPD*%
G01*
G04 APERTURE LIST*
%ADD10C,0.300000*%
%ADD11C,0.150000*%
%ADD12C,0.120000*%
G04 APERTURE END LIST*
D10*
X-197428571Y-82178571D02*
X-197928571Y-81464285D01*
X-198285714Y-82178571D02*
X-198285714Y-80678571D01*
X-197714285Y-80678571D01*
X-197571428Y-80750000D01*
X-197500000Y-80821428D01*
X-197428571Y-80964285D01*
X-197428571Y-81178571D01*
X-197500000Y-81321428D01*
X-197571428Y-81392857D01*
X-197714285Y-81464285D01*
X-198285714Y-81464285D01*
X-196785714Y-81392857D02*
X-196285714Y-81392857D01*
X-196071428Y-82178571D02*
X-196785714Y-82178571D01*
X-196785714Y-80678571D01*
X-196071428Y-80678571D01*
X-195500000Y-82107142D02*
X-195285714Y-82178571D01*
X-194928571Y-82178571D01*
X-194785714Y-82107142D01*
X-194714285Y-82035714D01*
X-194642857Y-81892857D01*
X-194642857Y-81750000D01*
X-194714285Y-81607142D01*
X-194785714Y-81535714D01*
X-194928571Y-81464285D01*
X-195214285Y-81392857D01*
X-195357142Y-81321428D01*
X-195428571Y-81250000D01*
X-195500000Y-81107142D01*
X-195500000Y-80964285D01*
X-195428571Y-80821428D01*
X-195357142Y-80750000D01*
X-195214285Y-80678571D01*
X-194857142Y-80678571D01*
X-194642857Y-80750000D01*
X-194000000Y-81392857D02*
X-193500000Y-81392857D01*
X-193285714Y-82178571D02*
X-194000000Y-82178571D01*
X-194000000Y-80678571D01*
X-193285714Y-80678571D01*
X-192857142Y-80678571D02*
X-192000000Y-80678571D01*
X-192428571Y-82178571D02*
X-192428571Y-80678571D01*
X-211535714Y-71892857D02*
X-211321428Y-71964285D01*
X-211250000Y-72035714D01*
X-211178571Y-72178571D01*
X-211178571Y-72392857D01*
X-211250000Y-72535714D01*
X-211321428Y-72607142D01*
X-211464285Y-72678571D01*
X-212035714Y-72678571D01*
X-212035714Y-71178571D01*
X-211535714Y-71178571D01*
X-211392857Y-71250000D01*
X-211321428Y-71321428D01*
X-211250000Y-71464285D01*
X-211250000Y-71607142D01*
X-211321428Y-71750000D01*
X-211392857Y-71821428D01*
X-211535714Y-71892857D01*
X-212035714Y-71892857D01*
X-210250000Y-71178571D02*
X-209964285Y-71178571D01*
X-209821428Y-71250000D01*
X-209678571Y-71392857D01*
X-209607142Y-71678571D01*
X-209607142Y-72178571D01*
X-209678571Y-72464285D01*
X-209821428Y-72607142D01*
X-209964285Y-72678571D01*
X-210250000Y-72678571D01*
X-210392857Y-72607142D01*
X-210535714Y-72464285D01*
X-210607142Y-72178571D01*
X-210607142Y-71678571D01*
X-210535714Y-71392857D01*
X-210392857Y-71250000D01*
X-210250000Y-71178571D01*
X-208678571Y-71178571D02*
X-208392857Y-71178571D01*
X-208250000Y-71250000D01*
X-208107142Y-71392857D01*
X-208035714Y-71678571D01*
X-208035714Y-72178571D01*
X-208107142Y-72464285D01*
X-208250000Y-72607142D01*
X-208392857Y-72678571D01*
X-208678571Y-72678571D01*
X-208821428Y-72607142D01*
X-208964285Y-72464285D01*
X-209035714Y-72178571D01*
X-209035714Y-71678571D01*
X-208964285Y-71392857D01*
X-208821428Y-71250000D01*
X-208678571Y-71178571D01*
X-207607142Y-71178571D02*
X-206750000Y-71178571D01*
X-207178571Y-72678571D02*
X-207178571Y-71178571D01*
D11*
%TO.C,D44*%
X-248908845Y-78732083D02*
X-249291529Y-79655963D01*
X-249511500Y-79564847D01*
X-249625260Y-79466184D01*
X-249676802Y-79341750D01*
X-249684350Y-79235538D01*
X-249655452Y-79041338D01*
X-249600783Y-78909355D01*
X-249483897Y-78751601D01*
X-249403457Y-78681836D01*
X-249279022Y-78630293D01*
X-249128816Y-78640968D01*
X-248908845Y-78732083D01*
X-250483795Y-78801312D02*
X-250228673Y-78185392D01*
X-250409608Y-79244381D02*
X-249916291Y-78675582D01*
X-250488217Y-78438683D01*
X-251363681Y-78436852D02*
X-251108558Y-77820932D01*
X-251289493Y-78879921D02*
X-250796177Y-78311122D01*
X-251368102Y-78074223D01*
%TO.C,D48*%
X-322759183Y-58424999D02*
X-323141867Y-59348879D01*
X-323361838Y-59257763D01*
X-323475598Y-59159100D01*
X-323527140Y-59034666D01*
X-323534688Y-58928454D01*
X-323505790Y-58734254D01*
X-323451121Y-58602271D01*
X-323334235Y-58444517D01*
X-323253795Y-58374752D01*
X-323129360Y-58323209D01*
X-322979154Y-58333884D01*
X-322759183Y-58424999D01*
X-324334133Y-58494228D02*
X-324079011Y-57878308D01*
X-324259946Y-58937297D02*
X-323766629Y-58368498D01*
X-324338555Y-58131599D01*
X-324913607Y-58151117D02*
X-324843841Y-58231558D01*
X-324818070Y-58293775D01*
X-324810522Y-58399986D01*
X-324828745Y-58443981D01*
X-324909185Y-58513746D01*
X-324971403Y-58539517D01*
X-325077614Y-58547066D01*
X-325253591Y-58474174D01*
X-325323357Y-58393733D01*
X-325349128Y-58331516D01*
X-325356676Y-58225304D01*
X-325338453Y-58181310D01*
X-325258013Y-58111545D01*
X-325195796Y-58085773D01*
X-325089584Y-58078225D01*
X-324913607Y-58151117D01*
X-324807395Y-58143569D01*
X-324745178Y-58117798D01*
X-324664738Y-58048032D01*
X-324591846Y-57872055D01*
X-324599394Y-57765844D01*
X-324625165Y-57703626D01*
X-324694931Y-57623186D01*
X-324870908Y-57550294D01*
X-324977119Y-57557842D01*
X-325039337Y-57583613D01*
X-325119777Y-57653379D01*
X-325192669Y-57829356D01*
X-325185121Y-57935568D01*
X-325159349Y-57997785D01*
X-325089584Y-58078225D01*
%TO.C,D4*%
X-152844952Y-15758109D02*
X-153227635Y-14834229D01*
X-153007664Y-14743114D01*
X-152857458Y-14732439D01*
X-152733024Y-14783982D01*
X-152652583Y-14853747D01*
X-152535697Y-15011501D01*
X-152481028Y-15143484D01*
X-152452130Y-15337684D01*
X-152459678Y-15443896D01*
X-152511221Y-15568330D01*
X-152624981Y-15666994D01*
X-152844952Y-15758109D01*
X-151780246Y-14595499D02*
X-151525124Y-15211418D01*
X-152146002Y-14334660D02*
X-152092628Y-15085689D01*
X-151520702Y-14848789D01*
%TO.C,D38*%
X-92729026Y-62836356D02*
X-93111709Y-61912476D01*
X-92891738Y-61821361D01*
X-92741532Y-61810687D01*
X-92617097Y-61862229D01*
X-92536657Y-61931995D01*
X-92419771Y-62089749D01*
X-92365102Y-62221731D01*
X-92336204Y-62415931D01*
X-92343752Y-62522143D01*
X-92395294Y-62646578D01*
X-92509054Y-62745241D01*
X-92729026Y-62836356D01*
X-92275818Y-61566239D02*
X-91703893Y-61329340D01*
X-91866068Y-61808855D01*
X-91734085Y-61754186D01*
X-91627874Y-61761734D01*
X-91565657Y-61787505D01*
X-91485216Y-61857271D01*
X-91394101Y-62077242D01*
X-91401649Y-62183454D01*
X-91427421Y-62245671D01*
X-91497186Y-62326111D01*
X-91761152Y-62435450D01*
X-91867363Y-62427901D01*
X-91929581Y-62402130D01*
X-91011954Y-61506612D02*
X-91118166Y-61499064D01*
X-91180383Y-61473292D01*
X-91260823Y-61403527D01*
X-91279046Y-61359533D01*
X-91271498Y-61253321D01*
X-91245727Y-61191104D01*
X-91175961Y-61110664D01*
X-90999984Y-61037772D01*
X-90893773Y-61045320D01*
X-90831555Y-61071091D01*
X-90751115Y-61140856D01*
X-90732892Y-61184851D01*
X-90740440Y-61291062D01*
X-90766212Y-61353280D01*
X-90835977Y-61433720D01*
X-91011954Y-61506612D01*
X-91081720Y-61587052D01*
X-91107491Y-61649270D01*
X-91115039Y-61755481D01*
X-91042147Y-61931458D01*
X-90961707Y-62001224D01*
X-90899489Y-62026995D01*
X-90793278Y-62034543D01*
X-90617301Y-61961651D01*
X-90547535Y-61881211D01*
X-90521764Y-61818993D01*
X-90514216Y-61712782D01*
X-90587108Y-61536805D01*
X-90667548Y-61467039D01*
X-90729766Y-61441268D01*
X-90835977Y-61433720D01*
%TO.C,D6*%
X-168711526Y-39513343D02*
X-169094209Y-38589463D01*
X-168874238Y-38498348D01*
X-168724032Y-38487673D01*
X-168599598Y-38539216D01*
X-168519157Y-38608981D01*
X-168402271Y-38766735D01*
X-168347602Y-38898718D01*
X-168318704Y-39092918D01*
X-168326252Y-39199130D01*
X-168377795Y-39323564D01*
X-168491555Y-39422228D01*
X-168711526Y-39513343D01*
X-167774381Y-38042773D02*
X-167950358Y-38115665D01*
X-168020124Y-38196105D01*
X-168045895Y-38258322D01*
X-168079215Y-38426751D01*
X-168050317Y-38620951D01*
X-167904533Y-38972905D01*
X-167824092Y-39042671D01*
X-167761875Y-39068442D01*
X-167655664Y-39075990D01*
X-167479687Y-39003098D01*
X-167409921Y-38922658D01*
X-167384150Y-38860441D01*
X-167376602Y-38754229D01*
X-167467717Y-38534258D01*
X-167548157Y-38464492D01*
X-167610374Y-38438721D01*
X-167716586Y-38431173D01*
X-167892563Y-38504065D01*
X-167962328Y-38584505D01*
X-167988100Y-38646722D01*
X-167995648Y-38752934D01*
%TO.C,D22*%
X-271292041Y-33471119D02*
X-271674725Y-34394999D01*
X-271894696Y-34303883D01*
X-272008456Y-34205220D01*
X-272059998Y-34080786D01*
X-272067546Y-33974574D01*
X-272038648Y-33780374D01*
X-271983979Y-33648391D01*
X-271867093Y-33490637D01*
X-271786653Y-33420872D01*
X-271662218Y-33369329D01*
X-271512012Y-33380004D01*
X-271292041Y-33471119D01*
X-272518164Y-33942550D02*
X-272580381Y-33968321D01*
X-272686593Y-33975869D01*
X-272906564Y-33884754D01*
X-272976329Y-33804314D01*
X-273002101Y-33742096D01*
X-273009649Y-33635885D01*
X-272973203Y-33547896D01*
X-272874540Y-33434137D01*
X-272127932Y-33124882D01*
X-272699858Y-32887982D01*
X-273398049Y-33578089D02*
X-273460266Y-33603860D01*
X-273566478Y-33611409D01*
X-273786449Y-33520294D01*
X-273856215Y-33439853D01*
X-273881986Y-33377636D01*
X-273889534Y-33271424D01*
X-273853088Y-33183436D01*
X-273754425Y-33069676D01*
X-273007817Y-32760421D01*
X-273579743Y-32523522D01*
%TO.C,D39*%
X-112100483Y-65718915D02*
X-112483166Y-64795035D01*
X-112263195Y-64703920D01*
X-112112989Y-64693246D01*
X-111988554Y-64744788D01*
X-111908114Y-64814554D01*
X-111791228Y-64972308D01*
X-111736559Y-65104290D01*
X-111707661Y-65298490D01*
X-111715209Y-65404702D01*
X-111766751Y-65529137D01*
X-111880511Y-65627800D01*
X-112100483Y-65718915D01*
X-111647275Y-64448798D02*
X-111075350Y-64211899D01*
X-111237525Y-64691414D01*
X-111105542Y-64636745D01*
X-110999331Y-64644293D01*
X-110937114Y-64670064D01*
X-110856673Y-64739830D01*
X-110765558Y-64959801D01*
X-110773106Y-65066013D01*
X-110798878Y-65128230D01*
X-110868643Y-65208670D01*
X-111132609Y-65318009D01*
X-111238820Y-65310460D01*
X-111301038Y-65284689D01*
X-110252723Y-64953548D02*
X-110076746Y-64880656D01*
X-110006981Y-64800216D01*
X-109981210Y-64737998D01*
X-109947890Y-64569570D01*
X-109976788Y-64375370D01*
X-110122572Y-64023415D01*
X-110203012Y-63953650D01*
X-110265230Y-63927879D01*
X-110371441Y-63920331D01*
X-110547418Y-63993223D01*
X-110617184Y-64073663D01*
X-110642955Y-64135880D01*
X-110650503Y-64242092D01*
X-110559388Y-64462063D01*
X-110478948Y-64531829D01*
X-110416731Y-64557600D01*
X-110310519Y-64565148D01*
X-110134542Y-64492256D01*
X-110064777Y-64411816D01*
X-110039005Y-64349598D01*
X-110031457Y-64243387D01*
%TO.C,D37*%
X-75175314Y-55565371D02*
X-75557997Y-54641491D01*
X-75338026Y-54550376D01*
X-75187820Y-54539702D01*
X-75063385Y-54591244D01*
X-74982945Y-54661010D01*
X-74866059Y-54818764D01*
X-74811390Y-54950746D01*
X-74782492Y-55144946D01*
X-74790040Y-55251158D01*
X-74841582Y-55375593D01*
X-74955342Y-55474256D01*
X-75175314Y-55565371D01*
X-74722106Y-54295254D02*
X-74150181Y-54058355D01*
X-74312356Y-54537870D01*
X-74180373Y-54483201D01*
X-74074162Y-54490749D01*
X-74011945Y-54516520D01*
X-73931504Y-54586286D01*
X-73840389Y-54806257D01*
X-73847937Y-54912469D01*
X-73873709Y-54974686D01*
X-73943474Y-55055126D01*
X-74207440Y-55164465D01*
X-74313651Y-55156916D01*
X-74375869Y-55131145D01*
X-73842221Y-53930794D02*
X-73226301Y-53675671D01*
X-73239566Y-54763558D01*
%TO.C,D21*%
X-251920585Y-36353676D02*
X-252303269Y-37277556D01*
X-252523240Y-37186440D01*
X-252637000Y-37087777D01*
X-252688542Y-36963343D01*
X-252696090Y-36857131D01*
X-252667192Y-36662931D01*
X-252612523Y-36530948D01*
X-252495637Y-36373194D01*
X-252415197Y-36303429D01*
X-252290762Y-36251886D01*
X-252140556Y-36262561D01*
X-251920585Y-36353676D01*
X-253146708Y-36825107D02*
X-253208925Y-36850878D01*
X-253315137Y-36858426D01*
X-253535108Y-36767311D01*
X-253604873Y-36686871D01*
X-253630645Y-36624653D01*
X-253638193Y-36518442D01*
X-253601747Y-36430453D01*
X-253503084Y-36316694D01*
X-252756476Y-36007439D01*
X-253328402Y-35770539D01*
X-254208287Y-35406079D02*
X-253680356Y-35624755D01*
X-253944321Y-35515417D02*
X-254327005Y-36439297D01*
X-254184347Y-36343760D01*
X-254059912Y-36292217D01*
X-253953701Y-36284669D01*
%TO.C,D52*%
X-160504264Y-97810030D02*
X-160886947Y-96886150D01*
X-160666976Y-96795035D01*
X-160516770Y-96784361D01*
X-160392335Y-96835903D01*
X-160311895Y-96905669D01*
X-160195009Y-97063423D01*
X-160140340Y-97195405D01*
X-160111442Y-97389605D01*
X-160118990Y-97495817D01*
X-160170532Y-97620252D01*
X-160284292Y-97718915D01*
X-160504264Y-97810030D01*
X-159523125Y-96321237D02*
X-159963067Y-96503467D01*
X-159824831Y-96961633D01*
X-159799060Y-96899415D01*
X-159729295Y-96818975D01*
X-159509323Y-96727860D01*
X-159403112Y-96735408D01*
X-159340895Y-96761179D01*
X-159260454Y-96830945D01*
X-159169339Y-97050916D01*
X-159176887Y-97157128D01*
X-159202659Y-97219345D01*
X-159272424Y-97299785D01*
X-159492395Y-97390901D01*
X-159598607Y-97383352D01*
X-159660824Y-97357581D01*
X-159090730Y-96245218D02*
X-159064959Y-96183001D01*
X-158995194Y-96102561D01*
X-158775222Y-96011446D01*
X-158669011Y-96018994D01*
X-158606793Y-96044765D01*
X-158526353Y-96114530D01*
X-158489907Y-96202519D01*
X-158479232Y-96352725D01*
X-158788487Y-97099332D01*
X-158216562Y-96862433D01*
%TO.C,D16*%
X-146013912Y-33494049D02*
X-146396595Y-32570169D01*
X-146176624Y-32479054D01*
X-146026418Y-32468380D01*
X-145901983Y-32519922D01*
X-145821543Y-32589688D01*
X-145704657Y-32747442D01*
X-145649988Y-32879424D01*
X-145621090Y-33073624D01*
X-145628638Y-33179836D01*
X-145680180Y-33304271D01*
X-145793940Y-33402934D01*
X-146013912Y-33494049D01*
X-144606095Y-32910912D02*
X-145134026Y-33129589D01*
X-144870061Y-33020250D02*
X-145252744Y-32096371D01*
X-145286064Y-32264800D01*
X-145337606Y-32389234D01*
X-145407372Y-32469675D01*
X-144196882Y-31659018D02*
X-144372859Y-31731911D01*
X-144442624Y-31812351D01*
X-144468396Y-31874568D01*
X-144501715Y-32042997D01*
X-144472817Y-32237197D01*
X-144327033Y-32589151D01*
X-144246593Y-32658917D01*
X-144184375Y-32684688D01*
X-144078164Y-32692236D01*
X-143902187Y-32619344D01*
X-143832421Y-32538904D01*
X-143806650Y-32476686D01*
X-143799102Y-32370475D01*
X-143890217Y-32150504D01*
X-143970657Y-32080738D01*
X-144032875Y-32054967D01*
X-144139086Y-32047419D01*
X-144315063Y-32120311D01*
X-144384829Y-32200751D01*
X-144410600Y-32262968D01*
X-144418148Y-32369180D01*
%TO.C,C2*%
X-190416666Y-58107142D02*
X-190464285Y-58154761D01*
X-190607142Y-58202380D01*
X-190702380Y-58202380D01*
X-190845238Y-58154761D01*
X-190940476Y-58059523D01*
X-190988095Y-57964285D01*
X-191035714Y-57773809D01*
X-191035714Y-57630952D01*
X-190988095Y-57440476D01*
X-190940476Y-57345238D01*
X-190845238Y-57250000D01*
X-190702380Y-57202380D01*
X-190607142Y-57202380D01*
X-190464285Y-57250000D01*
X-190416666Y-57297619D01*
X-190035714Y-57297619D02*
X-189988095Y-57250000D01*
X-189892857Y-57202380D01*
X-189654761Y-57202380D01*
X-189559523Y-57250000D01*
X-189511904Y-57297619D01*
X-189464285Y-57392857D01*
X-189464285Y-57488095D01*
X-189511904Y-57630952D01*
X-190083333Y-58202380D01*
X-189464285Y-58202380D01*
%TO.C,D30*%
X-154609499Y-74802996D02*
X-154992182Y-73879116D01*
X-154772211Y-73788001D01*
X-154622005Y-73777327D01*
X-154497570Y-73828869D01*
X-154417130Y-73898635D01*
X-154300244Y-74056389D01*
X-154245575Y-74188371D01*
X-154216677Y-74382571D01*
X-154224225Y-74488783D01*
X-154275767Y-74613218D01*
X-154389527Y-74711881D01*
X-154609499Y-74802996D01*
X-154156291Y-73532879D02*
X-153584366Y-73295980D01*
X-153746541Y-73775495D01*
X-153614558Y-73720826D01*
X-153508347Y-73728374D01*
X-153446130Y-73754145D01*
X-153365689Y-73823911D01*
X-153274574Y-74043882D01*
X-153282122Y-74150094D01*
X-153307894Y-74212311D01*
X-153377659Y-74292751D01*
X-153641625Y-74402090D01*
X-153747836Y-74394541D01*
X-153810054Y-74368770D01*
X-153012440Y-73059081D02*
X-152924452Y-73022635D01*
X-152818240Y-73030183D01*
X-152756023Y-73055954D01*
X-152675582Y-73125719D01*
X-152558696Y-73283474D01*
X-152467581Y-73503445D01*
X-152438683Y-73697645D01*
X-152446231Y-73803856D01*
X-152472003Y-73866074D01*
X-152541768Y-73946514D01*
X-152629757Y-73982960D01*
X-152735968Y-73975412D01*
X-152798185Y-73949641D01*
X-152878626Y-73879875D01*
X-152995512Y-73722121D01*
X-153086627Y-73502150D01*
X-153115525Y-73307950D01*
X-153107977Y-73201738D01*
X-153082206Y-73139521D01*
X-153012440Y-73059081D01*
%TO.C,D51*%
X-142041213Y-92733174D02*
X-142423896Y-91809294D01*
X-142203925Y-91718179D01*
X-142053719Y-91707505D01*
X-141929284Y-91759047D01*
X-141848844Y-91828813D01*
X-141731958Y-91986567D01*
X-141677289Y-92118549D01*
X-141648391Y-92312749D01*
X-141655939Y-92418961D01*
X-141707481Y-92543396D01*
X-141821241Y-92642059D01*
X-142041213Y-92733174D01*
X-141060074Y-91244381D02*
X-141500016Y-91426611D01*
X-141361780Y-91884777D01*
X-141336009Y-91822559D01*
X-141266244Y-91742119D01*
X-141046272Y-91651004D01*
X-140940061Y-91658552D01*
X-140877844Y-91684323D01*
X-140797403Y-91754089D01*
X-140706288Y-91974060D01*
X-140713836Y-92080272D01*
X-140739608Y-92142489D01*
X-140809373Y-92222929D01*
X-141029344Y-92314045D01*
X-141135556Y-92306496D01*
X-141197773Y-92280725D01*
X-139753511Y-91785577D02*
X-140281442Y-92004253D01*
X-140017476Y-91894915D02*
X-140400160Y-90971036D01*
X-140433479Y-91139464D01*
X-140485022Y-91263899D01*
X-140554787Y-91344339D01*
%TO.C,D55*%
X-227098246Y-75724825D02*
X-227480930Y-76648705D01*
X-227700901Y-76557589D01*
X-227814661Y-76458926D01*
X-227866203Y-76334492D01*
X-227873751Y-76228280D01*
X-227844853Y-76034080D01*
X-227790184Y-75902097D01*
X-227673298Y-75744343D01*
X-227592858Y-75674578D01*
X-227468423Y-75623035D01*
X-227318217Y-75633710D01*
X-227098246Y-75724825D01*
X-228844752Y-76083791D02*
X-228404809Y-76266021D01*
X-228178585Y-75844302D01*
X-228240802Y-75870073D01*
X-228347013Y-75877621D01*
X-228566985Y-75786506D01*
X-228636750Y-75706066D01*
X-228662521Y-75643848D01*
X-228670070Y-75537637D01*
X-228578955Y-75317665D01*
X-228498514Y-75247900D01*
X-228436297Y-75222129D01*
X-228330085Y-75214580D01*
X-228110114Y-75305696D01*
X-228040349Y-75386136D01*
X-228014577Y-75448353D01*
X-229724637Y-75719331D02*
X-229284694Y-75901561D01*
X-229058470Y-75479841D01*
X-229120687Y-75505612D01*
X-229226899Y-75513161D01*
X-229446870Y-75422045D01*
X-229516636Y-75341605D01*
X-229542407Y-75279388D01*
X-229549955Y-75173176D01*
X-229458840Y-74953205D01*
X-229378400Y-74883439D01*
X-229316182Y-74857668D01*
X-229209971Y-74850120D01*
X-228989999Y-74941235D01*
X-228920234Y-75021675D01*
X-228894463Y-75083893D01*
%TO.C,R6*%
X-214547619Y-67666666D02*
X-215023809Y-68000000D01*
X-214547619Y-68238095D02*
X-215547619Y-68238095D01*
X-215547619Y-67857142D01*
X-215500000Y-67761904D01*
X-215452380Y-67714285D01*
X-215357142Y-67666666D01*
X-215214285Y-67666666D01*
X-215119047Y-67714285D01*
X-215071428Y-67761904D01*
X-215023809Y-67857142D01*
X-215023809Y-68238095D01*
X-215547619Y-66809523D02*
X-215547619Y-67000000D01*
X-215500000Y-67095238D01*
X-215452380Y-67142857D01*
X-215309523Y-67238095D01*
X-215119047Y-67285714D01*
X-214738095Y-67285714D01*
X-214642857Y-67238095D01*
X-214595238Y-67190476D01*
X-214547619Y-67095238D01*
X-214547619Y-66904761D01*
X-214595238Y-66809523D01*
X-214642857Y-66761904D01*
X-214738095Y-66714285D01*
X-214976190Y-66714285D01*
X-215071428Y-66761904D01*
X-215119047Y-66809523D01*
X-215166666Y-66904761D01*
X-215166666Y-67095238D01*
X-215119047Y-67190476D01*
X-215071428Y-67238095D01*
X-214976190Y-67285714D01*
%TO.C,D2*%
X-114102039Y-9992994D02*
X-114484722Y-9069114D01*
X-114264751Y-8977999D01*
X-114114545Y-8967324D01*
X-113990111Y-9018867D01*
X-113909670Y-9088632D01*
X-113792784Y-9246386D01*
X-113738115Y-9378369D01*
X-113709217Y-9572569D01*
X-113716765Y-9678781D01*
X-113768308Y-9803215D01*
X-113882068Y-9901879D01*
X-114102039Y-9992994D01*
X-113568391Y-8792642D02*
X-113542620Y-8730425D01*
X-113472854Y-8649985D01*
X-113252883Y-8558870D01*
X-113146671Y-8566418D01*
X-113084454Y-8592189D01*
X-113004014Y-8661955D01*
X-112967568Y-8749943D01*
X-112956893Y-8900149D01*
X-113266148Y-9646756D01*
X-112694222Y-9409857D01*
%TO.C,D3*%
X-133473495Y-12875552D02*
X-133856178Y-11951672D01*
X-133636207Y-11860557D01*
X-133486001Y-11849882D01*
X-133361567Y-11901425D01*
X-133281126Y-11971190D01*
X-133164240Y-12128944D01*
X-133109571Y-12260927D01*
X-133080673Y-12455127D01*
X-133088221Y-12561339D01*
X-133139764Y-12685773D01*
X-133253524Y-12784437D01*
X-133473495Y-12875552D01*
X-133020287Y-11605435D02*
X-132448362Y-11368536D01*
X-132610538Y-11848051D01*
X-132478555Y-11793382D01*
X-132372343Y-11800930D01*
X-132310126Y-11826701D01*
X-132229686Y-11896467D01*
X-132138571Y-12116438D01*
X-132146119Y-12222650D01*
X-132171890Y-12284867D01*
X-132241656Y-12365307D01*
X-132505621Y-12474645D01*
X-132611833Y-12467097D01*
X-132674050Y-12441326D01*
%TO.C,D5*%
X-170398664Y-23029093D02*
X-170781347Y-22105213D01*
X-170561376Y-22014098D01*
X-170411170Y-22003423D01*
X-170286736Y-22054966D01*
X-170206295Y-22124731D01*
X-170089409Y-22282485D01*
X-170034740Y-22414468D01*
X-170005842Y-22608668D01*
X-170013390Y-22714880D01*
X-170064933Y-22839314D01*
X-170178693Y-22937978D01*
X-170398664Y-23029093D01*
X-169417525Y-21540300D02*
X-169857468Y-21722530D01*
X-169719232Y-22180696D01*
X-169693461Y-22118478D01*
X-169623695Y-22038038D01*
X-169403724Y-21946923D01*
X-169297512Y-21954471D01*
X-169235295Y-21980242D01*
X-169154855Y-22050008D01*
X-169063740Y-22269979D01*
X-169071288Y-22376191D01*
X-169097059Y-22438408D01*
X-169166825Y-22518848D01*
X-169386796Y-22609963D01*
X-169493007Y-22602415D01*
X-169555225Y-22576644D01*
%TO.C,D60*%
X-289756518Y-78048307D02*
X-290139202Y-78972187D01*
X-290359173Y-78881071D01*
X-290472933Y-78782408D01*
X-290524475Y-78657974D01*
X-290532023Y-78551762D01*
X-290503125Y-78357562D01*
X-290448456Y-78225579D01*
X-290331570Y-78067825D01*
X-290251130Y-77998060D01*
X-290126695Y-77946517D01*
X-289976489Y-77957192D01*
X-289756518Y-78048307D01*
X-291459029Y-78425496D02*
X-291283052Y-78498388D01*
X-291176841Y-78490840D01*
X-291114624Y-78465069D01*
X-290971966Y-78369532D01*
X-290855080Y-78211778D01*
X-290709295Y-77859824D01*
X-290716844Y-77753612D01*
X-290742615Y-77691395D01*
X-290812380Y-77610955D01*
X-290988357Y-77538062D01*
X-291094569Y-77545611D01*
X-291156786Y-77571382D01*
X-291237227Y-77641147D01*
X-291328342Y-77861119D01*
X-291320793Y-77967330D01*
X-291295022Y-78029548D01*
X-291225257Y-78109988D01*
X-291049280Y-78182880D01*
X-290943068Y-78175332D01*
X-290880851Y-78149560D01*
X-290800411Y-78079795D01*
X-292118943Y-78152151D02*
X-292206932Y-78115705D01*
X-292276697Y-78035264D01*
X-292302469Y-77973047D01*
X-292310017Y-77866835D01*
X-292281119Y-77672635D01*
X-292190004Y-77452664D01*
X-292073118Y-77294910D01*
X-291992677Y-77225145D01*
X-291930460Y-77199373D01*
X-291824248Y-77191825D01*
X-291736260Y-77228271D01*
X-291666494Y-77308711D01*
X-291640723Y-77370929D01*
X-291633175Y-77477140D01*
X-291662073Y-77671340D01*
X-291753188Y-77891312D01*
X-291870074Y-78049066D01*
X-291950515Y-78118831D01*
X-292012732Y-78144602D01*
X-292118943Y-78152151D01*
%TO.C,D49*%
X-105116510Y-82579716D02*
X-105499193Y-81655836D01*
X-105279222Y-81564721D01*
X-105129016Y-81554047D01*
X-105004581Y-81605589D01*
X-104924141Y-81675355D01*
X-104807255Y-81833109D01*
X-104752586Y-81965091D01*
X-104723688Y-82159291D01*
X-104731236Y-82265503D01*
X-104782778Y-82389938D01*
X-104896538Y-82488601D01*
X-105116510Y-82579716D01*
X-104051804Y-81417106D02*
X-103796682Y-82033025D01*
X-104417559Y-81156267D02*
X-104364185Y-81907296D01*
X-103792260Y-81670397D01*
X-103268750Y-81814349D02*
X-103092773Y-81741457D01*
X-103023008Y-81661017D01*
X-102997237Y-81598799D01*
X-102963917Y-81430371D01*
X-102992815Y-81236171D01*
X-103138599Y-80884216D01*
X-103219039Y-80814451D01*
X-103281257Y-80788680D01*
X-103387468Y-80781132D01*
X-103563445Y-80854024D01*
X-103633211Y-80934464D01*
X-103658982Y-80996681D01*
X-103666530Y-81102893D01*
X-103575415Y-81322864D01*
X-103494975Y-81392630D01*
X-103432758Y-81418401D01*
X-103326546Y-81425949D01*
X-103150569Y-81353057D01*
X-103080804Y-81272617D01*
X-103055032Y-81210399D01*
X-103047484Y-81104188D01*
%TO.C,R3*%
X-202797619Y-53916666D02*
X-203273809Y-54250000D01*
X-202797619Y-54488095D02*
X-203797619Y-54488095D01*
X-203797619Y-54107142D01*
X-203750000Y-54011904D01*
X-203702380Y-53964285D01*
X-203607142Y-53916666D01*
X-203464285Y-53916666D01*
X-203369047Y-53964285D01*
X-203321428Y-54011904D01*
X-203273809Y-54107142D01*
X-203273809Y-54488095D01*
X-203797619Y-53583333D02*
X-203797619Y-52964285D01*
X-203416666Y-53297619D01*
X-203416666Y-53154761D01*
X-203369047Y-53059523D01*
X-203321428Y-53011904D01*
X-203226190Y-52964285D01*
X-202988095Y-52964285D01*
X-202892857Y-53011904D01*
X-202845238Y-53059523D01*
X-202797619Y-53154761D01*
X-202797619Y-53440476D01*
X-202845238Y-53535714D01*
X-202892857Y-53583333D01*
%TO.C,D54*%
X-169198735Y-76382632D02*
X-169581418Y-75458752D01*
X-169361447Y-75367637D01*
X-169211241Y-75356963D01*
X-169086806Y-75408505D01*
X-169006366Y-75478271D01*
X-168889480Y-75636025D01*
X-168834811Y-75768007D01*
X-168805913Y-75962207D01*
X-168813461Y-76068419D01*
X-168865003Y-76192854D01*
X-168978763Y-76291517D01*
X-169198735Y-76382632D01*
X-168217596Y-74893839D02*
X-168657538Y-75076069D01*
X-168519302Y-75534235D01*
X-168493531Y-75472017D01*
X-168423766Y-75391577D01*
X-168203794Y-75300462D01*
X-168097583Y-75308010D01*
X-168035366Y-75333781D01*
X-167954925Y-75403547D01*
X-167863810Y-75623518D01*
X-167871358Y-75729730D01*
X-167897130Y-75791947D01*
X-167966895Y-75872387D01*
X-168186866Y-75963503D01*
X-168293078Y-75955954D01*
X-168355295Y-75930183D01*
X-167254144Y-74855561D02*
X-166999021Y-75471481D01*
X-167619899Y-74594722D02*
X-167566525Y-75345751D01*
X-166994600Y-75108852D01*
%TO.C,D46*%
X-285834013Y-68578542D02*
X-286216697Y-69502422D01*
X-286436668Y-69411306D01*
X-286550428Y-69312643D01*
X-286601970Y-69188209D01*
X-286609518Y-69081997D01*
X-286580620Y-68887797D01*
X-286525951Y-68755814D01*
X-286409065Y-68598060D01*
X-286328625Y-68528295D01*
X-286204190Y-68476752D01*
X-286053984Y-68487427D01*
X-285834013Y-68578542D01*
X-287408963Y-68647771D02*
X-287153841Y-68031851D01*
X-287334776Y-69090840D02*
X-286841459Y-68522041D01*
X-287413385Y-68285142D01*
X-288416410Y-68591271D02*
X-288240433Y-68664163D01*
X-288134221Y-68656614D01*
X-288072004Y-68630843D01*
X-287929346Y-68535306D01*
X-287812460Y-68377552D01*
X-287666676Y-68025598D01*
X-287674224Y-67919387D01*
X-287699995Y-67857169D01*
X-287769761Y-67776729D01*
X-287945738Y-67703837D01*
X-288051949Y-67711385D01*
X-288114167Y-67737156D01*
X-288194607Y-67806922D01*
X-288285722Y-68026893D01*
X-288278174Y-68133105D01*
X-288252403Y-68195322D01*
X-288182637Y-68275762D01*
X-288006660Y-68348655D01*
X-287900448Y-68341106D01*
X-287838231Y-68315335D01*
X-287757791Y-68245570D01*
%TO.C,D43*%
X-229175314Y-83974610D02*
X-230099194Y-83591926D01*
X-230008078Y-83371955D01*
X-229909415Y-83258195D01*
X-229784981Y-83206653D01*
X-229678769Y-83199105D01*
X-229484569Y-83228003D01*
X-229352586Y-83282672D01*
X-229194832Y-83399558D01*
X-229125067Y-83479998D01*
X-229073524Y-83604433D01*
X-229084199Y-83754639D01*
X-229175314Y-83974610D01*
X-229244543Y-82399660D02*
X-228628623Y-82654782D01*
X-229687612Y-82473847D02*
X-229118813Y-82967164D01*
X-228881914Y-82395238D01*
X-229388496Y-81876150D02*
X-229151596Y-81304225D01*
X-228927204Y-81757969D01*
X-228872534Y-81625986D01*
X-228792094Y-81556220D01*
X-228729877Y-81530449D01*
X-228623665Y-81522901D01*
X-228403694Y-81614016D01*
X-228333928Y-81694456D01*
X-228308157Y-81756674D01*
X-228300609Y-81862885D01*
X-228409947Y-82126851D01*
X-228490387Y-82196616D01*
X-228552605Y-82222388D01*
%TO.C,D59*%
X-271293933Y-83125078D02*
X-271676617Y-84048958D01*
X-271896588Y-83957842D01*
X-272010348Y-83859179D01*
X-272061890Y-83734745D01*
X-272069438Y-83628533D01*
X-272040540Y-83434333D01*
X-271985871Y-83302350D01*
X-271868985Y-83144596D01*
X-271788545Y-83074831D01*
X-271664110Y-83023288D01*
X-271513904Y-83033963D01*
X-271293933Y-83125078D01*
X-273040439Y-83484044D02*
X-272600496Y-83666274D01*
X-272374272Y-83244555D01*
X-272436489Y-83270326D01*
X-272542700Y-83277874D01*
X-272762672Y-83186759D01*
X-272832437Y-83106319D01*
X-272858208Y-83044101D01*
X-272865757Y-82937890D01*
X-272774642Y-82717918D01*
X-272694201Y-82648153D01*
X-272631984Y-82622382D01*
X-272525772Y-82614833D01*
X-272305801Y-82705949D01*
X-272236036Y-82786389D01*
X-272210264Y-82848606D01*
X-273141692Y-82359711D02*
X-273317669Y-82286819D01*
X-273423881Y-82294367D01*
X-273486098Y-82320139D01*
X-273628756Y-82415675D01*
X-273745642Y-82573429D01*
X-273891426Y-82925383D01*
X-273883878Y-83031595D01*
X-273858107Y-83093812D01*
X-273788341Y-83174253D01*
X-273612364Y-83247145D01*
X-273506153Y-83239596D01*
X-273443935Y-83213825D01*
X-273363495Y-83144060D01*
X-273272380Y-82924088D01*
X-273279928Y-82817877D01*
X-273305699Y-82755660D01*
X-273375465Y-82675219D01*
X-273551442Y-82602327D01*
X-273657653Y-82609875D01*
X-273719871Y-82635647D01*
X-273800311Y-82705412D01*
%TO.C,D36*%
X-315488196Y-40871287D02*
X-315870880Y-41795167D01*
X-316090851Y-41704051D01*
X-316204611Y-41605388D01*
X-316256153Y-41480954D01*
X-316263701Y-41374742D01*
X-316234803Y-41180542D01*
X-316180134Y-41048559D01*
X-316063248Y-40890805D01*
X-315982808Y-40821040D01*
X-315858373Y-40769497D01*
X-315708167Y-40780172D01*
X-315488196Y-40871287D01*
X-316706771Y-41448929D02*
X-317278696Y-41212030D01*
X-316824952Y-40987637D01*
X-316956935Y-40932968D01*
X-317026700Y-40852528D01*
X-317052471Y-40790310D01*
X-317060020Y-40684099D01*
X-316968905Y-40464127D01*
X-316888464Y-40394362D01*
X-316826247Y-40368591D01*
X-316720035Y-40361042D01*
X-316456070Y-40470381D01*
X-316386304Y-40550821D01*
X-316360533Y-40613038D01*
X-318070593Y-40884016D02*
X-317894616Y-40956908D01*
X-317788404Y-40949359D01*
X-317726187Y-40923588D01*
X-317583529Y-40828051D01*
X-317466643Y-40670297D01*
X-317320859Y-40318343D01*
X-317328407Y-40212132D01*
X-317354178Y-40149914D01*
X-317423944Y-40069474D01*
X-317599921Y-39996582D01*
X-317706132Y-40004130D01*
X-317768350Y-40029901D01*
X-317848790Y-40099667D01*
X-317939905Y-40319638D01*
X-317932357Y-40425850D01*
X-317906586Y-40488067D01*
X-317836820Y-40568507D01*
X-317660843Y-40641400D01*
X-317554631Y-40633851D01*
X-317492414Y-40608080D01*
X-317411974Y-40538315D01*
%TO.C,C3*%
X-195392857Y-51666666D02*
X-195345238Y-51714285D01*
X-195297619Y-51857142D01*
X-195297619Y-51952380D01*
X-195345238Y-52095238D01*
X-195440476Y-52190476D01*
X-195535714Y-52238095D01*
X-195726190Y-52285714D01*
X-195869047Y-52285714D01*
X-196059523Y-52238095D01*
X-196154761Y-52190476D01*
X-196250000Y-52095238D01*
X-196297619Y-51952380D01*
X-196297619Y-51857142D01*
X-196250000Y-51714285D01*
X-196202380Y-51666666D01*
X-196297619Y-51333333D02*
X-196297619Y-50714285D01*
X-195916666Y-51047619D01*
X-195916666Y-50904761D01*
X-195869047Y-50809523D01*
X-195821428Y-50761904D01*
X-195726190Y-50714285D01*
X-195488095Y-50714285D01*
X-195392857Y-50761904D01*
X-195345238Y-50809523D01*
X-195297619Y-50904761D01*
X-195297619Y-51190476D01*
X-195345238Y-51285714D01*
X-195392857Y-51333333D01*
%TO.C,D1*%
X-96548328Y-2722008D02*
X-96931011Y-1798128D01*
X-96711040Y-1707013D01*
X-96560834Y-1696338D01*
X-96436400Y-1747881D01*
X-96355959Y-1817646D01*
X-96239073Y-1975400D01*
X-96184404Y-2107383D01*
X-96155506Y-2301583D01*
X-96163054Y-2407795D01*
X-96214597Y-2532229D01*
X-96328357Y-2630893D01*
X-96548328Y-2722008D01*
X-95140511Y-2138871D02*
X-95668443Y-2357547D01*
X-95404477Y-2248209D02*
X-95787160Y-1324330D01*
X-95820480Y-1492759D01*
X-95872022Y-1617193D01*
X-95941788Y-1697633D01*
%TO.C,D19*%
X-232992544Y-52717875D02*
X-233375228Y-53641755D01*
X-233595199Y-53550639D01*
X-233708959Y-53451976D01*
X-233760501Y-53327542D01*
X-233768049Y-53221330D01*
X-233739151Y-53027130D01*
X-233684482Y-52895147D01*
X-233567596Y-52737393D01*
X-233487156Y-52667628D01*
X-233362721Y-52616085D01*
X-233212515Y-52626760D01*
X-232992544Y-52717875D01*
X-234400361Y-52134738D02*
X-233872429Y-52353415D01*
X-234136395Y-52244076D02*
X-234519078Y-53167956D01*
X-234376421Y-53072419D01*
X-234251986Y-53020877D01*
X-234145775Y-53013329D01*
X-234840303Y-51952508D02*
X-235016280Y-51879616D01*
X-235122492Y-51887164D01*
X-235184709Y-51912936D01*
X-235327367Y-52008472D01*
X-235444253Y-52166226D01*
X-235590037Y-52518180D01*
X-235582489Y-52624392D01*
X-235556718Y-52686609D01*
X-235486952Y-52767050D01*
X-235310975Y-52839942D01*
X-235204764Y-52832393D01*
X-235142546Y-52806622D01*
X-235062106Y-52736857D01*
X-234970991Y-52516885D01*
X-234978539Y-52410674D01*
X-235004310Y-52348457D01*
X-235074076Y-52268016D01*
X-235250053Y-52195124D01*
X-235356264Y-52202672D01*
X-235418482Y-52228444D01*
X-235498922Y-52298209D01*
%TO.C,R5*%
X-198166666Y-69202380D02*
X-198500000Y-68726190D01*
X-198738095Y-69202380D02*
X-198738095Y-68202380D01*
X-198357142Y-68202380D01*
X-198261904Y-68250000D01*
X-198214285Y-68297619D01*
X-198166666Y-68392857D01*
X-198166666Y-68535714D01*
X-198214285Y-68630952D01*
X-198261904Y-68678571D01*
X-198357142Y-68726190D01*
X-198738095Y-68726190D01*
X-197261904Y-68202380D02*
X-197738095Y-68202380D01*
X-197785714Y-68678571D01*
X-197738095Y-68630952D01*
X-197642857Y-68583333D01*
X-197404761Y-68583333D01*
X-197309523Y-68630952D01*
X-197261904Y-68678571D01*
X-197214285Y-68773809D01*
X-197214285Y-69011904D01*
X-197261904Y-69107142D01*
X-197309523Y-69154761D01*
X-197404761Y-69202380D01*
X-197642857Y-69202380D01*
X-197738095Y-69154761D01*
X-197785714Y-69107142D01*
%TO.C,D8*%
X-227535831Y-25888722D02*
X-227918514Y-26812601D01*
X-228138485Y-26721486D01*
X-228252245Y-26622823D01*
X-228303788Y-26498388D01*
X-228311336Y-26392177D01*
X-228282438Y-26197977D01*
X-228227769Y-26065994D01*
X-228110883Y-25908240D01*
X-228030442Y-25838474D01*
X-227906008Y-25786932D01*
X-227755802Y-25797607D01*
X-227535831Y-25888722D01*
X-228810369Y-25979300D02*
X-228740604Y-26059741D01*
X-228714833Y-26121958D01*
X-228707284Y-26228170D01*
X-228725507Y-26272164D01*
X-228805948Y-26341929D01*
X-228868165Y-26367701D01*
X-228974376Y-26375249D01*
X-229150354Y-26302357D01*
X-229220119Y-26221916D01*
X-229245890Y-26159699D01*
X-229253439Y-26053488D01*
X-229235215Y-26009493D01*
X-229154775Y-25939728D01*
X-229092558Y-25913957D01*
X-228986346Y-25906408D01*
X-228810369Y-25979300D01*
X-228704158Y-25971752D01*
X-228641940Y-25945981D01*
X-228561500Y-25876216D01*
X-228488608Y-25700238D01*
X-228496156Y-25594027D01*
X-228521928Y-25531810D01*
X-228591693Y-25451369D01*
X-228767670Y-25378477D01*
X-228873882Y-25386025D01*
X-228936099Y-25411797D01*
X-229016539Y-25481562D01*
X-229089431Y-25657539D01*
X-229081883Y-25763751D01*
X-229056112Y-25825968D01*
X-228986346Y-25906408D01*
%TO.C,D17*%
X-163567622Y-40765035D02*
X-163950305Y-39841155D01*
X-163730334Y-39750040D01*
X-163580128Y-39739366D01*
X-163455693Y-39790908D01*
X-163375253Y-39860674D01*
X-163258367Y-40018428D01*
X-163203698Y-40150410D01*
X-163174800Y-40344610D01*
X-163182348Y-40450822D01*
X-163233890Y-40575257D01*
X-163347650Y-40673920D01*
X-163567622Y-40765035D01*
X-162159805Y-40181898D02*
X-162687736Y-40400575D01*
X-162423771Y-40291236D02*
X-162806454Y-39367357D01*
X-162839774Y-39535786D01*
X-162891316Y-39660220D01*
X-162961082Y-39740661D01*
X-162234529Y-39130458D02*
X-161618609Y-38875335D01*
X-161631874Y-39963222D01*
%TO.C,D23*%
X-290663498Y-30588562D02*
X-291046182Y-31512442D01*
X-291266153Y-31421326D01*
X-291379913Y-31322663D01*
X-291431455Y-31198229D01*
X-291439003Y-31092017D01*
X-291410105Y-30897817D01*
X-291355436Y-30765834D01*
X-291238550Y-30608080D01*
X-291158110Y-30538315D01*
X-291033675Y-30486772D01*
X-290883469Y-30497447D01*
X-290663498Y-30588562D01*
X-291889621Y-31059993D02*
X-291951838Y-31085764D01*
X-292058050Y-31093312D01*
X-292278021Y-31002197D01*
X-292347786Y-30921757D01*
X-292373558Y-30859539D01*
X-292381106Y-30753328D01*
X-292344660Y-30665339D01*
X-292245997Y-30551580D01*
X-291499389Y-30242325D01*
X-292071315Y-30005425D01*
X-292761958Y-30801744D02*
X-293333883Y-30564844D01*
X-292880139Y-30340452D01*
X-293012122Y-30285782D01*
X-293081888Y-30205342D01*
X-293107659Y-30143125D01*
X-293115207Y-30036913D01*
X-293024092Y-29816942D01*
X-292943652Y-29747176D01*
X-292881434Y-29721405D01*
X-292775223Y-29713857D01*
X-292511257Y-29823195D01*
X-292441492Y-29903635D01*
X-292415720Y-29965853D01*
%TO.C,D33*%
X-259191570Y-53907387D02*
X-259574254Y-54831267D01*
X-259794225Y-54740151D01*
X-259907985Y-54641488D01*
X-259959527Y-54517054D01*
X-259967075Y-54410842D01*
X-259938177Y-54216642D01*
X-259883508Y-54084659D01*
X-259766622Y-53926905D01*
X-259686182Y-53857140D01*
X-259561747Y-53805597D01*
X-259411541Y-53816272D01*
X-259191570Y-53907387D01*
X-260410145Y-54485029D02*
X-260982070Y-54248130D01*
X-260528326Y-54023737D01*
X-260660309Y-53969068D01*
X-260730074Y-53888628D01*
X-260755845Y-53826410D01*
X-260763394Y-53720199D01*
X-260672279Y-53500227D01*
X-260591838Y-53430462D01*
X-260529621Y-53404691D01*
X-260423409Y-53397142D01*
X-260159444Y-53506481D01*
X-260089678Y-53586921D01*
X-260063907Y-53649138D01*
X-261290030Y-54120569D02*
X-261861955Y-53883669D01*
X-261408211Y-53659277D01*
X-261540194Y-53604607D01*
X-261609960Y-53524167D01*
X-261635731Y-53461950D01*
X-261643279Y-53355738D01*
X-261552164Y-53135767D01*
X-261471724Y-53066001D01*
X-261409506Y-53040230D01*
X-261303295Y-53032682D01*
X-261039329Y-53142020D01*
X-260969564Y-53222460D01*
X-260943792Y-53284678D01*
%TO.C,D42*%
X-162786456Y-82717655D02*
X-163710336Y-83100338D01*
X-163801451Y-82880367D01*
X-163812125Y-82730161D01*
X-163760583Y-82605726D01*
X-163690817Y-82525286D01*
X-163533063Y-82408400D01*
X-163401081Y-82353731D01*
X-163206881Y-82324833D01*
X-163100669Y-82332381D01*
X-162976234Y-82383923D01*
X-162877571Y-82497683D01*
X-162786456Y-82717655D01*
X-163949066Y-81652949D02*
X-163333147Y-81397827D01*
X-164209905Y-82018704D02*
X-163458876Y-81965330D01*
X-163695775Y-81393405D01*
X-164351268Y-81304121D02*
X-164413485Y-81278350D01*
X-164493925Y-81208585D01*
X-164585040Y-80988613D01*
X-164577492Y-80882402D01*
X-164551721Y-80820184D01*
X-164481956Y-80739744D01*
X-164393967Y-80703298D01*
X-164243761Y-80692623D01*
X-163497154Y-81001878D01*
X-163734053Y-80429953D01*
%TO.C,D57*%
X-234368764Y-93278621D02*
X-234751448Y-94202501D01*
X-234971419Y-94111385D01*
X-235085179Y-94012722D01*
X-235136721Y-93888288D01*
X-235144269Y-93782076D01*
X-235115371Y-93587876D01*
X-235060702Y-93455893D01*
X-234943816Y-93298139D01*
X-234863376Y-93228374D01*
X-234738941Y-93176831D01*
X-234588735Y-93187506D01*
X-234368764Y-93278621D01*
X-236115270Y-93637587D02*
X-235675327Y-93819817D01*
X-235449103Y-93398098D01*
X-235511320Y-93423869D01*
X-235617531Y-93431417D01*
X-235837503Y-93340302D01*
X-235907268Y-93259862D01*
X-235933039Y-93197644D01*
X-235940588Y-93091433D01*
X-235849473Y-92871461D01*
X-235769032Y-92801696D01*
X-235706815Y-92775925D01*
X-235600603Y-92768376D01*
X-235380632Y-92859492D01*
X-235310867Y-92939932D01*
X-235285095Y-93002149D01*
X-236467224Y-93491803D02*
X-237083143Y-93236680D01*
X-236304512Y-92476808D01*
%TO.C,C1*%
X-190416666Y-50607142D02*
X-190464285Y-50654761D01*
X-190607142Y-50702380D01*
X-190702380Y-50702380D01*
X-190845238Y-50654761D01*
X-190940476Y-50559523D01*
X-190988095Y-50464285D01*
X-191035714Y-50273809D01*
X-191035714Y-50130952D01*
X-190988095Y-49940476D01*
X-190940476Y-49845238D01*
X-190845238Y-49750000D01*
X-190702380Y-49702380D01*
X-190607142Y-49702380D01*
X-190464285Y-49750000D01*
X-190416666Y-49797619D01*
X-189464285Y-50702380D02*
X-190035714Y-50702380D01*
X-189750000Y-50702380D02*
X-189750000Y-49702380D01*
X-189845238Y-49845238D01*
X-189940476Y-49940476D01*
X-190035714Y-49988095D01*
%TO.C,U3*%
X-199261904Y-61702380D02*
X-199261904Y-62511904D01*
X-199214285Y-62607142D01*
X-199166666Y-62654761D01*
X-199071428Y-62702380D01*
X-198880952Y-62702380D01*
X-198785714Y-62654761D01*
X-198738095Y-62607142D01*
X-198690476Y-62511904D01*
X-198690476Y-61702380D01*
X-198309523Y-61702380D02*
X-197690476Y-61702380D01*
X-198023809Y-62083333D01*
X-197880952Y-62083333D01*
X-197785714Y-62130952D01*
X-197738095Y-62178571D01*
X-197690476Y-62273809D01*
X-197690476Y-62511904D01*
X-197738095Y-62607142D01*
X-197785714Y-62654761D01*
X-197880952Y-62702380D01*
X-198166666Y-62702380D01*
X-198261904Y-62654761D01*
X-198309523Y-62607142D01*
%TO.C,D45*%
X-266462555Y-71461099D02*
X-266845239Y-72384979D01*
X-267065210Y-72293863D01*
X-267178970Y-72195200D01*
X-267230512Y-72070766D01*
X-267238060Y-71964554D01*
X-267209162Y-71770354D01*
X-267154493Y-71638371D01*
X-267037607Y-71480617D01*
X-266957167Y-71410852D01*
X-266832732Y-71359309D01*
X-266682526Y-71369984D01*
X-266462555Y-71461099D01*
X-268037505Y-71530328D02*
X-267782383Y-70914408D01*
X-267963318Y-71973397D02*
X-267470001Y-71404598D01*
X-268041927Y-71167699D01*
X-269088946Y-71455605D02*
X-268649003Y-71637835D01*
X-268422779Y-71216115D01*
X-268484996Y-71241886D01*
X-268591208Y-71249435D01*
X-268811179Y-71158319D01*
X-268880945Y-71077879D01*
X-268906716Y-71015662D01*
X-268914264Y-70909450D01*
X-268823149Y-70689479D01*
X-268742709Y-70619713D01*
X-268680491Y-70593942D01*
X-268574280Y-70586394D01*
X-268354308Y-70677509D01*
X-268284543Y-70757949D01*
X-268258772Y-70820167D01*
%TO.C,D9*%
X-245089544Y-18617736D02*
X-245472227Y-19541615D01*
X-245692198Y-19450500D01*
X-245805958Y-19351837D01*
X-245857501Y-19227402D01*
X-245865049Y-19121191D01*
X-245836151Y-18926991D01*
X-245781482Y-18795008D01*
X-245664596Y-18637254D01*
X-245584155Y-18567488D01*
X-245459721Y-18515946D01*
X-245309515Y-18526621D01*
X-245089544Y-18617736D01*
X-246057418Y-18216829D02*
X-246233395Y-18143937D01*
X-246339606Y-18151486D01*
X-246401823Y-18177257D01*
X-246544481Y-18272793D01*
X-246661367Y-18430548D01*
X-246807152Y-18782502D01*
X-246799603Y-18888713D01*
X-246773832Y-18950930D01*
X-246704067Y-19031371D01*
X-246528089Y-19104263D01*
X-246421878Y-19096715D01*
X-246359661Y-19070943D01*
X-246279220Y-19001178D01*
X-246188105Y-18781207D01*
X-246195653Y-18674995D01*
X-246221425Y-18612778D01*
X-246291190Y-18532337D01*
X-246467167Y-18459445D01*
X-246573379Y-18466994D01*
X-246635596Y-18492765D01*
X-246716036Y-18562530D01*
%TO.C,D34*%
X-278563029Y-51024831D02*
X-278945713Y-51948711D01*
X-279165684Y-51857595D01*
X-279279444Y-51758932D01*
X-279330986Y-51634498D01*
X-279338534Y-51528286D01*
X-279309636Y-51334086D01*
X-279254967Y-51202103D01*
X-279138081Y-51044349D01*
X-279057641Y-50974584D01*
X-278933206Y-50923041D01*
X-278783000Y-50933716D01*
X-278563029Y-51024831D01*
X-279781604Y-51602473D02*
X-280353529Y-51365574D01*
X-279899785Y-51141181D01*
X-280031768Y-51086512D01*
X-280101533Y-51006072D01*
X-280127304Y-50943854D01*
X-280134853Y-50837643D01*
X-280043738Y-50617671D01*
X-279963297Y-50547906D01*
X-279901080Y-50522135D01*
X-279794868Y-50514586D01*
X-279530903Y-50623925D01*
X-279461137Y-50704365D01*
X-279435366Y-50766582D01*
X-281017865Y-50729600D02*
X-280762742Y-50113680D01*
X-280943677Y-51172669D02*
X-280450361Y-50603870D01*
X-281022286Y-50366971D01*
%TO.C,D41*%
X-149025652Y-75872458D02*
X-149408335Y-74948578D01*
X-149188364Y-74857463D01*
X-149038158Y-74846789D01*
X-148913723Y-74898331D01*
X-148833283Y-74968097D01*
X-148716397Y-75125851D01*
X-148661728Y-75257833D01*
X-148632830Y-75452033D01*
X-148640378Y-75558245D01*
X-148691920Y-75682680D01*
X-148805680Y-75781343D01*
X-149025652Y-75872458D01*
X-147960946Y-74709848D02*
X-147705824Y-75325767D01*
X-148326701Y-74449009D02*
X-148273327Y-75200038D01*
X-147701402Y-74963139D01*
X-146737950Y-74924861D02*
X-147265881Y-75143537D01*
X-147001915Y-75034199D02*
X-147384599Y-74110320D01*
X-147417918Y-74278748D01*
X-147469461Y-74403183D01*
X-147539226Y-74483623D01*
%TO.C,D18*%
X-161880484Y-57249284D02*
X-162263167Y-56325404D01*
X-162043196Y-56234289D01*
X-161892990Y-56223615D01*
X-161768555Y-56275157D01*
X-161688115Y-56344923D01*
X-161571229Y-56502677D01*
X-161516560Y-56634659D01*
X-161487662Y-56828859D01*
X-161495210Y-56935071D01*
X-161546752Y-57059506D01*
X-161660512Y-57158169D01*
X-161880484Y-57249284D01*
X-160472667Y-56666147D02*
X-161000598Y-56884824D01*
X-160736633Y-56775485D02*
X-161119316Y-55851606D01*
X-161152636Y-56020035D01*
X-161204178Y-56144469D01*
X-161273944Y-56224910D01*
X-160163412Y-55919540D02*
X-160269624Y-55911992D01*
X-160331841Y-55886220D01*
X-160412281Y-55816455D01*
X-160430504Y-55772461D01*
X-160422956Y-55666249D01*
X-160397185Y-55604032D01*
X-160327419Y-55523592D01*
X-160151442Y-55450700D01*
X-160045231Y-55458248D01*
X-159983013Y-55484019D01*
X-159902573Y-55553784D01*
X-159884350Y-55597779D01*
X-159891898Y-55703990D01*
X-159917670Y-55766208D01*
X-159987435Y-55846648D01*
X-160163412Y-55919540D01*
X-160233178Y-55999980D01*
X-160258949Y-56062198D01*
X-160266497Y-56168409D01*
X-160193605Y-56344386D01*
X-160113165Y-56414152D01*
X-160050947Y-56439923D01*
X-159944736Y-56447471D01*
X-159768759Y-56374579D01*
X-159698993Y-56294139D01*
X-159673222Y-56231921D01*
X-159665674Y-56125710D01*
X-159738566Y-55949733D01*
X-159819006Y-55879967D01*
X-159881224Y-55854196D01*
X-159987435Y-55846648D01*
%TO.C,D50*%
X-123579095Y-87656487D02*
X-123961778Y-86732607D01*
X-123741807Y-86641492D01*
X-123591601Y-86630818D01*
X-123467166Y-86682360D01*
X-123386726Y-86752126D01*
X-123269840Y-86909880D01*
X-123215171Y-87041862D01*
X-123186273Y-87236062D01*
X-123193821Y-87342274D01*
X-123245363Y-87466709D01*
X-123359123Y-87565372D01*
X-123579095Y-87656487D01*
X-122597956Y-86167694D02*
X-123037898Y-86349924D01*
X-122899662Y-86808090D01*
X-122873891Y-86745872D01*
X-122804126Y-86665432D01*
X-122584154Y-86574317D01*
X-122477943Y-86581865D01*
X-122415726Y-86607636D01*
X-122335285Y-86677402D01*
X-122244170Y-86897373D01*
X-122251718Y-87003585D01*
X-122277490Y-87065802D01*
X-122347255Y-87146242D01*
X-122567226Y-87237358D01*
X-122673438Y-87229809D01*
X-122735655Y-87204038D01*
X-121982036Y-85912572D02*
X-121894048Y-85876126D01*
X-121787836Y-85883674D01*
X-121725619Y-85909445D01*
X-121645178Y-85979210D01*
X-121528292Y-86136965D01*
X-121437177Y-86356936D01*
X-121408279Y-86551136D01*
X-121415827Y-86657347D01*
X-121441599Y-86719565D01*
X-121511364Y-86800005D01*
X-121599353Y-86836451D01*
X-121705564Y-86828903D01*
X-121767781Y-86803132D01*
X-121848222Y-86733366D01*
X-121965108Y-86575612D01*
X-122056223Y-86355641D01*
X-122085121Y-86161441D01*
X-122077573Y-86055229D01*
X-122051802Y-85993012D01*
X-121982036Y-85912572D01*
%TO.C,D29*%
X-156296638Y-58318746D02*
X-156679321Y-57394866D01*
X-156459350Y-57303751D01*
X-156309144Y-57293077D01*
X-156184709Y-57344619D01*
X-156104269Y-57414385D01*
X-155987383Y-57572139D01*
X-155932714Y-57704121D01*
X-155903816Y-57898321D01*
X-155911364Y-58004533D01*
X-155962906Y-58128968D01*
X-156076666Y-58227631D01*
X-156296638Y-58318746D01*
X-155762990Y-57118395D02*
X-155737218Y-57056177D01*
X-155667453Y-56975737D01*
X-155447482Y-56884622D01*
X-155341270Y-56892170D01*
X-155279053Y-56917941D01*
X-155198612Y-56987707D01*
X-155162166Y-57075695D01*
X-155151492Y-57225901D01*
X-155460747Y-57972509D01*
X-154888821Y-57735609D01*
X-154448878Y-57553379D02*
X-154272901Y-57480487D01*
X-154203136Y-57400047D01*
X-154177365Y-57337829D01*
X-154144045Y-57169401D01*
X-154172943Y-56975201D01*
X-154318727Y-56623246D01*
X-154399167Y-56553481D01*
X-154461385Y-56527710D01*
X-154567596Y-56520162D01*
X-154743573Y-56593054D01*
X-154813339Y-56673494D01*
X-154839110Y-56735711D01*
X-154846658Y-56841923D01*
X-154755543Y-57061894D01*
X-154675103Y-57131660D01*
X-154612886Y-57157431D01*
X-154506674Y-57164979D01*
X-154330697Y-57092087D01*
X-154260932Y-57011647D01*
X-154235160Y-56949429D01*
X-154227612Y-56843218D01*
%TO.C,D32*%
X-241637859Y-61178373D02*
X-242020543Y-62102253D01*
X-242240514Y-62011137D01*
X-242354274Y-61912474D01*
X-242405816Y-61788040D01*
X-242413364Y-61681828D01*
X-242384466Y-61487628D01*
X-242329797Y-61355645D01*
X-242212911Y-61197891D01*
X-242132471Y-61128126D01*
X-242008036Y-61076583D01*
X-241857830Y-61087258D01*
X-241637859Y-61178373D01*
X-242856434Y-61756015D02*
X-243428359Y-61519116D01*
X-242974615Y-61294723D01*
X-243106598Y-61240054D01*
X-243176363Y-61159614D01*
X-243202134Y-61097396D01*
X-243209683Y-60991185D01*
X-243118568Y-60771213D01*
X-243038127Y-60701448D01*
X-242975910Y-60675677D01*
X-242869698Y-60668128D01*
X-242605733Y-60777467D01*
X-242535967Y-60857907D01*
X-242510196Y-60920124D01*
X-243743867Y-61285343D02*
X-243806084Y-61311114D01*
X-243912296Y-61318663D01*
X-244132267Y-61227548D01*
X-244202033Y-61147107D01*
X-244227804Y-61084890D01*
X-244235352Y-60978678D01*
X-244198906Y-60890690D01*
X-244100243Y-60776930D01*
X-243353635Y-60467675D01*
X-243925561Y-60230776D01*
%TO.C,D15*%
X-126642455Y-30611492D02*
X-127025138Y-29687612D01*
X-126805167Y-29596497D01*
X-126654961Y-29585823D01*
X-126530526Y-29637365D01*
X-126450086Y-29707131D01*
X-126333200Y-29864885D01*
X-126278531Y-29996867D01*
X-126249633Y-30191067D01*
X-126257181Y-30297279D01*
X-126308723Y-30421714D01*
X-126422483Y-30520377D01*
X-126642455Y-30611492D01*
X-125234638Y-30028355D02*
X-125762569Y-30247032D01*
X-125498604Y-30137693D02*
X-125881287Y-29213814D01*
X-125914607Y-29382243D01*
X-125966149Y-29506677D01*
X-126035915Y-29587118D01*
X-124781431Y-28758238D02*
X-125221373Y-28940469D01*
X-125083137Y-29398634D01*
X-125057366Y-29336417D01*
X-124987600Y-29255977D01*
X-124767629Y-29164862D01*
X-124661418Y-29172410D01*
X-124599200Y-29198181D01*
X-124518760Y-29267947D01*
X-124427645Y-29487918D01*
X-124435193Y-29594129D01*
X-124460964Y-29656347D01*
X-124530730Y-29736787D01*
X-124750701Y-29827902D01*
X-124856913Y-29820354D01*
X-124919130Y-29794583D01*
%TO.C,D7*%
X-226161502Y-34981934D02*
X-226544185Y-35905813D01*
X-226764156Y-35814698D01*
X-226877916Y-35716035D01*
X-226929459Y-35591600D01*
X-226937007Y-35485389D01*
X-226908109Y-35291189D01*
X-226853440Y-35159206D01*
X-226736554Y-35001452D01*
X-226656113Y-34931686D01*
X-226531679Y-34880144D01*
X-226381473Y-34890819D01*
X-226161502Y-34981934D01*
X-227380076Y-35559576D02*
X-227995996Y-35304454D01*
X-227217364Y-34544581D01*
%TO.C,D31*%
X-240263529Y-70271587D02*
X-240646213Y-71195467D01*
X-240866184Y-71104351D01*
X-240979944Y-71005688D01*
X-241031486Y-70881254D01*
X-241039034Y-70775042D01*
X-241010136Y-70580842D01*
X-240955467Y-70448859D01*
X-240838581Y-70291105D01*
X-240758141Y-70221340D01*
X-240633706Y-70169797D01*
X-240483500Y-70180472D01*
X-240263529Y-70271587D01*
X-241482104Y-70849229D02*
X-242054029Y-70612330D01*
X-241600285Y-70387937D01*
X-241732268Y-70333268D01*
X-241802033Y-70252828D01*
X-241827804Y-70190610D01*
X-241835353Y-70084399D01*
X-241744238Y-69864427D01*
X-241663797Y-69794662D01*
X-241601580Y-69768891D01*
X-241495368Y-69761342D01*
X-241231403Y-69870681D01*
X-241161637Y-69951121D01*
X-241135866Y-70013338D01*
X-242551231Y-69323990D02*
X-242023300Y-69542666D01*
X-242287265Y-69433328D02*
X-242669949Y-70357208D01*
X-242527291Y-70261671D01*
X-242402856Y-70210128D01*
X-242296645Y-70202580D01*
%TO.C,R4*%
X-201297619Y-53916666D02*
X-201773809Y-54250000D01*
X-201297619Y-54488095D02*
X-202297619Y-54488095D01*
X-202297619Y-54107142D01*
X-202250000Y-54011904D01*
X-202202380Y-53964285D01*
X-202107142Y-53916666D01*
X-201964285Y-53916666D01*
X-201869047Y-53964285D01*
X-201821428Y-54011904D01*
X-201773809Y-54107142D01*
X-201773809Y-54488095D01*
X-201964285Y-53059523D02*
X-201297619Y-53059523D01*
X-202345238Y-53297619D02*
X-201630952Y-53535714D01*
X-201630952Y-52916666D01*
%TO.C,J1*%
X-198708333Y-28952380D02*
X-198708333Y-29666666D01*
X-198755952Y-29809523D01*
X-198851190Y-29904761D01*
X-198994047Y-29952380D01*
X-199089285Y-29952380D01*
X-197708333Y-29952380D02*
X-198279761Y-29952380D01*
X-197994047Y-29952380D02*
X-197994047Y-28952380D01*
X-198089285Y-29095238D01*
X-198184523Y-29190476D01*
X-198279761Y-29238095D01*
%TO.C,D27*%
X-119371467Y-48165203D02*
X-119754150Y-47241323D01*
X-119534179Y-47150208D01*
X-119383973Y-47139534D01*
X-119259538Y-47191076D01*
X-119179098Y-47260842D01*
X-119062212Y-47418596D01*
X-119007543Y-47550578D01*
X-118978645Y-47744778D01*
X-118986193Y-47850990D01*
X-119037735Y-47975425D01*
X-119151495Y-48074088D01*
X-119371467Y-48165203D01*
X-118837819Y-46964852D02*
X-118812047Y-46902634D01*
X-118742282Y-46822194D01*
X-118522311Y-46731079D01*
X-118416099Y-46738627D01*
X-118353882Y-46764398D01*
X-118273441Y-46834164D01*
X-118236995Y-46922152D01*
X-118226321Y-47072358D01*
X-118535576Y-47818966D01*
X-117963650Y-47582066D01*
X-118038374Y-46530626D02*
X-117422454Y-46275503D01*
X-117435719Y-47363390D01*
%TO.C,D28*%
X-138742926Y-51047760D02*
X-139125609Y-50123880D01*
X-138905638Y-50032765D01*
X-138755432Y-50022091D01*
X-138630997Y-50073633D01*
X-138550557Y-50143399D01*
X-138433671Y-50301153D01*
X-138379002Y-50433135D01*
X-138350104Y-50627335D01*
X-138357652Y-50733547D01*
X-138409194Y-50857982D01*
X-138522954Y-50956645D01*
X-138742926Y-51047760D01*
X-138209278Y-49847409D02*
X-138183506Y-49785191D01*
X-138113741Y-49704751D01*
X-137893770Y-49613636D01*
X-137787558Y-49621184D01*
X-137725341Y-49646955D01*
X-137644900Y-49716721D01*
X-137608454Y-49804709D01*
X-137597780Y-49954915D01*
X-137907035Y-50701523D01*
X-137335109Y-50464623D01*
X-137025854Y-49718016D02*
X-137132066Y-49710468D01*
X-137194283Y-49684696D01*
X-137274723Y-49614931D01*
X-137292946Y-49570937D01*
X-137285398Y-49464725D01*
X-137259627Y-49402508D01*
X-137189861Y-49322068D01*
X-137013884Y-49249176D01*
X-136907673Y-49256724D01*
X-136845455Y-49282495D01*
X-136765015Y-49352260D01*
X-136746792Y-49396255D01*
X-136754340Y-49502466D01*
X-136780112Y-49564684D01*
X-136849877Y-49645124D01*
X-137025854Y-49718016D01*
X-137095620Y-49798456D01*
X-137121391Y-49860674D01*
X-137128939Y-49966885D01*
X-137056047Y-50142862D01*
X-136975607Y-50212628D01*
X-136913389Y-50238399D01*
X-136807178Y-50245947D01*
X-136631201Y-50173055D01*
X-136561435Y-50092615D01*
X-136535664Y-50030397D01*
X-136528116Y-49924186D01*
X-136601008Y-49748209D01*
X-136681448Y-49678443D01*
X-136743666Y-49652672D01*
X-136849877Y-49645124D01*
%TO.C,D13*%
X-89717285Y-20457949D02*
X-90099968Y-19534069D01*
X-89879997Y-19442954D01*
X-89729791Y-19432280D01*
X-89605356Y-19483822D01*
X-89524916Y-19553588D01*
X-89408030Y-19711342D01*
X-89353361Y-19843324D01*
X-89324463Y-20037524D01*
X-89332011Y-20143736D01*
X-89383553Y-20268171D01*
X-89497313Y-20366834D01*
X-89717285Y-20457949D01*
X-88309468Y-19874812D02*
X-88837399Y-20093489D01*
X-88573434Y-19984150D02*
X-88956117Y-19060271D01*
X-88989437Y-19228700D01*
X-89040979Y-19353134D01*
X-89110745Y-19433575D01*
X-88384192Y-18823372D02*
X-87812266Y-18586472D01*
X-87974442Y-19065988D01*
X-87842459Y-19011319D01*
X-87736248Y-19018867D01*
X-87674030Y-19044638D01*
X-87593590Y-19114404D01*
X-87502475Y-19334375D01*
X-87510023Y-19440586D01*
X-87535794Y-19502804D01*
X-87605560Y-19583244D01*
X-87869525Y-19692582D01*
X-87975737Y-19685034D01*
X-88037954Y-19659263D01*
%TO.C,D40*%
X-131471941Y-68601472D02*
X-131854624Y-67677592D01*
X-131634653Y-67586477D01*
X-131484447Y-67575803D01*
X-131360012Y-67627345D01*
X-131279572Y-67697111D01*
X-131162686Y-67854865D01*
X-131108017Y-67986847D01*
X-131079119Y-68181047D01*
X-131086667Y-68287259D01*
X-131138209Y-68411694D01*
X-131251969Y-68510357D01*
X-131471941Y-68601472D01*
X-130407235Y-67438862D02*
X-130152113Y-68054781D01*
X-130772990Y-67178023D02*
X-130719616Y-67929052D01*
X-130147691Y-67692153D01*
X-129874882Y-66857557D02*
X-129786894Y-66821111D01*
X-129680682Y-66828659D01*
X-129618465Y-66854430D01*
X-129538024Y-66924195D01*
X-129421138Y-67081950D01*
X-129330023Y-67301921D01*
X-129301125Y-67496121D01*
X-129308673Y-67602332D01*
X-129334445Y-67664550D01*
X-129404210Y-67744990D01*
X-129492199Y-67781436D01*
X-129598410Y-67773888D01*
X-129660627Y-67748117D01*
X-129741068Y-67678351D01*
X-129857954Y-67520597D01*
X-129949069Y-67300626D01*
X-129977967Y-67106426D01*
X-129970419Y-67000214D01*
X-129944648Y-66937997D01*
X-129874882Y-66857557D01*
%TO.C,D12*%
X-300946225Y-5763865D02*
X-301328909Y-6687745D01*
X-301548880Y-6596629D01*
X-301662640Y-6497966D01*
X-301714182Y-6373532D01*
X-301721730Y-6267320D01*
X-301692832Y-6073120D01*
X-301638163Y-5941137D01*
X-301521277Y-5783383D01*
X-301440837Y-5713618D01*
X-301316402Y-5662075D01*
X-301166196Y-5672750D01*
X-300946225Y-5763865D01*
X-302354042Y-5180728D02*
X-301826110Y-5399405D01*
X-302090076Y-5290066D02*
X-302472759Y-6213946D01*
X-302330102Y-6118409D01*
X-302205667Y-6066867D01*
X-302099456Y-6059319D01*
X-303052233Y-5870835D02*
X-303114450Y-5896606D01*
X-303220662Y-5904155D01*
X-303440633Y-5813040D01*
X-303510399Y-5732599D01*
X-303536170Y-5670382D01*
X-303543718Y-5564170D01*
X-303507272Y-5476182D01*
X-303408609Y-5362422D01*
X-302662001Y-5053167D01*
X-303233927Y-4816268D01*
%TO.C,D24*%
X-308217211Y-23317576D02*
X-308599895Y-24241456D01*
X-308819866Y-24150340D01*
X-308933626Y-24051677D01*
X-308985168Y-23927243D01*
X-308992716Y-23821031D01*
X-308963818Y-23626831D01*
X-308909149Y-23494848D01*
X-308792263Y-23337094D01*
X-308711823Y-23267329D01*
X-308587388Y-23215786D01*
X-308437182Y-23226461D01*
X-308217211Y-23317576D01*
X-309443334Y-23789007D02*
X-309505551Y-23814778D01*
X-309611763Y-23822326D01*
X-309831734Y-23731211D01*
X-309901499Y-23650771D01*
X-309927271Y-23588553D01*
X-309934819Y-23482342D01*
X-309898373Y-23394353D01*
X-309799710Y-23280594D01*
X-309053102Y-22971339D01*
X-309625028Y-22734439D01*
X-310672047Y-23022345D02*
X-310416924Y-22406425D01*
X-310597859Y-23465414D02*
X-310104543Y-22896615D01*
X-310676468Y-22659716D01*
%TO.C,D58*%
X-252831350Y-88201850D02*
X-253214034Y-89125730D01*
X-253434005Y-89034614D01*
X-253547765Y-88935951D01*
X-253599307Y-88811517D01*
X-253606855Y-88705305D01*
X-253577957Y-88511105D01*
X-253523288Y-88379122D01*
X-253406402Y-88221368D01*
X-253325962Y-88151603D01*
X-253201527Y-88100060D01*
X-253051321Y-88110735D01*
X-252831350Y-88201850D01*
X-254577856Y-88560816D02*
X-254137913Y-88743046D01*
X-253911689Y-88321327D01*
X-253973906Y-88347098D01*
X-254080117Y-88354646D01*
X-254300089Y-88263531D01*
X-254369854Y-88183091D01*
X-254395625Y-88120873D01*
X-254403174Y-88014662D01*
X-254312059Y-87794690D01*
X-254231618Y-87724925D01*
X-254169401Y-87699154D01*
X-254063189Y-87691605D01*
X-253843218Y-87782721D01*
X-253773453Y-87863161D01*
X-253747681Y-87925378D01*
X-254985774Y-87927968D02*
X-254916008Y-88008409D01*
X-254890237Y-88070626D01*
X-254882689Y-88176837D01*
X-254900912Y-88220832D01*
X-254981352Y-88290597D01*
X-255043570Y-88316368D01*
X-255149781Y-88323917D01*
X-255325758Y-88251025D01*
X-255395524Y-88170584D01*
X-255421295Y-88108367D01*
X-255428843Y-88002155D01*
X-255410620Y-87958161D01*
X-255330180Y-87888396D01*
X-255267963Y-87862624D01*
X-255161751Y-87855076D01*
X-254985774Y-87927968D01*
X-254879562Y-87920420D01*
X-254817345Y-87894649D01*
X-254736905Y-87824883D01*
X-254664013Y-87648906D01*
X-254671561Y-87542695D01*
X-254697332Y-87480477D01*
X-254767098Y-87400037D01*
X-254943075Y-87327145D01*
X-255049286Y-87334693D01*
X-255111504Y-87360464D01*
X-255191944Y-87430230D01*
X-255264836Y-87606207D01*
X-255257288Y-87712419D01*
X-255231516Y-87774636D01*
X-255161751Y-87855076D01*
%TO.C,D20*%
X-234366874Y-43624662D02*
X-234749558Y-44548542D01*
X-234969529Y-44457426D01*
X-235083289Y-44358763D01*
X-235134831Y-44234329D01*
X-235142379Y-44128117D01*
X-235113481Y-43933917D01*
X-235058812Y-43801934D01*
X-234941926Y-43644180D01*
X-234861486Y-43574415D01*
X-234737051Y-43522872D01*
X-234586845Y-43533547D01*
X-234366874Y-43624662D01*
X-235592997Y-44096093D02*
X-235655214Y-44121864D01*
X-235761426Y-44129412D01*
X-235981397Y-44038297D01*
X-236051162Y-43957857D01*
X-236076934Y-43895639D01*
X-236084482Y-43789428D01*
X-236048036Y-43701439D01*
X-235949373Y-43587680D01*
X-235202765Y-43278425D01*
X-235774691Y-43041525D01*
X-236729299Y-43728506D02*
X-236817288Y-43692060D01*
X-236887053Y-43611619D01*
X-236912825Y-43549402D01*
X-236920373Y-43443190D01*
X-236891475Y-43248990D01*
X-236800360Y-43029019D01*
X-236683474Y-42871265D01*
X-236603033Y-42801500D01*
X-236540816Y-42775728D01*
X-236434604Y-42768180D01*
X-236346616Y-42804626D01*
X-236276850Y-42885066D01*
X-236251079Y-42947284D01*
X-236243531Y-43053495D01*
X-236272429Y-43247695D01*
X-236363544Y-43467667D01*
X-236480430Y-43625421D01*
X-236560871Y-43695186D01*
X-236623088Y-43720957D01*
X-236729299Y-43728506D01*
%TO.C,D47*%
X-305205470Y-65695984D02*
X-305588154Y-66619864D01*
X-305808125Y-66528748D01*
X-305921885Y-66430085D01*
X-305973427Y-66305651D01*
X-305980975Y-66199439D01*
X-305952077Y-66005239D01*
X-305897408Y-65873256D01*
X-305780522Y-65715502D01*
X-305700082Y-65645737D01*
X-305575647Y-65594194D01*
X-305425441Y-65604869D01*
X-305205470Y-65695984D01*
X-306780420Y-65765213D02*
X-306525298Y-65149293D01*
X-306706233Y-66208282D02*
X-306212916Y-65639483D01*
X-306784842Y-65402584D01*
X-307303930Y-65909166D02*
X-307919849Y-65654043D01*
X-307141218Y-64894171D01*
%TO.C,D56*%
X-217347459Y-108041119D02*
X-217730143Y-108964999D01*
X-217950114Y-108873883D01*
X-218063874Y-108775220D01*
X-218115416Y-108650786D01*
X-218122964Y-108544574D01*
X-218094066Y-108350374D01*
X-218039397Y-108218391D01*
X-217922511Y-108060637D01*
X-217842071Y-107990872D01*
X-217717636Y-107939329D01*
X-217567430Y-107950004D01*
X-217347459Y-108041119D01*
X-219093965Y-108400085D02*
X-218654022Y-108582315D01*
X-218427798Y-108160596D01*
X-218490015Y-108186367D01*
X-218596226Y-108193915D01*
X-218816198Y-108102800D01*
X-218885963Y-108022360D01*
X-218911734Y-107960142D01*
X-218919283Y-107853931D01*
X-218828168Y-107633959D01*
X-218747727Y-107564194D01*
X-218685510Y-107538423D01*
X-218579298Y-107530874D01*
X-218359327Y-107621990D01*
X-218289562Y-107702430D01*
X-218263790Y-107764647D01*
X-219929856Y-108053848D02*
X-219753879Y-108126740D01*
X-219647667Y-108119191D01*
X-219585450Y-108093420D01*
X-219442792Y-107997883D01*
X-219325906Y-107840129D01*
X-219180122Y-107488175D01*
X-219187670Y-107381964D01*
X-219213441Y-107319746D01*
X-219283207Y-107239306D01*
X-219459184Y-107166414D01*
X-219565395Y-107173962D01*
X-219627613Y-107199733D01*
X-219708053Y-107269499D01*
X-219799168Y-107489470D01*
X-219791620Y-107595682D01*
X-219765849Y-107657899D01*
X-219696083Y-107738339D01*
X-219520106Y-107811232D01*
X-219413894Y-107803683D01*
X-219351677Y-107777912D01*
X-219271237Y-107708147D01*
%TO.C,C4*%
X-202362856Y-67966666D02*
X-202315237Y-68014285D01*
X-202267618Y-68157142D01*
X-202267618Y-68252380D01*
X-202315237Y-68395238D01*
X-202410475Y-68490476D01*
X-202505713Y-68538095D01*
X-202696189Y-68585714D01*
X-202839046Y-68585714D01*
X-203029522Y-68538095D01*
X-203124760Y-68490476D01*
X-203219999Y-68395238D01*
X-203267618Y-68252380D01*
X-203267618Y-68157142D01*
X-203219999Y-68014285D01*
X-203172379Y-67966666D01*
X-202934284Y-67109523D02*
X-202267618Y-67109523D01*
X-203315237Y-67347619D02*
X-202600951Y-67585714D01*
X-202600951Y-66966666D01*
%TO.C,D53*%
X-177525569Y-112572529D02*
X-177908252Y-111648649D01*
X-177688281Y-111557534D01*
X-177538075Y-111546860D01*
X-177413640Y-111598402D01*
X-177333200Y-111668168D01*
X-177216314Y-111825922D01*
X-177161645Y-111957904D01*
X-177132747Y-112152104D01*
X-177140295Y-112258316D01*
X-177191837Y-112382751D01*
X-177305597Y-112481414D01*
X-177525569Y-112572529D01*
X-176544430Y-111083736D02*
X-176984372Y-111265966D01*
X-176846136Y-111724132D01*
X-176820365Y-111661914D01*
X-176750600Y-111581474D01*
X-176530628Y-111490359D01*
X-176424417Y-111497907D01*
X-176362200Y-111523678D01*
X-176281759Y-111593444D01*
X-176190644Y-111813415D01*
X-176198192Y-111919627D01*
X-176223964Y-111981844D01*
X-176293729Y-112062284D01*
X-176513700Y-112153400D01*
X-176619912Y-112145851D01*
X-176682129Y-112120080D01*
X-176192476Y-110937952D02*
X-175620550Y-110701052D01*
X-175782726Y-111180568D01*
X-175650743Y-111125899D01*
X-175544532Y-111133447D01*
X-175482314Y-111159218D01*
X-175401874Y-111228984D01*
X-175310759Y-111448955D01*
X-175318307Y-111555166D01*
X-175344078Y-111617384D01*
X-175413844Y-111697824D01*
X-175677809Y-111807162D01*
X-175784021Y-111799614D01*
X-175846238Y-111773843D01*
%TO.C,D10*%
X-264021057Y-15917408D02*
X-264403741Y-16841288D01*
X-264623712Y-16750172D01*
X-264737472Y-16651509D01*
X-264789014Y-16527075D01*
X-264796562Y-16420863D01*
X-264767664Y-16226663D01*
X-264712995Y-16094680D01*
X-264596109Y-15936926D01*
X-264515669Y-15867161D01*
X-264391234Y-15815618D01*
X-264241028Y-15826293D01*
X-264021057Y-15917408D01*
X-265428874Y-15334271D02*
X-264900942Y-15552948D01*
X-265164908Y-15443609D02*
X-265547591Y-16367489D01*
X-265404934Y-16271952D01*
X-265280499Y-16220410D01*
X-265174288Y-16212862D01*
X-266383482Y-16021252D02*
X-266471471Y-15984806D01*
X-266541236Y-15904365D01*
X-266567008Y-15842148D01*
X-266574556Y-15735936D01*
X-266545658Y-15541736D01*
X-266454543Y-15321765D01*
X-266337657Y-15164011D01*
X-266257216Y-15094246D01*
X-266194999Y-15068474D01*
X-266088787Y-15060926D01*
X-266000799Y-15097372D01*
X-265931033Y-15177812D01*
X-265905262Y-15240030D01*
X-265897714Y-15346241D01*
X-265926612Y-15540441D01*
X-266017727Y-15760413D01*
X-266134613Y-15918167D01*
X-266215054Y-15987932D01*
X-266277271Y-16013703D01*
X-266383482Y-16021252D01*
%TO.C,D35*%
X-297934485Y-48142273D02*
X-298317169Y-49066153D01*
X-298537140Y-48975037D01*
X-298650900Y-48876374D01*
X-298702442Y-48751940D01*
X-298709990Y-48645728D01*
X-298681092Y-48451528D01*
X-298626423Y-48319545D01*
X-298509537Y-48161791D01*
X-298429097Y-48092026D01*
X-298304662Y-48040483D01*
X-298154456Y-48051158D01*
X-297934485Y-48142273D01*
X-299153060Y-48719915D02*
X-299724985Y-48483016D01*
X-299271241Y-48258623D01*
X-299403224Y-48203954D01*
X-299472989Y-48123514D01*
X-299498760Y-48061296D01*
X-299506309Y-47955085D01*
X-299415194Y-47735113D01*
X-299334753Y-47665348D01*
X-299272536Y-47639577D01*
X-299166324Y-47632028D01*
X-298902359Y-47741367D01*
X-298832593Y-47821807D01*
X-298806822Y-47884024D01*
X-300560876Y-48136779D02*
X-300120933Y-48319009D01*
X-299894709Y-47897289D01*
X-299956926Y-47923060D01*
X-300063138Y-47930609D01*
X-300283109Y-47839493D01*
X-300352875Y-47759053D01*
X-300378646Y-47696836D01*
X-300386194Y-47590624D01*
X-300295079Y-47370653D01*
X-300214639Y-47300887D01*
X-300152421Y-47275116D01*
X-300046210Y-47267568D01*
X-299826238Y-47358683D01*
X-299756473Y-47439123D01*
X-299730702Y-47501341D01*
%TO.C,R1*%
X-201166666Y-37452380D02*
X-201500000Y-36976190D01*
X-201738095Y-37452380D02*
X-201738095Y-36452380D01*
X-201357142Y-36452380D01*
X-201261904Y-36500000D01*
X-201214285Y-36547619D01*
X-201166666Y-36642857D01*
X-201166666Y-36785714D01*
X-201214285Y-36880952D01*
X-201261904Y-36928571D01*
X-201357142Y-36976190D01*
X-201738095Y-36976190D01*
X-200214285Y-37452380D02*
X-200785714Y-37452380D01*
X-200500000Y-37452380D02*
X-200500000Y-36452380D01*
X-200595238Y-36595238D01*
X-200690476Y-36690476D01*
X-200785714Y-36738095D01*
%TO.C,D26*%
X-100000011Y-45282646D02*
X-100382694Y-44358766D01*
X-100162723Y-44267651D01*
X-100012517Y-44256977D01*
X-99888082Y-44308519D01*
X-99807642Y-44378285D01*
X-99690756Y-44536039D01*
X-99636087Y-44668021D01*
X-99607189Y-44862221D01*
X-99614737Y-44968433D01*
X-99666279Y-45092868D01*
X-99780039Y-45191531D01*
X-100000011Y-45282646D01*
X-99466363Y-44082295D02*
X-99440591Y-44020077D01*
X-99370826Y-43939637D01*
X-99150855Y-43848522D01*
X-99044643Y-43856070D01*
X-98982426Y-43881841D01*
X-98901985Y-43951607D01*
X-98865539Y-44039595D01*
X-98854865Y-44189801D01*
X-99164120Y-44936409D01*
X-98592194Y-44699509D01*
X-98182981Y-43447615D02*
X-98358958Y-43520508D01*
X-98428723Y-43600948D01*
X-98454495Y-43663165D01*
X-98487814Y-43831594D01*
X-98458916Y-44025794D01*
X-98313132Y-44377748D01*
X-98232692Y-44447514D01*
X-98170474Y-44473285D01*
X-98064263Y-44480833D01*
X-97888286Y-44407941D01*
X-97818520Y-44327501D01*
X-97792749Y-44265283D01*
X-97785201Y-44159072D01*
X-97876316Y-43939101D01*
X-97956756Y-43869335D01*
X-98018974Y-43843564D01*
X-98125185Y-43836016D01*
X-98301162Y-43908908D01*
X-98370928Y-43989348D01*
X-98396699Y-44051565D01*
X-98404247Y-44157777D01*
%TO.C,D25*%
X-82446300Y-38011660D02*
X-82828983Y-37087780D01*
X-82609012Y-36996665D01*
X-82458806Y-36985991D01*
X-82334371Y-37037533D01*
X-82253931Y-37107299D01*
X-82137045Y-37265053D01*
X-82082376Y-37397035D01*
X-82053478Y-37591235D01*
X-82061026Y-37697447D01*
X-82112568Y-37821882D01*
X-82226328Y-37920545D01*
X-82446300Y-38011660D01*
X-81912652Y-36811309D02*
X-81886880Y-36749091D01*
X-81817115Y-36668651D01*
X-81597144Y-36577536D01*
X-81490932Y-36585084D01*
X-81428715Y-36610855D01*
X-81348274Y-36680621D01*
X-81311828Y-36768609D01*
X-81301154Y-36918815D01*
X-81610409Y-37665423D01*
X-81038483Y-37428523D01*
X-80585276Y-36158406D02*
X-81025218Y-36340637D01*
X-80886982Y-36798802D01*
X-80861211Y-36736585D01*
X-80791445Y-36656145D01*
X-80571474Y-36565030D01*
X-80465263Y-36572578D01*
X-80403045Y-36598349D01*
X-80322605Y-36668115D01*
X-80231490Y-36888086D01*
X-80239038Y-36994297D01*
X-80264809Y-37056515D01*
X-80334575Y-37136955D01*
X-80554546Y-37228070D01*
X-80660758Y-37220522D01*
X-80722975Y-37194751D01*
%TO.C,U1*%
X-202297619Y-50161904D02*
X-201488095Y-50161904D01*
X-201392857Y-50114285D01*
X-201345238Y-50066666D01*
X-201297619Y-49971428D01*
X-201297619Y-49780952D01*
X-201345238Y-49685714D01*
X-201392857Y-49638095D01*
X-201488095Y-49590476D01*
X-202297619Y-49590476D01*
X-201297619Y-48590476D02*
X-201297619Y-49161904D01*
X-201297619Y-48876190D02*
X-202297619Y-48876190D01*
X-202154761Y-48971428D01*
X-202059523Y-49066666D01*
X-202011904Y-49161904D01*
%TO.C,U2*%
X-192511904Y-51952380D02*
X-192511904Y-52761904D01*
X-192464285Y-52857142D01*
X-192416666Y-52904761D01*
X-192321428Y-52952380D01*
X-192130952Y-52952380D01*
X-192035714Y-52904761D01*
X-191988095Y-52857142D01*
X-191940476Y-52761904D01*
X-191940476Y-51952380D01*
X-191511904Y-52047619D02*
X-191464285Y-52000000D01*
X-191369047Y-51952380D01*
X-191130952Y-51952380D01*
X-191035714Y-52000000D01*
X-190988095Y-52047619D01*
X-190940476Y-52142857D01*
X-190940476Y-52238095D01*
X-190988095Y-52380952D01*
X-191559523Y-52952380D01*
X-190940476Y-52952380D01*
%TO.C,D11*%
X-283392515Y-13034850D02*
X-283775199Y-13958730D01*
X-283995170Y-13867614D01*
X-284108930Y-13768951D01*
X-284160472Y-13644517D01*
X-284168020Y-13538305D01*
X-284139122Y-13344105D01*
X-284084453Y-13212122D01*
X-283967567Y-13054368D01*
X-283887127Y-12984603D01*
X-283762692Y-12933060D01*
X-283612486Y-12943735D01*
X-283392515Y-13034850D01*
X-284800332Y-12451713D02*
X-284272400Y-12670390D01*
X-284536366Y-12561051D02*
X-284919049Y-13484931D01*
X-284776392Y-13389394D01*
X-284651957Y-13337852D01*
X-284545746Y-13330304D01*
X-285680217Y-12087253D02*
X-285152286Y-12305929D01*
X-285416251Y-12196591D02*
X-285798935Y-13120471D01*
X-285656277Y-13024934D01*
X-285531842Y-12973391D01*
X-285425631Y-12965843D01*
%TO.C,D14*%
X-107270997Y-27728934D02*
X-107653680Y-26805054D01*
X-107433709Y-26713939D01*
X-107283503Y-26703265D01*
X-107159068Y-26754807D01*
X-107078628Y-26824573D01*
X-106961742Y-26982327D01*
X-106907073Y-27114309D01*
X-106878175Y-27308509D01*
X-106885723Y-27414721D01*
X-106937265Y-27539156D01*
X-107051025Y-27637819D01*
X-107270997Y-27728934D01*
X-105863180Y-27145797D02*
X-106391111Y-27364474D01*
X-106127146Y-27255135D02*
X-106509829Y-26331256D01*
X-106543149Y-26499685D01*
X-106594691Y-26624119D01*
X-106664457Y-26704560D01*
X-105326406Y-26201863D02*
X-105071283Y-26817783D01*
X-105692161Y-25941024D02*
X-105638787Y-26692053D01*
X-105066862Y-26455154D01*
%TO.C,R2*%
X-196166665Y-37452381D02*
X-196499999Y-36976191D01*
X-196738094Y-37452381D02*
X-196738094Y-36452381D01*
X-196357141Y-36452381D01*
X-196261903Y-36500001D01*
X-196214284Y-36547620D01*
X-196166665Y-36642858D01*
X-196166665Y-36785715D01*
X-196214284Y-36880953D01*
X-196261903Y-36928572D01*
X-196357141Y-36976191D01*
X-196738094Y-36976191D01*
X-195785713Y-36547620D02*
X-195738094Y-36500001D01*
X-195642856Y-36452381D01*
X-195404760Y-36452381D01*
X-195309522Y-36500001D01*
X-195261903Y-36547620D01*
X-195214284Y-36642858D01*
X-195214284Y-36738096D01*
X-195261903Y-36880953D01*
X-195833332Y-37452381D01*
X-195214284Y-37452381D01*
D12*
%TO.C,D44*%
X-247742405Y-78622500D02*
X-251345536Y-77130035D01*
X-247742405Y-78622500D02*
X-246977039Y-76774741D01*
X-246977039Y-76774741D02*
X-250580169Y-75282276D01*
%TO.C,D48*%
X-321592743Y-58315416D02*
X-320827377Y-56467657D01*
X-320827377Y-56467657D02*
X-324430507Y-54975192D01*
X-321592743Y-58315416D02*
X-325195874Y-56822951D01*
%TO.C,D4*%
X-153266839Y-18690383D02*
X-149663708Y-17197918D01*
X-154032205Y-16842624D02*
X-150429075Y-15350159D01*
X-154032205Y-16842624D02*
X-153266839Y-18690383D01*
%TO.C,D38*%
X-92710970Y-65586400D02*
X-89107839Y-64093935D01*
X-93476336Y-63738641D02*
X-92710970Y-65586400D01*
X-93476336Y-63738641D02*
X-89873206Y-62246176D01*
%TO.C,D6*%
X-167272055Y-35180265D02*
X-170875186Y-36672730D01*
X-166506689Y-37028024D02*
X-170109819Y-38520489D01*
X-166506689Y-37028024D02*
X-167272055Y-35180265D01*
%TO.C,D22*%
X-269360235Y-31513777D02*
X-272963365Y-30021312D01*
X-270125601Y-33361536D02*
X-269360235Y-31513777D01*
X-270125601Y-33361536D02*
X-273728732Y-31869071D01*
%TO.C,D39*%
X-112847793Y-66621200D02*
X-109244663Y-65128735D01*
X-112082427Y-68468959D02*
X-108479296Y-66976494D01*
X-112847793Y-66621200D02*
X-112082427Y-68468959D01*
%TO.C,D37*%
X-75922624Y-56467656D02*
X-75157258Y-58315415D01*
X-75922624Y-56467656D02*
X-72319494Y-54975191D01*
X-75157258Y-58315415D02*
X-71554127Y-56822950D01*
%TO.C,D21*%
X-250754145Y-36244093D02*
X-249988779Y-34396334D01*
X-249988779Y-34396334D02*
X-253591909Y-32903869D01*
X-250754145Y-36244093D02*
X-254357276Y-34751628D01*
%TO.C,D52*%
X-157859484Y-95142481D02*
X-158624850Y-93294722D01*
X-158624850Y-93294722D02*
X-162227981Y-94787187D01*
X-157859484Y-95142481D02*
X-161462614Y-96634946D01*
%TO.C,D16*%
X-146761222Y-34396334D02*
X-143158092Y-32903869D01*
X-145995856Y-36244093D02*
X-142392725Y-34751628D01*
X-146761222Y-34396334D02*
X-145995856Y-36244093D01*
%TO.C,C2*%
X-192609420Y-58260000D02*
X-192890580Y-58260000D01*
X-192609420Y-57240000D02*
X-192890580Y-57240000D01*
%TO.C,D30*%
X-151964719Y-72135447D02*
X-152730085Y-70287688D01*
X-151964719Y-72135447D02*
X-155567849Y-73627912D01*
X-152730085Y-70287688D02*
X-156333216Y-71780153D01*
%TO.C,D51*%
X-139396433Y-90065625D02*
X-142999563Y-91558090D01*
X-140161799Y-88217866D02*
X-143764930Y-89710331D01*
X-139396433Y-90065625D02*
X-140161799Y-88217866D01*
%TO.C,SW61*%
X-206750000Y-68750000D02*
X-206750000Y-66750000D01*
X-211200000Y-70050000D02*
X-210750000Y-70500000D01*
X-207800000Y-65450000D02*
X-208250000Y-65000000D01*
X-208250000Y-65000000D02*
X-210750000Y-65000000D01*
X-211200000Y-65450000D02*
X-210750000Y-65000000D01*
X-208250000Y-70500000D02*
X-210750000Y-70500000D01*
X-212250000Y-68750000D02*
X-212250000Y-66750000D01*
X-207800000Y-70050000D02*
X-208250000Y-70500000D01*
%TO.C,D55*%
X-230854632Y-75740926D02*
X-227251501Y-77233391D01*
X-231619998Y-77588685D02*
X-228016868Y-79081150D01*
X-230854632Y-75740926D02*
X-231619998Y-77588685D01*
%TO.C,R6*%
X-215522500Y-64762742D02*
X-215522500Y-65237258D01*
X-214477500Y-64762742D02*
X-214477500Y-65237258D01*
%TO.C,D2*%
X-115289292Y-11077509D02*
X-111686162Y-9585044D01*
X-114523926Y-12925268D02*
X-110920795Y-11432803D01*
X-115289292Y-11077509D02*
X-114523926Y-12925268D01*
%TO.C,D3*%
X-133895382Y-15807826D02*
X-130292251Y-14315361D01*
X-134660748Y-13960067D02*
X-131057618Y-12467602D01*
X-134660748Y-13960067D02*
X-133895382Y-15807826D01*
%TO.C,D5*%
X-171585917Y-24113608D02*
X-170820551Y-25961367D01*
X-171585917Y-24113608D02*
X-167982787Y-22621143D01*
X-170820551Y-25961367D02*
X-167217420Y-24468902D01*
%TO.C,D60*%
X-293512904Y-78064408D02*
X-289909773Y-79556873D01*
X-294278270Y-79912167D02*
X-290675140Y-81404632D01*
X-293512904Y-78064408D02*
X-294278270Y-79912167D01*
%TO.C,D49*%
X-103237096Y-78064408D02*
X-106840227Y-79556873D01*
X-102471730Y-79912167D02*
X-103237096Y-78064408D01*
X-102471730Y-79912167D02*
X-106074860Y-81404632D01*
%TO.C,R3*%
X-200772500Y-53987258D02*
X-200772500Y-53512742D01*
X-199727500Y-53987258D02*
X-199727500Y-53512742D01*
%TO.C,D54*%
X-165130002Y-77588685D02*
X-168733132Y-79081150D01*
X-165895368Y-75740926D02*
X-169498499Y-77233391D01*
X-165130002Y-77588685D02*
X-165895368Y-75740926D01*
%TO.C,D46*%
X-284667573Y-68468959D02*
X-288270704Y-66976494D01*
X-283902207Y-66621200D02*
X-287505337Y-65128735D01*
X-284667573Y-68468959D02*
X-283902207Y-66621200D01*
%TO.C,D43*%
X-231039174Y-79452859D02*
X-232531639Y-83055989D01*
X-229191415Y-80218225D02*
X-230683880Y-83821356D01*
X-229191415Y-80218225D02*
X-231039174Y-79452859D01*
%TO.C,D59*%
X-275050319Y-83141179D02*
X-275815685Y-84988938D01*
X-275815685Y-84988938D02*
X-272212555Y-86481403D01*
X-275050319Y-83141179D02*
X-271447188Y-84633644D01*
%TO.C,D36*%
X-314321756Y-40761704D02*
X-317924887Y-39269239D01*
X-313556390Y-38913945D02*
X-317159520Y-37421480D01*
X-314321756Y-40761704D02*
X-313556390Y-38913945D01*
%TO.C,C3*%
X-195240000Y-54659420D02*
X-195240000Y-54940580D01*
X-196260000Y-54659420D02*
X-196260000Y-54940580D01*
%TO.C,D1*%
X-96970215Y-5654282D02*
X-93367084Y-4161817D01*
X-97735581Y-3806523D02*
X-96970215Y-5654282D01*
X-97735581Y-3806523D02*
X-94132451Y-2314058D01*
%TO.C,D19*%
X-236748930Y-52733976D02*
X-233145799Y-54226441D01*
X-237514296Y-54581735D02*
X-233911166Y-56074200D01*
X-236748930Y-52733976D02*
X-237514296Y-54581735D01*
%TO.C,R5*%
X-198237258Y-70772500D02*
X-197762742Y-70772500D01*
X-198237258Y-69727500D02*
X-197762742Y-69727500D01*
%TO.C,D8*%
X-225929448Y-25961369D02*
X-225164082Y-24113610D01*
X-225929448Y-25961369D02*
X-229532579Y-24468904D01*
X-225164082Y-24113610D02*
X-228767212Y-22621145D01*
%TO.C,D17*%
X-164314932Y-41667320D02*
X-163549566Y-43515079D01*
X-164314932Y-41667320D02*
X-160711802Y-40174855D01*
X-163549566Y-43515079D02*
X-159946435Y-42022614D01*
%TO.C,D23*%
X-288731692Y-28631220D02*
X-292334822Y-27138755D01*
X-289497058Y-30478979D02*
X-293100189Y-28986514D01*
X-289497058Y-30478979D02*
X-288731692Y-28631220D01*
%TO.C,D33*%
X-258025130Y-53797804D02*
X-257259764Y-51950045D01*
X-258025130Y-53797804D02*
X-261628261Y-52305339D01*
X-257259764Y-51950045D02*
X-260862894Y-50457580D01*
%TO.C,D42*%
X-165454006Y-80072875D02*
X-167301765Y-80838241D01*
X-165454006Y-80072875D02*
X-163961541Y-83676005D01*
X-167301765Y-80838241D02*
X-165809300Y-84441372D01*
%TO.C,D57*%
X-238125150Y-93294722D02*
X-238890516Y-95142481D01*
X-238125150Y-93294722D02*
X-234522019Y-94787187D01*
X-238890516Y-95142481D02*
X-235287386Y-96634946D01*
%TO.C,C1*%
X-192890580Y-50760000D02*
X-192609420Y-50760000D01*
X-192890580Y-49740000D02*
X-192609420Y-49740000D01*
%TO.C,U3*%
X-202110000Y-65560000D02*
X-202110000Y-65860000D01*
X-202110000Y-58940000D02*
X-202110000Y-58640000D01*
X-202110000Y-65860000D02*
X-201810000Y-65860000D01*
X-201810000Y-65860000D02*
X-201810000Y-67175000D01*
X-194890000Y-65860000D02*
X-195190000Y-65860000D01*
X-194890000Y-58940000D02*
X-194890000Y-58640000D01*
X-194890000Y-65560000D02*
X-194890000Y-65860000D01*
X-194890000Y-58640000D02*
X-195190000Y-58640000D01*
X-202110000Y-58640000D02*
X-201810000Y-58640000D01*
%TO.C,D45*%
X-264530749Y-69503757D02*
X-268133879Y-68011292D01*
X-265296115Y-71351516D02*
X-268899246Y-69859051D01*
X-265296115Y-71351516D02*
X-264530749Y-69503757D01*
%TO.C,D9*%
X-243483161Y-18690383D02*
X-247086292Y-17197918D01*
X-242717795Y-16842624D02*
X-246320925Y-15350159D01*
X-243483161Y-18690383D02*
X-242717795Y-16842624D01*
%TO.C,D34*%
X-277396589Y-50915248D02*
X-276631223Y-49067489D01*
X-277396589Y-50915248D02*
X-280999720Y-49422783D01*
X-276631223Y-49067489D02*
X-280234353Y-47575024D01*
%TO.C,D41*%
X-149772962Y-76774743D02*
X-146169832Y-75282278D01*
X-149007596Y-78622502D02*
X-145404465Y-77130037D01*
X-149772962Y-76774743D02*
X-149007596Y-78622502D01*
%TO.C,D18*%
X-159235704Y-54581735D02*
X-162838834Y-56074200D01*
X-160001070Y-52733976D02*
X-163604201Y-54226441D01*
X-159235704Y-54581735D02*
X-160001070Y-52733976D01*
%TO.C,D50*%
X-121699681Y-83141179D02*
X-125302812Y-84633644D01*
X-120934315Y-84988938D02*
X-121699681Y-83141179D01*
X-120934315Y-84988938D02*
X-124537445Y-86481403D01*
%TO.C,D29*%
X-156278582Y-61068790D02*
X-152675451Y-59576325D01*
X-157043948Y-59221031D02*
X-156278582Y-61068790D01*
X-157043948Y-59221031D02*
X-153440818Y-57728566D01*
%TO.C,SW62*%
X-192950000Y-74300000D02*
X-192500000Y-74750000D01*
X-197550000Y-74300000D02*
X-198000000Y-74750000D01*
X-198000000Y-74750000D02*
X-198000000Y-77250000D01*
X-192950000Y-77700000D02*
X-192500000Y-77250000D01*
X-194250000Y-78750000D02*
X-196250000Y-78750000D01*
X-192500000Y-74750000D02*
X-192500000Y-77250000D01*
X-194250000Y-73250000D02*
X-196250000Y-73250000D01*
X-197550000Y-77700000D02*
X-198000000Y-77250000D01*
%TO.C,D32*%
X-239706053Y-59221031D02*
X-243309183Y-57728566D01*
X-240471419Y-61068790D02*
X-244074550Y-59576325D01*
X-240471419Y-61068790D02*
X-239706053Y-59221031D01*
%TO.C,D15*%
X-127389765Y-31513777D02*
X-126624399Y-33361536D01*
X-126624399Y-33361536D02*
X-123021268Y-31869071D01*
X-127389765Y-31513777D02*
X-123786635Y-30021312D01*
%TO.C,D7*%
X-229477945Y-35180265D02*
X-225874814Y-36672730D01*
X-230243311Y-37028024D02*
X-226640181Y-38520489D01*
X-229477945Y-35180265D02*
X-230243311Y-37028024D01*
%TO.C,D31*%
X-244019915Y-70287688D02*
X-240416784Y-71780153D01*
X-244785281Y-72135447D02*
X-241182151Y-73627912D01*
X-244019915Y-70287688D02*
X-244785281Y-72135447D01*
%TO.C,R4*%
X-197727500Y-53987258D02*
X-197727500Y-53512742D01*
X-198772500Y-53987258D02*
X-198772500Y-53512742D01*
%TO.C,J1*%
X-193795000Y-31350000D02*
X-193795000Y-29430000D01*
X-202955000Y-27420000D02*
X-202955000Y-25715000D01*
X-193795000Y-25715000D02*
X-193795000Y-27420000D01*
X-202955000Y-25715000D02*
X-193795000Y-25715000D01*
X-202955000Y-29430000D02*
X-202955000Y-31350000D01*
%TO.C,D27*%
X-120118777Y-49067488D02*
X-119353411Y-50915247D01*
X-119353411Y-50915247D02*
X-115750280Y-49422782D01*
X-120118777Y-49067488D02*
X-116515647Y-47575023D01*
%TO.C,D28*%
X-139490236Y-51950045D02*
X-135887106Y-50457580D01*
X-139490236Y-51950045D02*
X-138724870Y-53797804D01*
X-138724870Y-53797804D02*
X-135121739Y-52305339D01*
%TO.C,D13*%
X-89699229Y-23207993D02*
X-86096098Y-21715528D01*
X-90464595Y-21360234D02*
X-86861465Y-19867769D01*
X-90464595Y-21360234D02*
X-89699229Y-23207993D01*
%TO.C,D40*%
X-132219251Y-69503757D02*
X-131453885Y-71351516D01*
X-131453885Y-71351516D02*
X-127850754Y-69859051D01*
X-132219251Y-69503757D02*
X-128616121Y-68011292D01*
%TO.C,D12*%
X-299014419Y-3806523D02*
X-302617549Y-2314058D01*
X-299779785Y-5654282D02*
X-303382916Y-4161817D01*
X-299779785Y-5654282D02*
X-299014419Y-3806523D01*
%TO.C,D24*%
X-307050771Y-23207993D02*
X-310653902Y-21715528D01*
X-306285405Y-21360234D02*
X-309888535Y-19867769D01*
X-307050771Y-23207993D02*
X-306285405Y-21360234D01*
%TO.C,D58*%
X-257353102Y-90065710D02*
X-253749972Y-91558175D01*
X-256587736Y-88217951D02*
X-252984605Y-89710416D01*
X-256587736Y-88217951D02*
X-257353102Y-90065710D01*
%TO.C,D20*%
X-233200434Y-43515079D02*
X-232435068Y-41667320D01*
X-232435068Y-41667320D02*
X-236038198Y-40174855D01*
X-233200434Y-43515079D02*
X-236803565Y-42022614D01*
%TO.C,D47*%
X-303273664Y-63738642D02*
X-306876794Y-62246177D01*
X-304039030Y-65586401D02*
X-303273664Y-63738642D01*
X-304039030Y-65586401D02*
X-307642161Y-64093936D01*
%TO.C,D56*%
X-221869211Y-109904979D02*
X-218266081Y-111397444D01*
X-221103845Y-108057220D02*
X-221869211Y-109904979D01*
X-221103845Y-108057220D02*
X-217500714Y-109549685D01*
%TO.C,C4*%
X-204659999Y-67659420D02*
X-204659999Y-67940580D01*
X-203639999Y-67659420D02*
X-203639999Y-67940580D01*
%TO.C,D53*%
X-174880789Y-109904980D02*
X-178483919Y-111397445D01*
X-175646155Y-108057221D02*
X-179249286Y-109549686D01*
X-174880789Y-109904980D02*
X-175646155Y-108057221D01*
%TO.C,D10*%
X-262854617Y-15807825D02*
X-266457748Y-14315360D01*
X-262089251Y-13960066D02*
X-265692381Y-12467601D01*
X-262854617Y-15807825D02*
X-262089251Y-13960066D01*
%TO.C,D35*%
X-296768045Y-48032690D02*
X-296002679Y-46184931D01*
X-296768045Y-48032690D02*
X-300371176Y-46540225D01*
X-296002679Y-46184931D02*
X-299605809Y-44692466D01*
%TO.C,R1*%
X-201237258Y-34977500D02*
X-200762742Y-34977500D01*
X-201237258Y-36022500D02*
X-200762742Y-36022500D01*
%TO.C,D26*%
X-100747321Y-46184931D02*
X-99981955Y-48032690D01*
X-99981955Y-48032690D02*
X-96378824Y-46540225D01*
X-100747321Y-46184931D02*
X-97144191Y-44692466D01*
%TO.C,D25*%
X-83193610Y-38913945D02*
X-82428244Y-40761704D01*
X-83193610Y-38913945D02*
X-79590480Y-37421480D01*
X-82428244Y-40761704D02*
X-78825113Y-39269239D01*
%TO.C,U1*%
X-197690000Y-49500000D02*
X-197690000Y-47700000D01*
X-200810000Y-49500000D02*
X-200810000Y-50300000D01*
X-200810000Y-49500000D02*
X-200810000Y-48700000D01*
X-197690000Y-49500000D02*
X-197690000Y-50300000D01*
%TO.C,U2*%
X-190340000Y-55050000D02*
X-190340000Y-56360000D01*
X-190340000Y-56360000D02*
X-193060000Y-56360000D01*
X-193060000Y-56360000D02*
X-193060000Y-56130000D01*
X-194200000Y-51870000D02*
X-193060000Y-51870000D01*
X-193060000Y-51640000D02*
X-190340000Y-51640000D01*
X-190340000Y-51640000D02*
X-190340000Y-52950000D01*
X-193060000Y-51640000D02*
X-193060000Y-51870000D01*
%TO.C,D11*%
X-282226075Y-12925267D02*
X-285829206Y-11432802D01*
X-282226075Y-12925267D02*
X-281460709Y-11077508D01*
X-281460709Y-11077508D02*
X-285063839Y-9585043D01*
%TO.C,D14*%
X-108018307Y-28631219D02*
X-107252941Y-30478978D01*
X-107252941Y-30478978D02*
X-103649810Y-28986513D01*
X-108018307Y-28631219D02*
X-104415177Y-27138754D01*
%TO.C,R2*%
X-195762741Y-36022501D02*
X-196237257Y-36022501D01*
X-195762741Y-34977501D02*
X-196237257Y-34977501D01*
%TD*%
M02*
